<?xml version="1.0" encoding="utf-8"?>
<!-- Generator: Adobe Illustrator 25.2.1, SVG Export Plug-In . SVG Version: 6.00 Build 0)  -->
<svg version="1.1" id="Layer_1" xmlns="http://www.w3.org/2000/svg" xmlns:xlink="http://www.w3.org/1999/xlink" x="0px" y="0px"
	 viewBox="0 0 133.08 139.77" style="enable-background:new 0 0 133.08 139.77;" xml:space="preserve">
<style type="text/css">
	.st0{fill:#FFB020;}
	.st1{fill:#363B64;}
	.st2{fill:#2DB493;}
</style>
<g>
	<circle class="st0" cx="118.66" cy="26.33" r="13.08"/>
	<path class="st1" d="M123.01,128.93H2.57V42.67h120.44V128.93z M6.92,124.58h111.74V47.02H6.92V124.58z"/>
	<path class="st1" d="M123.01,47.02H2.57V28.16h120.44V47.02z M6.92,42.67h111.74V32.51H6.92V42.67z"/>
	<rect x="13.94" y="35.41" class="st1" width="4.35" height="4.35"/>
	<rect x="22.64" y="35.41" class="st1" width="4.35" height="4.35"/>
	<rect x="31.35" y="35.41" class="st1" width="4.35" height="4.35"/>
	<g>
		<path class="st2" d="M18.77,92.83v24.61h24.6V92.83H18.77z M39.73,113.78h-17.3V96.48h17.3V113.78z"/>
		<path class="st2" d="M50.49,92.83v24.61h24.6V92.83H50.49z M71.44,113.78h-17.3V96.48h17.3V113.78z"/>
		<path class="st2" d="M82.21,92.83v24.61h24.6V92.83H82.21z M103.16,113.78h-17.3V96.48h17.3V113.78z"/>
		<g>
			<g>
				<g>
					<path class="st2" d="M33.68,72.4c-3.36,0-6.1-2.74-6.1-6.1c0-3.36,2.73-6.09,6.1-6.09c3.36,0,6.09,2.73,6.09,6.09
						C39.78,69.67,37.04,72.4,33.68,72.4z M33.68,63.1c-1.77,0-3.21,1.44-3.21,3.21c0,1.77,1.44,3.21,3.21,3.21
						c1.77,0,3.21-1.44,3.21-3.21C36.89,64.54,35.45,63.1,33.68,63.1z"/>
					<path class="st2" d="M39.51,80.47c-0.9-2.41-3.24-4.02-5.82-4.02c-2.58,0-4.92,1.62-5.82,4.02l-2.7-1.02
						c1.33-3.53,4.75-5.89,8.52-5.89c3.77,0,7.2,2.37,8.52,5.89L39.51,80.47z"/>
				</g>
				<path class="st2" d="M33.68,83.48c-8.22,0-14.91-6.69-14.91-14.91c0-8.22,6.69-14.91,14.91-14.91c8.22,0,14.91,6.69,14.91,14.91
					C48.6,76.79,41.91,83.48,33.68,83.48z M33.68,56.55c-6.63,0-12.03,5.39-12.03,12.03c0,6.63,5.4,12.03,12.03,12.03
					s12.03-5.4,12.03-12.03C45.71,61.94,40.32,56.55,33.68,56.55z"/>
			</g>
			<g>
				<rect x="60.99" y="58.11" class="st2" width="45.82" height="4.35"/>
				<rect x="60.99" y="66.5" class="st2" width="36.79" height="4.35"/>
				<rect x="60.99" y="74.68" class="st2" width="26.46" height="4.35"/>
			</g>
		</g>
	</g>
</g>
</svg>
