<?xml version="1.0" encoding="utf-8"?>
<!-- Generator: Adobe Illustrator 25.2.1, SVG Export Plug-In . SVG Version: 6.00 Build 0)  -->
<svg version="1.1" id="Layer_1" xmlns="http://www.w3.org/2000/svg" xmlns:xlink="http://www.w3.org/1999/xlink" x="0px" y="0px"
	 viewBox="0 0 133.08 139.77" style="enable-background:new 0 0 133.08 139.77;" xml:space="preserve">
<style type="text/css">
	.st0{fill:#FFB020;}
	.st1{fill:#363B64;}
	.st2{fill:#2DB493;}
</style>
<circle class="st0" cx="22.01" cy="113.7" r="12.69"/>
<g>
	<path class="st1" d="M59.76,110.48c-22.55,0-40.9-18.35-40.9-40.91c0-22.55,18.35-40.9,40.9-40.9c20.81,0,38.28,15.57,40.63,36.23
		l-3.98,0.45c-2.12-18.63-17.88-32.67-36.65-32.67c-20.34,0-36.9,16.55-36.9,36.9c0,20.35,16.55,36.9,36.9,36.9
		c18.77,0,34.53-14.05,36.65-32.67l3.98,0.46C98.03,94.91,80.57,110.48,59.76,110.48z"/>
	<path class="st1" d="M59.76,95.93c-14.53,0-26.36-11.82-26.36-26.36c0-14.53,11.82-26.35,26.36-26.35
		c12.71,0,23.6,9.06,25.91,21.54l-3.94,0.73c-1.95-10.58-11.19-18.26-21.97-18.26c-12.32,0-22.35,10.02-22.35,22.34
		c0,12.32,10.03,22.35,22.35,22.35c10.77,0,20.01-7.68,21.97-18.26l3.94,0.73C83.36,86.87,72.46,95.93,59.76,95.93z"/>
	<path class="st1" d="M59.76,125.03c-30.58,0-55.46-24.88-55.46-55.46s24.88-55.46,55.46-55.46c14.01,0,27.39,5.24,37.66,14.74
		c10.22,9.45,16.47,22.27,17.61,36.1l-4,0.33c-2.18-26.44-24.7-47.16-51.28-47.16c-28.37,0-51.45,23.08-51.45,51.45
		c0,28.37,23.08,51.45,51.45,51.45c26.57,0,49.09-20.71,51.28-47.16l4,0.33c-1.14,13.82-7.39,26.64-17.61,36.1
		C87.15,119.8,73.77,125.03,59.76,125.03z"/>
	<path class="st2" d="M59.76,81.38c-6.51,0-11.8-5.3-11.8-11.8c0-6.51,5.3-11.8,11.8-11.8c2.17,0,4.3,0.6,6.16,1.75l-2.1,3.42
		c-1.23-0.75-2.64-1.15-4.06-1.15c-4.3,0-7.8,3.5-7.8,7.79c0,4.3,3.5,7.79,7.8,7.79c1.43,0,2.83-0.4,4.06-1.15l2.1,3.42
		C64.06,80.77,61.93,81.38,59.76,81.38z"/>
	<g>
		<path class="st2" d="M126.62,76.03h-7.4V63.12h7.4c1.73,0,3.35,0.67,4.57,1.89c1.22,1.21,1.89,2.84,1.89,4.57
			c0,1.73-0.67,3.35-1.89,4.57C129.97,75.36,128.35,76.03,126.62,76.03z M123.23,72.02h3.39c0.65,0,1.27-0.25,1.73-0.72
			c0.46-0.46,0.72-1.08,0.72-1.73c0-0.65-0.25-1.27-0.72-1.73c-0.46-0.47-1.08-0.72-1.74-0.72h-3.39V72.02z"/>
		<polygon class="st2" points="68.78,75.86 54.89,69.57 68.78,63.29 70.43,66.95 64.62,69.57 70.43,72.2 		"/>
		<path class="st2" d="M121.23,76.03H69.61c-1.11,0-2-0.9-2-2v-8.91c0-1.11,0.9-2,2-2h51.62c1.11,0,2,0.9,2,2v8.91
			C123.23,75.13,122.33,76.03,121.23,76.03z M71.61,72.02h47.61v-4.9H71.61V72.02z"/>
	</g>
</g>
</svg>
