<?xml version="1.0" encoding="utf-8"?>
<!-- Generator: Adobe Illustrator 25.2.1, SVG Export Plug-In . SVG Version: 6.00 Build 0)  -->
<svg version="1.1" id="Layer_1" xmlns="http://www.w3.org/2000/svg" xmlns:xlink="http://www.w3.org/1999/xlink" x="0px" y="0px"
	 viewBox="0 0 133.08 139.77" style="enable-background:new 0 0 133.08 139.77;" xml:space="preserve">
<style type="text/css">
	.st0{fill:#FFB020;}
	.st1{fill:#363B64;}
	.st2{fill:#2DB493;}
</style>
<g>
	<circle class="st0" cx="118.92" cy="23.72" r="12.56"/>
	<g>
		<g>
			<polygon class="st1" points="118.92,106.15 78.4,106.15 78.4,102.27 115.04,102.27 115.04,25.66 78.4,25.66 78.4,21.78 
				118.92,21.78 			"/>
			<polygon class="st1" points="50.84,106.15 10.32,106.15 10.32,21.78 50.84,21.78 50.84,25.66 14.2,25.66 14.2,102.27 
				50.84,102.27 			"/>
			<polygon class="st1" points="126.85,114.08 72.37,114.08 72.37,110.2 122.97,110.2 122.97,31.01 116.98,31.01 116.98,27.13 
				126.85,27.13 			"/>
			<polygon class="st1" points="56.87,114.08 2.39,114.08 2.39,27.13 12.26,27.13 12.26,31.01 6.27,31.01 6.27,110.2 56.87,110.2 
							"/>
		</g>
		<g>
			<rect x="62.68" y="78.88" class="st2" width="3.88" height="25.51"/>
			<rect x="62.68" y="23.72" class="st2" width="3.88" height="25.23"/>
			<g>
				<rect x="62.68" y="53.06" class="st2" width="3.88" height="4.31"/>
				<rect x="62.68" y="61.67" class="st2" width="3.88" height="4.31"/>
				<rect x="62.68" y="70.28" class="st2" width="3.88" height="4.31"/>
			</g>
			<polygon class="st2" points="64.62,129.62 54.93,112.66 54.93,23.72 58.81,23.72 58.81,111.63 64.62,121.8 70.43,111.63 
				70.43,23.72 74.31,23.72 74.31,112.66 			"/>
			<polygon class="st2" points="71,113.51 64.62,107.13 58.24,113.51 55.5,110.77 64.62,101.65 73.74,110.77 			"/>
			<path class="st2" d="M74.31,25.66H54.93v-9.69c0-1.55,0.61-3.01,1.7-4.11c1.1-1.1,2.56-1.7,4.11-1.7h7.75
				c1.55,0,3.01,0.6,4.11,1.7c1.1,1.1,1.7,2.56,1.7,4.11V25.66z M58.81,21.78h11.63v-5.81c0-0.52-0.2-1.01-0.57-1.37
				c-0.37-0.36-0.85-0.57-1.37-0.57h-7.75c-0.52,0-1,0.2-1.37,0.57c-0.36,0.37-0.57,0.85-0.57,1.37V21.78z"/>
		</g>
		<g>
			<rect x="32.53" y="61.17" class="st2" width="8.82" height="3.88"/>
			<rect x="41.35" y="76.96" class="st2" width="9.49" height="3.88"/>
			<rect x="41.35" y="84.85" class="st2" width="9.49" height="3.88"/>
			<rect x="32.53" y="69.06" class="st2" width="18.31" height="3.88"/>
			<rect x="41.35" y="45.38" class="st2" width="9.49" height="3.88"/>
			<rect x="41.35" y="53.27" class="st2" width="9.49" height="3.88"/>
			<rect x="32.53" y="37.48" class="st2" width="18.31" height="3.88"/>
		</g>
		<g>
			<rect x="87.89" y="61.16" class="st2" width="8.82" height="3.88"/>
			<rect x="78.4" y="45.37" class="st2" width="9.49" height="3.88"/>
			<rect x="78.4" y="37.48" class="st2" width="9.49" height="3.88"/>
			<rect x="78.4" y="53.27" class="st2" width="18.31" height="3.88"/>
			<rect x="78.4" y="76.95" class="st2" width="9.49" height="3.88"/>
			<rect x="78.4" y="69.06" class="st2" width="9.49" height="3.88"/>
			<rect x="78.4" y="84.85" class="st2" width="18.31" height="3.88"/>
		</g>
	</g>
</g>
</svg>
