<?xml version="1.0" encoding="utf-8"?>
<!-- Generator: Adobe Illustrator 25.2.1, SVG Export Plug-In . SVG Version: 6.00 Build 0)  -->
<svg version="1.1" id="Layer_1" xmlns="http://www.w3.org/2000/svg" xmlns:xlink="http://www.w3.org/1999/xlink" x="0px" y="0px"
	 viewBox="0 0 133.08 139.77" style="enable-background:new 0 0 133.08 139.77;" xml:space="preserve">
<style type="text/css">
	.st0{fill:#FFB020;}
	.st1{fill:#363B64;}
	.st2{fill:#2DB493;}
</style>
<circle class="st0" cx="16.76" cy="15.85" r="13.31"/>
<g>
	<rect x="39.85" y="79.16" class="st2" width="3.85" height="3.85"/>
	<rect x="47.55" y="79.16" class="st2" width="3.85" height="3.85"/>
	<rect x="32.16" y="79.16" class="st2" width="3.85" height="3.85"/>
	<rect x="28.31" y="19.5" class="st2" width="26.94" height="3.85"/>
	<rect x="28.31" y="27.2" class="st2" width="26.94" height="3.85"/>
	<rect x="28.31" y="34.9" class="st2" width="26.94" height="3.85"/>
	<rect x="28.31" y="42.6" class="st2" width="7.7" height="3.85"/>
	<rect x="39.85" y="42.6" class="st2" width="15.39" height="3.85"/>
	<rect x="28.31" y="50.29" class="st2" width="26.94" height="3.85"/>
	<rect x="12.91" y="111.87" class="st1" width="3.85" height="3.85"/>
	<rect x="20.61" y="111.87" class="st1" width="3.85" height="3.85"/>
	<rect x="28.31" y="111.87" class="st1" width="3.85" height="3.85"/>
	<path class="st1" d="M78.34,36.82c0,1.06-0.86,1.92-1.92,1.92s-1.92-0.86-1.92-1.92c0-1.06,0.86-1.92,1.92-1.92
		S78.34,35.76,78.34,36.82L78.34,36.82z M78.34,36.82"/>
	<path class="st1" d="M46.48,107.17c-0.49,0-0.98,0.19-1.36,0.56c-0.75,0.75-0.75,1.97,0,2.72c0.38,0.37,0.87,0.56,1.36,0.56
		c0.49,0,0.98-0.19,1.36-0.56c0.75-0.75,0.75-1.97,0-2.72C47.47,107.36,46.97,107.17,46.48,107.17L46.48,107.17z M46.48,107.17"/>
	<path class="st1" d="M78.34,121.49c0,1.06-0.86,1.92-1.92,1.92s-1.92-0.86-1.92-1.92s0.86-1.92,1.92-1.92
		S78.34,120.43,78.34,121.49L78.34,121.49z M78.34,121.49"/>
	<path class="st1" d="M106.35,107.17c-0.49,0-0.98,0.19-1.36,0.56c-0.75,0.75-0.75,1.97,0,2.72c0.38,0.37,0.87,0.56,1.36,0.56
		s0.98-0.19,1.36-0.56c0.75-0.75,0.75-1.97,0-2.72C107.34,107.36,106.84,107.17,106.35,107.17L106.35,107.17z M106.35,107.17"/>
	<path class="st1" d="M120.68,79.16c0,1.06-0.86,1.92-1.92,1.92c-1.06,0-1.92-0.86-1.92-1.92c0-1.06,0.86-1.92,1.92-1.92
		C119.81,77.23,120.68,78.1,120.68,79.16L120.68,79.16z M120.68,79.16"/>
	<path class="st1" d="M106.35,47.3c-0.49,0-0.98,0.19-1.36,0.56c-0.75,0.75-0.75,1.97,0,2.72c0.38,0.37,0.87,0.56,1.36,0.56
		s0.98-0.19,1.36-0.56c0.75-0.75,0.75-1.97,0-2.72C107.34,47.49,106.84,47.3,106.35,47.3L106.35,47.3z M106.35,47.3"/>
	<path class="st1" d="M122.43,92.63h5.94V65.69h-5.94c-2.24,0-4.25-1.34-5.14-3.51c-0.86-2.08-0.4-4.45,1.19-6.03l4.2-4.2
		l-19.05-19.05l-4.2,4.2c-1.58,1.58-3.95,2.05-6.12,1.15c-2.08-0.86-3.42-2.86-3.42-5.1V27.2H66.8V15.65c0-2.12-1.73-3.85-3.85-3.85
		H20.61c-2.12,0-3.85,1.73-3.85,3.85v29.18l-5.73,3.23c-1.21,0.68-1.96,1.97-1.96,3.36v37.36c0,2.12,1.73,3.85,3.85,3.85H30.4
		c2.24,0,4.25,1.34,5.14,3.51c0.05,0.11,0.07,0.23,0.11,0.34H12.91v3.85h22.65c-0.27,0.68-0.67,1.31-1.21,1.84l-2.01,2.01H12.91
		v3.85H31.8l17.4,17.4l4.2-4.2c1.58-1.58,3.95-2.05,6.12-1.15c2.08,0.86,3.42,2.86,3.42,5.1v5.94h26.94v-5.94
		c0-2.24,1.34-4.25,3.51-5.14c2.07-0.86,4.44-0.4,6.03,1.19l4.2,4.2l19.05-19.05l-4.2-4.2c-1.59-1.58-2.05-3.95-1.15-6.12
		C118.18,93.97,120.19,92.63,122.43,92.63L122.43,92.63z M70.64,53.58v32.69l-21.86-20.4L70.64,53.58z M66.8,51.33v-2.08l1.85,1.04
		L66.8,51.33z M74.49,88.78V54.22c0.64-0.05,1.28-0.08,1.92-0.08c13.79,0,25.02,11.22,25.02,25.02s-11.22,25.02-25.02,25.02
		c-8.55,0-16.51-4.45-21.07-11.55h15.29C72.77,92.63,74.49,90.9,74.49,88.78L74.49,88.78z M50.9,92.63
		c4.97,9.38,14.84,15.39,25.51,15.39c15.92,0,28.86-12.95,28.86-28.86S92.33,50.29,76.42,50.29c-0.69,0-1.39,0.03-2.08,0.08
		c-0.28-0.96-0.91-1.8-1.81-2.3l-1.93-1.08c1.91-0.34,3.85-0.53,5.82-0.53c18.04,0,32.71,14.68,32.71,32.71
		s-14.68,32.71-32.71,32.71c-12.91,0-24.56-7.63-29.81-19.24H50.9z M62.95,15.65V53.5l-17.19,9.67c-2.33-1.65-5.63-1.65-7.96,0
		L20.61,53.5V15.65H62.95z M34.77,65.88l-21.86,20.4V53.58L34.77,65.88z M16.76,51.33l-1.85-1.04l1.85-1.04V51.33z M15.87,88.78
		l23.89-22.3c1.1-1.03,2.94-1.03,4.04,0l23.89,22.3H15.87z M115.76,104.89l1.48,1.48l-13.61,13.61l-1.48-1.48
		c-2.69-2.69-6.7-3.48-10.31-1.99c-3.52,1.45-5.8,4.85-5.8,8.66v2.1H66.8v-2.1c0-3.81-2.28-7.21-5.88-8.7
		c-3.52-1.46-7.53-0.67-10.23,2.02l-1.48,1.48L35.6,106.37l1.48-1.48c2.69-2.69,3.48-6.7,1.99-10.31c-0.29-0.71-0.68-1.35-1.12-1.95
		h4.5c5.5,13.86,18.96,23.09,33.97,23.09c20.16,0,36.56-16.4,36.56-36.56S96.58,42.6,76.42,42.6c-3.27,0-6.5,0.46-9.62,1.31V31.05
		h19.24v2.1c0,3.81,2.28,7.21,5.88,8.7c3.52,1.46,7.54,0.67,10.23-2.02l1.48-1.48l13.61,13.61l-1.48,1.48
		c-2.69,2.69-3.48,6.7-1.99,10.31c1.45,3.52,4.85,5.8,8.66,5.8h2.1v19.24h-2.1c-3.81,0-7.21,2.28-8.7,5.88
		C112.27,98.19,113.07,102.2,115.76,104.89L115.76,104.89z M115.76,104.89"/>
</g>
</svg>
