<?xml version="1.0" encoding="utf-8"?>
<!-- Generator: Adobe Illustrator 25.2.1, SVG Export Plug-In . SVG Version: 6.00 Build 0)  -->
<svg version="1.1" id="Layer_1" xmlns="http://www.w3.org/2000/svg" xmlns:xlink="http://www.w3.org/1999/xlink" x="0px" y="0px"
	 viewBox="0 0 133.08 139.77" style="enable-background:new 0 0 133.08 139.77;" xml:space="preserve">
<style type="text/css">
	.st0{fill:#FFB020;}
	.st1{fill:#363B64;}
	.st2{fill:#2DB493;}
</style>
<circle class="st0" cx="98.01" cy="15.85" r="13.31"/>
<g>
	<g>
		<g>
			<rect x="64.56" y="21.39" class="st1" width="4.49" height="3.89"/>
			<rect x="57.22" y="114.5" class="st1" width="19.16" height="3.89"/>
			<path class="st1" d="M90.01,127.96H44.63c-5.49,0-9.96-4.46-9.96-9.95v-11.16h3.89v11.16c0,3.34,2.72,6.06,6.07,6.06h45.38
				c3.34,0,6.06-2.72,6.06-6.06v-11.16h3.89v11.16C99.96,123.5,95.49,127.96,90.01,127.96z"/>
			<path class="st1" d="M99.96,97.36h-3.89v-75.6c0-3.35-2.72-6.07-6.06-6.07H44.63c-3.35,0-6.07,2.72-6.07,6.07v75.6h-3.89v-75.6
				c0-5.49,4.47-9.96,9.96-9.96h45.38c5.49,0,9.95,4.47,9.95,9.96V97.36z"/>
			<rect x="36.62" y="30.98" class="st1" width="61.39" height="3.89"/>
			<rect x="36.62" y="104.91" class="st1" width="61.39" height="3.89"/>
		</g>
		<g>
			<path class="st1" d="M56.7,53.01H43.31V39.62H56.7V53.01z M47.2,49.12h5.61v-5.61H47.2V49.12z"/>
			<path class="st1" d="M91.32,53.01H77.93V39.62h13.38V53.01z M81.82,49.12h5.62v-5.61h-5.62V49.12z"/>
			<path class="st1" d="M74.01,53.01H60.62V39.62h13.39V53.01z M64.51,49.12h5.61v-5.61h-5.61V49.12z"/>
			<path class="st1" d="M56.7,70.31H43.31V56.93H56.7V70.31z M47.2,66.43h5.61v-5.61H47.2V66.43z"/>
			<path class="st1" d="M74.01,70.31H60.62V56.93h13.39V70.31z M64.51,66.43h5.61v-5.61h-5.61V66.43z"/>
		</g>
		<g>
			<rect x="73.79" y="86.79" class="st1" width="4.32" height="3.89"/>
			<rect x="65.16" y="86.79" class="st1" width="4.32" height="3.89"/>
			<rect x="56.52" y="86.79" class="st1" width="4.32" height="3.89"/>
		</g>
	</g>
	<g>
		<path class="st2" d="M112.84,108.8H21.01l-10.34-6.69l10.34-6.69h91.83V108.8z M22.16,104.91h86.8v-5.6h-86.8l-4.33,2.8
			L22.16,104.91z"/>
		<path class="st2" d="M115.64,108.8h-6.69V95.43h6.69c1.79,0,3.46,0.7,4.73,1.96c1.26,1.26,1.96,2.94,1.96,4.73
			c0,1.79-0.7,3.47-1.96,4.73C119.1,108.1,117.42,108.8,115.64,108.8z M112.84,104.91h2.8c0.75,0,1.45-0.29,1.98-0.82
			c0.53-0.53,0.82-1.23,0.82-1.98c0-0.75-0.29-1.45-0.82-1.98c-0.53-0.53-1.23-0.82-1.98-0.82h-2.8V104.91z"/>
	</g>
	<g>
		<rect x="12.21" y="54.74" class="st2" width="8.85" height="3.89"/>
		<rect x="21.06" y="70.57" class="st2" width="9.51" height="3.89"/>
		<rect x="21.06" y="78.48" class="st2" width="9.51" height="3.89"/>
		<rect x="12.21" y="62.65" class="st2" width="18.36" height="3.89"/>
		<rect x="21.06" y="38.9" class="st2" width="9.51" height="3.89"/>
		<rect x="21.06" y="46.82" class="st2" width="9.51" height="3.89"/>
		<rect x="12.21" y="30.98" class="st2" width="18.36" height="3.89"/>
	</g>
	<g>
		<rect x="113.57" y="54.73" class="st2" width="8.84" height="3.89"/>
		<rect x="104.06" y="38.89" class="st2" width="9.51" height="3.89"/>
		<rect x="104.06" y="30.98" class="st2" width="9.51" height="3.89"/>
		<rect x="104.06" y="46.82" class="st2" width="18.36" height="3.89"/>
		<rect x="104.06" y="70.56" class="st2" width="9.51" height="3.89"/>
		<rect x="104.06" y="62.65" class="st2" width="9.51" height="3.89"/>
		<rect x="104.06" y="78.48" class="st2" width="18.36" height="3.89"/>
	</g>
</g>
</svg>
