<?xml version="1.0" encoding="utf-8"?>
<!-- Generator: Adobe Illustrator 25.2.1, SVG Export Plug-In . SVG Version: 6.00 Build 0)  -->
<svg version="1.1" id="Layer_1" xmlns="http://www.w3.org/2000/svg" xmlns:xlink="http://www.w3.org/1999/xlink" x="0px" y="0px"
	 viewBox="0 0 133.08 139.77" style="enable-background:new 0 0 133.08 139.77;" xml:space="preserve">
<style type="text/css">
	.st0{fill:#FFB020;}
	.st1{fill:#363B64;}
	.st2{fill:#2DB493;}
</style>
<circle class="st0" cx="84.7" cy="102.11" r="13.31"/>
<g>
	
		<rect x="92.06" y="78.08" transform="matrix(0.7067 -0.7075 0.7075 0.7067 -27.3732 94.1591)" class="st1" width="15.65" height="4.03"/>
	
		<rect x="31.18" y="72.27" transform="matrix(0.7072 -0.707 0.707 0.7072 -46.9059 46.9218)" class="st1" width="4.03" height="15.65"/>
	
		<rect x="58.99" y="44.46" transform="matrix(0.7073 -0.7069 0.7069 0.7073 -19.1018 58.4326)" class="st1" width="4.03" height="15.65"/>
	<g>
		<path class="st1" d="M42.2,96.04C42.2,96.04,42.2,96.04,42.2,96.04L42.2,96.04c-1.85,0-3.59-0.72-4.9-2.02
			c-1.31-1.33-2.03-3.07-2.03-4.92c0-1.82,0.69-3.52,1.95-4.82l0.09-0.09c1.32-1.31,3.06-2.03,4.9-2.03c1.84,0,3.58,0.72,4.9,2.03
			c1.31,1.3,2.03,3.04,2.03,4.9c0,1.81-0.69,3.51-1.94,4.82l-0.09,0.09C45.8,95.32,44.06,96.04,42.2,96.04z M40.18,87.03l-0.04,0.04
			c-0.54,0.54-0.84,1.26-0.84,2.04c0,0.78,0.3,1.51,0.85,2.07c0.54,0.53,1.27,0.83,2.04,0.83h0c0.77,0,1.49-0.29,2.03-0.83
			l0.01-0.01c0.55-0.56,0.86-1.29,0.86-2.06c0-0.78-0.3-1.5-0.84-2.04C43.16,85.96,41.31,85.95,40.18,87.03z"/>
		<path class="st1" d="M49.15,102.99c-1.87,0-3.61-0.73-4.9-2.04c-1.3-1.29-2.03-3.03-2.03-4.89c0-1.81,0.69-3.52,1.95-4.82
			l0.08-0.08c1.3-1.32,3.04-2.04,4.9-2.04c1.88,0,3.62,0.73,4.92,2.04c1.3,1.31,2.03,3.04,2.03,4.89c0,1.77-0.67,3.45-1.89,4.74
			l-0.14,0.15C52.77,102.27,51.02,102.99,49.15,102.99z M47.15,93.97l-0.05,0.05c-0.55,0.55-0.85,1.28-0.85,2.05
			c0,0.77,0.3,1.5,0.85,2.04c1.08,1.1,2.95,1.1,4.02,0.08l0.08-0.08c0.55-0.55,0.86-1.28,0.86-2.04c0-0.77-0.3-1.49-0.86-2.05
			C50.14,92.93,48.24,92.91,47.15,93.97z"/>
		<path class="st1" d="M56.11,109.95L56.11,109.95c-1.84,0-3.58-0.72-4.9-2.03c-1.31-1.31-2.03-3.05-2.03-4.9
			c0-1.77,0.66-3.45,1.87-4.75l0.16-0.17c1.3-1.3,3.04-2.02,4.9-2.02c1.86,0,3.6,0.72,4.9,2.02c1.31,1.34,2.03,3.08,2.03,4.92
			c0,1.85-0.72,3.59-2.03,4.89C59.69,109.23,57.95,109.95,56.11,109.95z M54.11,100.91l-0.04,0.05c-0.55,0.56-0.85,1.29-0.85,2.07
			c0,0.77,0.3,1.5,0.84,2.04c1.11,1.1,2.99,1.1,4.11,0c0.55-0.54,0.84-1.27,0.85-2.04c0-0.77-0.31-1.51-0.86-2.07
			C57.1,99.9,55.18,99.88,54.11,100.91z"/>
		<path class="st1" d="M63.05,116.91L63.05,116.91c-1.85,0-3.59-0.72-4.9-2.03c-1.31-1.3-2.03-3.04-2.04-4.91
			c0-1.86,0.73-3.6,2.04-4.91c1.32-1.31,3.05-2.03,4.89-2.03c1.84,0,3.58,0.72,4.9,2.03c1.31,1.28,2.04,3.03,2.04,4.92
			c0,1.87-0.72,3.61-2.04,4.91C66.62,116.19,64.88,116.91,63.05,116.91z M63.06,107.06c-0.77,0-1.49,0.3-2.04,0.85
			c-0.56,0.55-0.86,1.28-0.86,2.05c0,0.78,0.3,1.51,0.85,2.05c0.55,0.55,1.28,0.86,2.05,0.86c0.76,0,1.5-0.31,2.07-0.87
			c0.54-0.53,0.83-1.25,0.83-2.03c0-0.79-0.3-1.52-0.84-2.05C64.56,107.36,63.83,107.06,63.06,107.06z"/>
	</g>
	<polygon class="st2" points="22.56,82.53 2.01,61.98 4.86,59.13 22.56,76.82 57.73,41.64 40.04,23.94 42.89,21.09 63.44,41.64 	"/>
	<polygon class="st2" points="110.52,82.53 69.65,41.64 90.19,21.09 93.04,23.95 75.35,41.64 110.52,76.83 128.22,59.13 
		131.07,61.98 	"/>
	<path class="st1" d="M71.79,118.68c-1.83,0-3.57-0.72-4.9-2.02l-1.78-1.78l2.85-2.85l1.77,1.77c1.11,1.09,3.01,1.1,4.1,0
		c0.55-0.55,0.86-1.28,0.86-2.06c0-0.77-0.3-1.5-0.85-2.05l2.85-2.85c1.09,1.09,3,1.11,4.11,0c0.55-0.55,0.85-1.27,0.85-2.04
		c0-0.77-0.31-1.51-0.86-2.07l2.87-2.83c0.53,0.54,1.26,0.84,2.04,0.84c0,0,0,0,0,0c0.78,0,1.51-0.3,2.05-0.85
		c0.54-0.54,0.84-1.27,0.84-2.05c0-0.78-0.3-1.51-0.84-2.05l2.85-2.85c0.54,0.54,1.27,0.84,2.05,0.84h0c0.78,0,1.5-0.3,2.04-0.84
		c0.55-0.55,0.85-1.28,0.85-2.06c0-0.78-0.3-1.5-0.84-2.03L82.28,76.41c-2.25,1.66-4.96,2.55-7.81,2.55h0
		c-3.32,0-6.44-1.21-8.88-3.43l-6.63,6.63c-1.32,1.32-3.06,2.04-4.9,2.04c0,0-0.01,0-0.01,0c-1.84,0-3.58-0.72-4.9-2.03
		c-1.31-1.3-2.03-3.04-2.03-4.9c0-1.83,0.72-3.57,2.02-4.9l27.05-27.06l2.85,2.85L51.99,75.22c-0.54,0.55-0.85,1.29-0.85,2.06
		c0,0.77,0.3,1.5,0.84,2.04c0.56,0.55,1.29,0.86,2.05,0.86c0,0,0,0,0,0c0.77,0,1.5-0.31,2.05-0.86l9.47-9.47l2.4,2.4
		c1.73,1.73,4.04,2.69,6.5,2.69c2.45,0,4.76-0.96,6.5-2.69l1.43-1.43l15.16,15.17c1.31,1.28,2.03,3.03,2.03,4.9
		c0,1.85-0.72,3.6-2.03,4.91c-1.3,1.31-3.04,2.03-4.9,2.03c-0.01,0-0.02,0-0.03,0c0,0.01,0,0.02,0,0.02c0,1.86-0.72,3.6-2.03,4.9
		c-1.31,1.31-3.05,2.03-4.9,2.03c-0.01,0-0.01,0-0.02,0c0,0.01,0,0.02,0,0.03c0,1.85-0.72,3.59-2.03,4.9
		c-1.32,1.32-3.06,2.06-4.92,2.04c0,0.01,0,0.01,0,0.02c0,1.85-0.72,3.59-2.04,4.91C75.38,117.95,73.64,118.68,71.79,118.68z"/>
	
		<rect x="109.1" y="66.84" transform="matrix(0.707 -0.7072 0.7072 0.707 -16.1391 98.7524)" class="st2" width="4.03" height="4.03"/>
	
		<rect x="19.95" y="66.84" transform="matrix(0.7071 -0.7071 0.7071 0.7071 -42.2553 35.6962)" class="st2" width="4.03" height="4.03"/>
</g>
</svg>
