<?xml version="1.0" encoding="utf-8"?>
<!-- Generator: Adobe Illustrator 25.2.1, SVG Export Plug-In . SVG Version: 6.00 Build 0)  -->
<svg version="1.1" id="Layer_1" xmlns="http://www.w3.org/2000/svg" xmlns:xlink="http://www.w3.org/1999/xlink" x="0px" y="0px"
	 viewBox="0 0 133.08 139.77" style="enable-background:new 0 0 133.08 139.77;" xml:space="preserve">
<style type="text/css">
	.st0{fill:#FFB020;}
	.st1{fill:#363B64;}
	.st2{fill:#2DB493;}
</style>
<g>
	<circle class="st0" cx="113.14" cy="29.85" r="13.5"/>
	<g>
		<path class="st2" d="M94.3,83.66c-12.76,0-23.14-10.38-23.14-23.15c0-12.75,10.38-23.13,23.14-23.13
			c12.76,0,23.15,10.38,23.15,23.13C117.44,73.28,107.06,83.66,94.3,83.66z M94.3,41.69c-10.39,0-18.84,8.45-18.84,18.83
			c0,10.39,8.45,18.84,18.84,18.84c10.39,0,18.84-8.45,18.84-18.84C113.14,50.13,104.69,41.69,94.3,41.69z"/>
		<path class="st1" d="M94.3,122.67l-28.68-40.2c-4.93-6.92-7.43-14.3-7.43-21.95c0-19.92,16.2-36.12,36.12-36.12
			c19.92,0,36.13,16.2,36.13,36.12c0,7.55-2.57,15.14-7.44,21.95L94.3,122.67z M94.3,28.7c-17.54,0-31.81,14.27-31.81,31.81
			c0,6.73,2.23,13.28,6.63,19.45l25.18,35.29l25.19-35.29c4.4-6.17,6.64-12.71,6.64-19.45C126.12,42.98,111.84,28.7,94.3,28.7z"/>
		<path class="st2" d="M23.2,75.96L8.13,54.84c-2.57-3.61-3.88-7.47-3.88-11.49c0-10.45,8.5-18.95,18.95-18.95
			c10.45,0,18.95,8.5,18.95,18.95c0,3.96-1.34,7.94-3.88,11.49L23.2,75.96z M23.2,28.7c-8.07,0-14.64,6.57-14.64,14.64
			c0,3.1,1.04,6.12,3.08,8.99L23.2,68.55l11.57-16.21c2.04-2.86,3.08-5.88,3.08-8.99C37.85,35.27,31.28,28.7,23.2,28.7z"/>
		<path class="st1" d="M23.2,53.07c-5.36,0-9.72-4.36-9.72-9.72c0-5.36,4.36-9.72,9.72-9.72c5.36,0,9.72,4.36,9.72,9.72
			C32.92,48.71,28.56,53.07,23.2,53.07z M23.2,37.94c-2.99,0-5.42,2.43-5.42,5.41c0,2.99,2.43,5.42,5.42,5.42
			c2.99,0,5.42-2.43,5.42-5.42C28.62,40.36,26.19,37.94,23.2,37.94z"/>
		<path class="st2" d="M73.55,123.41v-4.3h4.24v4.3H73.55z M64.11,123.41v-4.3h4.24v4.3H64.11z M54.66,123.41v-4.3h4.24v4.3H54.66z
			 M45.22,123.41v-4.3h4.24v4.3H45.22z M35.78,123.41v-4.3h4.24v4.3H35.78z M26.34,123.41v-4.3h4.24v4.3H26.34z M21.14,123.41
			c-1.7-0.01-3.35-0.31-4.93-0.89l1.55-4.02c1.08,0.39,2.22,0.59,3.38,0.6V123.41z M11.14,119.36c-1.23-1.17-2.23-2.54-2.98-4.05
			l3.89-1.85c0.52,1.02,1.2,1.94,2.02,2.75L11.14,119.36z M6.66,109.52c-0.01-0.23-0.02-0.46-0.02-0.7c0-1.46,0.22-2.9,0.64-4.29
			l4.1,1.33c-0.29,0.96-0.43,1.95-0.43,2.96c0,0.14,0,0.28,0.01,0.43L6.66,109.52z M10.18,99.3c1.11-1.29,2.42-2.36,3.89-3.19
			l2.05,3.78c-1,0.57-1.88,1.3-2.64,2.16L10.18,99.3z M19.76,94.31c0.48-0.05,0.97-0.07,1.47-0.07h3.02v4.3h-3.02
			c-0.33,0-0.65,0.02-0.97,0.05L19.76,94.31z M48.34,98.54v-4.3h0.03c1,0,1.97-0.27,2.82-0.78l2.37,3.59
			c-1.56,0.97-3.34,1.49-5.19,1.49H48.34z M38.89,98.54v-4.3h4.24v4.3H38.89z M29.45,98.54v-4.3h4.24v4.3H29.45z M53.57,90.51
			c0.19-0.57,0.29-1.16,0.29-1.77c0-0.37-0.04-0.74-0.11-1.1l4.18-1.04c0.16,0.7,0.23,1.42,0.23,2.14c0,1.15-0.2,2.27-0.59,3.34
			L53.57,90.51z M51.77,84.41c-0.77-0.61-1.68-0.99-2.65-1.12L49.51,79c1.86,0.22,3.6,0.95,5.06,2.15L51.77,84.41z M39.87,83.24
			v-4.3h4.24v4.3H39.87z M30.43,83.24v-4.3h4.24v4.3H30.43z M20.99,83.24v-4.3h4.24v4.3H20.99z"/>
	</g>
</g>
</svg>
