<?xml version="1.0" encoding="utf-8"?>
<!-- Generator: Adobe Illustrator 25.2.1, SVG Export Plug-In . SVG Version: 6.00 Build 0)  -->
<svg version="1.1" id="Layer_1" xmlns="http://www.w3.org/2000/svg" xmlns:xlink="http://www.w3.org/1999/xlink" x="0px" y="0px"
	 viewBox="0 0 133.08 139.77" style="enable-background:new 0 0 133.08 139.77;" xml:space="preserve">
<style type="text/css">
	.st0{fill:#FFB020;}
	.st1{fill:#363B64;}
	.st2{fill:#2DB493;}
</style>
<circle class="st0" cx="99.75" cy="92.08" r="13.5"/>
<g>
	<path class="st1" d="M115.6,5.93H81c-5.25,0-9.52,4.27-9.52,9.52v27.09c-4.52-3.77-10.16-5.82-16.11-5.82
		c-6.73,0-13.07,2.62-17.83,7.38c-2.47,2.47-4.32,5.33-5.55,8.39H16.4c-2.57,0-4.67-2.09-4.67-4.67V23.87h46.32v6.1
		c0,1.04,0.84,1.88,1.88,1.88s1.88-0.84,1.88-1.88V14.24v0c0-4.64-3.78-8.42-8.42-8.42h0H16.4h0c-4.64,0-8.42,3.78-8.42,8.42
		l0,33.58c0,4.64,3.78,8.42,8.42,8.42H30.8c-1.88,8.19,0.36,17.15,6.73,23.52c0.38,0.38,0.77,0.74,1.17,1.1H11.73v-5.96
		c0-2.22,1.91-4.69,4.67-4.64h7.73c1.04,0,1.88-0.84,1.88-1.88c0-1.04-0.84-1.88-1.88-1.88h-7.7c-4.03-0.22-8.68,3.86-8.45,8.42
		v7.82v42.8c0,4.64,3.78,8.42,8.42,8.42h36.99c4.64,0,8.42-3.78,8.42-8.42V86.32c3.67-0.96,7.09-2.75,10.01-5.28l4.51,4.51
		l-0.05,0.05c-2.74,2.74-2.74,7.19,0,9.92l8.46,8.46c1.33,1.33,3.09,2.06,4.96,2.06s3.64-0.73,4.96-2.05l2.75-2.75
		c1.33-1.33,2.06-3.09,2.06-4.96c0-1.87-0.73-3.64-2.06-4.96l-8.46-8.46c-1.33-1.33-3.09-2.06-4.96-2.06
		c-1.87,0-3.64,0.73-4.96,2.06l-0.05,0.05l-4.51-4.51c3.95-4.57,6.11-10.35,6.11-16.45c0-1.96-0.22-3.89-0.66-5.75
		c0.36,0.04,0.72,0.07,1.08,0.07h5.04v9.14c-0.1,3.61,5.02,5.47,7.22,2.1l7.14-11.24h15.21c5.25,0,9.52-4.27,9.52-9.52V15.45
		C125.12,10.2,120.85,5.93,115.6,5.93L115.6,5.93z M53.38,9.57c2.57,0,4.67,2.09,4.67,4.67v5.87H11.73v-5.87
		c0-2.57,2.09-4.67,4.67-4.67L53.38,9.57z M83.99,84.55c0.87,0,1.69,0.34,2.31,0.96l8.46,8.46c0.62,0.62,0.96,1.44,0.96,2.31
		s-0.34,1.69-0.96,2.31l-2.75,2.75c-0.62,0.62-1.44,0.96-2.31,0.96s-1.69-0.34-2.31-0.96l-8.46-8.46c-0.62-0.62-0.96-1.44-0.96-2.31
		s0.34-1.69,0.96-2.31l2.75-2.75C82.3,84.89,83.12,84.55,83.99,84.55L83.99,84.55z M58.05,125.53c0,2.57-2.09,4.67-4.67,4.67H16.4
		c-2.57,0-4.67-2.09-4.67-4.67V84.61h32.59c4.05,1.98,8.95,2.9,13.74,2.39L58.05,125.53L58.05,125.53z M70.53,77.11
		c-8.37,8.37-21.98,8.37-30.35,0c-8.37-8.37-8.37-21.98,0-30.35c4.18-4.18,9.68-6.28,15.17-6.28c5.5,0,10.99,2.09,15.17,6.28
		C78.9,55.12,78.9,68.74,70.53,77.11z M121.36,46.72c0,3.18-2.59,5.77-5.76,5.77H99.36c-0.64,0-1.24,0.33-1.58,0.87l-7.69,12.11
		c-0.1,0.14-0.29,0.11-0.3-0.09l0-18.52c0-1.04-0.84-1.88-1.88-1.88s-1.88,0.84-1.88,1.88v5.63H81c-0.86,0-1.71-0.19-2.48-0.56
		c-0.85-1.96-1.95-3.82-3.29-5.53V15.45c0-3.18,2.59-5.77,5.77-5.77h34.6c3.18,0,5.76,2.59,5.76,5.77L121.36,46.72L121.36,46.72z"/>
</g>
<path class="st2" d="M55.36,44.25c-4.72,0-9.16,1.84-12.5,5.18c-3.33,3.33-5.17,7.77-5.17,12.5c0,4.73,1.84,9.17,5.17,12.5
	c3.34,3.34,7.78,5.18,12.5,5.18c3.37,0,6.64-0.94,9.45-2.73c0.87-0.56,1.13-1.72,0.58-2.59c-0.56-0.88-1.72-1.13-2.59-0.58
	c-2.21,1.41-4.79,2.15-7.44,2.15c-3.72,0-7.22-1.45-9.85-4.08c-2.63-2.62-4.07-6.12-4.07-9.85c0-3.72,1.45-7.22,4.07-9.85
	c2.63-2.63,6.13-4.08,9.85-4.08c3.72,0,7.22,1.45,9.85,4.08c4.12,4.12,5.24,10.45,2.77,15.74c-0.44,0.94-0.03,2.06,0.91,2.49
	c0.94,0.44,2.06,0.03,2.49-0.91c3.13-6.72,1.71-14.75-3.52-19.98C64.52,46.09,60.08,44.25,55.36,44.25L55.36,44.25z"/>
<path class="st2" d="M98.16,44.55c-1.05,0-1.91,0.85-1.91,1.91c0,1.05,0.85,1.91,1.91,1.91c1.05,0,1.91-0.85,1.91-1.91
	C100.07,45.4,99.22,44.55,98.16,44.55z"/>
<path class="st2" d="M98.36,12.52c-5.02-0.1-9.32,3.56-10.01,8.52c-0.06,0.45-0.1,0.92-0.1,1.38c0,1.04,0.84,1.88,1.88,1.88
	c1.04,0,1.88-0.84,1.88-1.88c0-0.29,0.02-0.58,0.06-0.86c0.43-3.08,3.1-5.36,6.22-5.29c3.21,0.06,5.85,2.62,6.02,5.82
	c0.09,1.71-0.51,3.33-1.68,4.56c-1.17,1.24-2.76,1.92-4.46,1.92c-1.04,0-1.88,0.84-1.88,1.88v8.4c0,1.04,0.84,1.88,1.88,1.88
	s1.88-0.84,1.88-1.88v-6.69c2.02-0.38,3.86-1.38,5.31-2.91c1.89-1.99,2.85-4.6,2.71-7.34C107.79,16.75,103.53,12.63,98.36,12.52
	L98.36,12.52z"/>
<path class="st2" d="M19.3,16.79c1.05,0,1.91-0.85,1.91-1.91s-0.85-1.91-1.91-1.91c-1.05,0-1.91,0.85-1.91,1.91
	S18.24,16.79,19.3,16.79z"/>
<path class="st2" d="M17.39,75.37c0,1.05,0.85,1.91,1.91,1.91c1.05,0,1.91-0.85,1.91-1.91s-0.85-1.91-1.91-1.91
	C18.24,73.46,17.39,74.32,17.39,75.37z"/>
<path class="st2" d="M49.69,95.42H19.3c-1.04,0-1.88,0.84-1.88,1.88c0,1.04,0.84,1.88,1.88,1.88h30.39c1.04,0,1.88-0.84,1.88-1.88
	C51.57,96.26,50.73,95.42,49.69,95.42L49.69,95.42z"/>
<path class="st2" d="M49.69,105.9H19.3c-1.04,0-1.88,0.84-1.88,1.88s0.84,1.88,1.88,1.88h30.39c1.04,0,1.88-0.84,1.88-1.88
	S50.73,105.9,49.69,105.9L49.69,105.9z"/>
<path class="st2" d="M42.93,116.38H25.55c-1.04,0-1.88,0.84-1.88,1.88c0,1.04,0.84,1.88,1.88,1.88h17.38c1.04,0,1.88-0.84,1.88-1.88
	C44.81,117.22,43.97,116.38,42.93,116.38L42.93,116.38z"/>
</svg>
