<?xml version="1.0" encoding="utf-8"?>
<!-- Generator: Adobe Illustrator 25.2.1, SVG Export Plug-In . SVG Version: 6.00 Build 0)  -->
<svg version="1.1" id="Layer_1" xmlns="http://www.w3.org/2000/svg" xmlns:xlink="http://www.w3.org/1999/xlink" x="0px" y="0px"
	 viewBox="0 0 133.08 139.77" style="enable-background:new 0 0 133.08 139.77;" xml:space="preserve">
<style type="text/css">
	.st0{fill:#FFB020;}
	.st1{fill:#363B64;}
	.st2{fill:#2DB493;}
</style>
<circle class="st0" cx="58.61" cy="117.33" r="13.08"/>
<g>
	<g>
		<path class="st1" d="M118.62,106.15V32.37l6.42-9.93l6.42,9.93v73.79H118.62z M122.35,33.47v68.95h5.38V33.47l-2.69-4.16
			L122.35,33.47z"/>
		<path class="st1" d="M118.62,108.84v-6.42h12.84v6.42c0,1.71-0.67,3.33-1.88,4.54c-1.21,1.21-2.82,1.88-4.54,1.88
			c-1.72,0-3.33-0.67-4.54-1.88C119.28,112.17,118.62,110.56,118.62,108.84z M122.35,106.15v2.69c0,0.72,0.28,1.39,0.79,1.9
			c0.51,0.51,1.18,0.79,1.9,0.79c0.72,0,1.39-0.28,1.9-0.79c0.51-0.51,0.79-1.18,0.79-1.9v-2.69H122.35z"/>
	</g>
	<g>
		<rect x="17.55" y="76.42" class="st2" width="8.5" height="3.73"/>
		<rect x="26.04" y="91.63" class="st2" width="9.14" height="3.73"/>
		<rect x="26.04" y="99.23" class="st2" width="9.14" height="3.73"/>
		<rect x="17.55" y="84.02" class="st2" width="17.63" height="3.73"/>
		<rect x="26.04" y="61.22" class="st2" width="9.14" height="3.73"/>
		<rect x="26.04" y="68.82" class="st2" width="9.14" height="3.73"/>
		<rect x="17.55" y="53.61" class="st2" width="17.63" height="3.73"/>
	</g>
	<g>
		<rect x="54.36" y="77.06" class="st2" width="8.49" height="3.73"/>
		<rect x="45.22" y="61.86" class="st2" width="9.14" height="3.73"/>
		<rect x="45.22" y="54.26" class="st2" width="9.14" height="3.73"/>
		<rect x="45.22" y="69.46" class="st2" width="17.63" height="3.73"/>
		<rect x="45.22" y="92.27" class="st2" width="9.14" height="3.73"/>
		<rect x="45.22" y="84.67" class="st2" width="9.14" height="3.73"/>
		<rect x="45.22" y="99.88" class="st2" width="17.63" height="3.73"/>
	</g>
	<g>
		<rect x="84.35" y="77.06" class="st2" width="8.49" height="3.73"/>
		<rect x="75.21" y="61.86" class="st2" width="9.14" height="3.73"/>
		<rect x="75.21" y="54.26" class="st2" width="9.14" height="3.73"/>
		<rect x="75.21" y="69.46" class="st2" width="17.63" height="3.73"/>
		<rect x="75.21" y="92.27" class="st2" width="9.14" height="3.73"/>
		<rect x="75.21" y="84.67" class="st2" width="9.14" height="3.73"/>
		<rect x="75.21" y="99.88" class="st2" width="17.63" height="3.73"/>
	</g>
	<g>
		<polygon class="st1" points="109.03,117.33 59.89,117.33 59.89,113.6 105.3,113.6 105.3,39.58 5.35,39.58 5.35,113.6 50.76,113.6 
			50.76,117.33 1.62,117.33 1.62,35.84 109.03,35.84 		"/>
		<path class="st1" d="M109.03,39.58H1.62V22.88h107.41V39.58z M5.35,35.84h99.94v-9.23H5.35V35.84z"/>
		<g>
			<rect x="26.36" y="29.36" class="st1" width="3.73" height="3.73"/>
			<rect x="18.9" y="29.36" class="st1" width="3.73" height="3.73"/>
			<rect x="11.43" y="29.36" class="st1" width="3.73" height="3.73"/>
		</g>
	</g>
	<g>
		<path class="st1" d="M118.62,106.15V32.37l6.42-9.93l6.42,9.93v73.79H118.62z M122.35,33.47v68.95h5.38V33.47l-2.69-4.16
			L122.35,33.47z"/>
		<path class="st1" d="M118.62,108.84v-6.42h12.84v6.42c0,1.71-0.67,3.33-1.88,4.54c-1.21,1.21-2.82,1.88-4.54,1.88
			c-1.72,0-3.33-0.67-4.54-1.88C119.28,112.17,118.62,110.56,118.62,108.84z M122.35,106.15v2.69c0,0.72,0.28,1.39,0.79,1.9
			c0.51,0.51,1.18,0.79,1.9,0.79c0.72,0,1.39-0.28,1.9-0.79c0.51-0.51,0.79-1.18,0.79-1.9v-2.69H122.35z"/>
	</g>
	<g>
		<rect x="17.55" y="76.42" class="st2" width="8.5" height="3.73"/>
		<rect x="26.04" y="91.63" class="st2" width="9.14" height="3.73"/>
		<rect x="26.04" y="99.23" class="st2" width="9.14" height="3.73"/>
		<rect x="17.55" y="84.02" class="st2" width="17.63" height="3.73"/>
		<rect x="26.04" y="61.22" class="st2" width="9.14" height="3.73"/>
		<rect x="26.04" y="68.82" class="st2" width="9.14" height="3.73"/>
		<rect x="17.55" y="53.61" class="st2" width="17.63" height="3.73"/>
	</g>
	<g>
		<rect x="54.36" y="77.06" class="st2" width="8.49" height="3.73"/>
		<rect x="45.22" y="61.86" class="st2" width="9.14" height="3.73"/>
		<rect x="45.22" y="54.26" class="st2" width="9.14" height="3.73"/>
		<rect x="45.22" y="69.46" class="st2" width="17.63" height="3.73"/>
		<rect x="45.22" y="92.27" class="st2" width="9.14" height="3.73"/>
		<rect x="45.22" y="84.67" class="st2" width="9.14" height="3.73"/>
		<rect x="45.22" y="99.88" class="st2" width="17.63" height="3.73"/>
	</g>
	<g>
		<rect x="84.35" y="77.06" class="st2" width="8.49" height="3.73"/>
		<rect x="75.21" y="61.86" class="st2" width="9.14" height="3.73"/>
		<rect x="75.21" y="54.26" class="st2" width="9.14" height="3.73"/>
		<rect x="75.21" y="69.46" class="st2" width="17.63" height="3.73"/>
		<rect x="75.21" y="92.27" class="st2" width="9.14" height="3.73"/>
		<rect x="75.21" y="84.67" class="st2" width="9.14" height="3.73"/>
		<rect x="75.21" y="99.88" class="st2" width="17.63" height="3.73"/>
	</g>
	<g>
		<polygon class="st1" points="109.03,117.33 59.89,117.33 59.89,113.6 105.3,113.6 105.3,39.58 5.35,39.58 5.35,113.6 50.76,113.6 
			50.76,117.33 1.62,117.33 1.62,35.84 109.03,35.84 		"/>
		<path class="st1" d="M109.03,39.58H1.62V22.88h107.41V39.58z M5.35,35.84h99.94v-9.23H5.35V35.84z"/>
		<g>
			<rect x="26.36" y="29.36" class="st1" width="3.73" height="3.73"/>
			<rect x="18.9" y="29.36" class="st1" width="3.73" height="3.73"/>
			<rect x="11.43" y="29.36" class="st1" width="3.73" height="3.73"/>
		</g>
	</g>
</g>
</svg>
