<?xml version="1.0" encoding="utf-8"?>
<!-- Generator: Adobe Illustrator 25.2.1, SVG Export Plug-In . SVG Version: 6.00 Build 0)  -->
<svg version="1.1" id="Layer_1" xmlns="http://www.w3.org/2000/svg" xmlns:xlink="http://www.w3.org/1999/xlink" x="0px" y="0px"
	 viewBox="0 0 133.08 139.77" style="enable-background:new 0 0 133.08 139.77;" xml:space="preserve">
<style type="text/css">
	.st0{fill:#FFB020;}
	.st1{fill:#363B64;}
	.st2{fill:#2DB493;}
</style>
<circle class="st0" cx="54.86" cy="102.96" r="13.08"/>
<g>
	<g>
		<path class="st1" d="M76.12,71.48c-7.67,0-14.75-3.51-19.4-9.62l2.72-2.07c4.01,5.26,10.09,8.28,16.69,8.28
			c11.56,0,20.97-9.41,20.97-20.97c0-11.56-9.41-20.97-20.97-20.97c-6.6,0-12.68,3.02-16.69,8.28l-2.71-2.07
			c4.66-6.12,11.73-9.62,19.41-9.62c13.44,0,24.38,10.94,24.38,24.39C100.51,60.54,89.57,71.48,76.12,71.48z"/>
		<g>
			<path class="st1" d="M77.6,57.68h-2.96c-1.64,0-3.18-0.64-4.34-1.8c-1.16-1.17-1.8-2.71-1.8-4.35h3.41c0,0.73,0.28,1.42,0.8,1.94
				c0.51,0.51,1.2,0.8,1.93,0.8h2.96c0.73,0,1.42-0.28,1.93-0.8c0.51-0.51,0.8-1.2,0.8-1.94c0-0.73-0.28-1.41-0.8-1.93
				c-0.52-0.52-1.2-0.8-1.93-0.8h-2.96c-1.65,0-3.19-0.64-4.35-1.8c-1.16-1.16-1.8-2.7-1.8-4.34c0-1.64,0.64-3.19,1.8-4.35
				c1.17-1.16,2.71-1.8,4.35-1.8h2.96c1.64,0,3.18,0.64,4.34,1.8c1.16,1.16,1.8,2.71,1.8,4.35h-3.41c0-0.73-0.28-1.42-0.8-1.94
				c-0.52-0.52-1.2-0.8-1.93-0.8h-2.96c-0.73,0-1.42,0.28-1.93,0.8c-0.51,0.51-0.8,1.2-0.8,1.93c0,0.73,0.28,1.42,0.8,1.93
				c0.51,0.52,1.2,0.8,1.93,0.8h2.96c1.65,0,3.19,0.64,4.35,1.81c1.16,1.15,1.8,2.7,1.8,4.34c0,1.64-0.64,3.19-1.8,4.35
				C80.78,57.05,79.24,57.68,77.6,57.68z"/>
		</g>
		<path class="st1" d="M76.12,78.07c-8.88,0-17.35-3.82-23.22-10.49l2.56-2.26c5.23,5.93,12.76,9.33,20.66,9.33
			c15.19,0,27.55-12.36,27.55-27.56c0-15.19-12.36-27.55-27.55-27.55c-7.9,0-15.43,3.4-20.66,9.33l-2.56-2.26
			c5.87-6.67,14.34-10.49,23.22-10.49c17.07,0,30.97,13.89,30.97,30.97C107.09,64.17,93.2,78.07,76.12,78.07z"/>
	</g>
	<g>
		<path class="st2" d="M32.23,78.06c-17.08,0-30.97-13.89-30.97-30.97c0-17.08,13.89-30.97,30.97-30.97
			c17.08,0,30.97,13.89,30.97,30.97C63.2,64.17,49.31,78.06,32.23,78.06z M32.23,19.54C17.04,19.54,4.68,31.9,4.68,47.1
			c0,15.19,12.36,27.55,27.55,27.55c15.19,0,27.55-12.36,27.55-27.55C59.79,31.9,47.43,19.54,32.23,19.54z"/>
		<path class="st2" d="M32.23,78.06c-9.16,0-16.34-13.6-16.34-30.97c0-17.37,7.18-30.97,16.34-30.97v3.41
			c-7.01,0-12.93,12.62-12.93,27.56c0,14.94,5.92,27.55,12.93,27.55V78.06z"/>
		<path class="st2" d="M32.23,78.06v-3.41c7,0,12.92-12.62,12.92-27.55c0-14.94-5.92-27.56-12.92-27.56v-3.41
			c9.16,0,16.34,13.6,16.34,30.97C48.57,64.46,41.39,78.06,32.23,78.06z"/>
		<rect x="30.53" y="17.83" class="st2" width="3.41" height="58.52"/>
		<rect x="2.97" y="45.39" class="st2" width="58.52" height="3.41"/>
		<path class="st2" d="M32.23,34.17c-7.97,0-15.83-1.25-23.37-3.73l1.06-3.24c7.2,2.36,14.7,3.56,22.3,3.56
			c7.61,0,15.12-1.2,22.31-3.56l1.07,3.24C48.07,32.92,40.21,34.17,32.23,34.17z"/>
		<path class="st2" d="M9.93,66.99l-1.07-3.24c7.54-2.48,15.4-3.73,23.37-3.73c7.98,0,15.84,1.26,23.37,3.73l-1.07,3.24
			c-7.19-2.36-14.7-3.56-22.31-3.56C24.63,63.43,17.13,64.63,9.93,66.99z"/>
	</g>
	<g>
		<path class="st1" d="M105.3,105.25H54.86v-3.41h50.44c1.92,0,3.73-0.75,5.09-2.11c1.36-1.36,2.1-3.16,2.1-5.09
			c0-1.92-0.75-3.73-2.11-5.09c-1.36-1.36-3.16-2.11-5.09-2.11H54.86v-3.41h50.44c2.84,0,5.5,1.1,7.5,3.11
			c2,2.01,3.11,4.67,3.11,7.5c0,2.84-1.1,5.5-3.11,7.5C110.8,104.14,108.14,105.25,105.3,105.25z"/>
		<polygon class="st1" points="106.63,87.44 53.54,87.44 49.75,75.13 53.06,74.28 56.18,84.03 103.98,84.03 118.1,29.2 131.82,29.2 
			131.82,32.61 120.74,32.61 		"/>
		<path class="st1" d="M59.7,123.64c-3.61,0-6.55-2.94-6.55-6.55c0-3.61,2.94-6.54,6.55-6.54c3.61,0,6.55,2.94,6.55,6.54
			C66.25,120.71,63.31,123.64,59.7,123.64z M59.7,113.96c-1.73,0-3.13,1.41-3.13,3.13c0,1.73,1.41,3.14,3.13,3.14
			c1.73,0,3.13-1.41,3.13-3.14C62.83,115.37,61.43,113.96,59.7,113.96z"/>
		<path class="st1" d="M109.37,123.64c-3.61,0-6.55-2.94-6.55-6.55c0-3.61,2.94-6.54,6.55-6.54c3.61,0,6.54,2.94,6.54,6.54
			C115.91,120.71,112.98,123.64,109.37,123.64z M109.37,113.96c-1.73,0-3.14,1.41-3.14,3.13c0,1.73,1.41,3.14,3.14,3.14
			c1.73,0,3.13-1.41,3.13-3.14C112.5,115.37,111.09,113.96,109.37,113.96z"/>
	</g>
</g>
</svg>
