<?xml version="1.0" encoding="utf-8"?>
<!-- Generator: Adobe Illustrator 25.2.1, SVG Export Plug-In . SVG Version: 6.00 Build 0)  -->
<svg version="1.1" id="Layer_1" xmlns="http://www.w3.org/2000/svg" xmlns:xlink="http://www.w3.org/1999/xlink" x="0px" y="0px"
	 viewBox="0 0 133.08 139.77" style="enable-background:new 0 0 133.08 139.77;" xml:space="preserve">
<style type="text/css">
	.st0{fill:#FFB020;}
	.st1{fill:#363B64;}
	.st2{fill:#2DB493;}
</style>
<circle class="st0" cx="91.09" cy="39.58" r="13.08"/>
<g>
	<g>
		<polygon class="st2" points="129.65,47.19 124.57,47.19 124.57,33.39 110.76,33.39 110.76,28.3 129.65,28.3 		"/>
		<polygon class="st2" points="6.31,88.37 2.71,84.78 26.8,60.69 37.95,71.83 60.24,49.54 71.38,60.69 93.67,38.39 104.82,49.54 
			125.31,29.05 128.91,32.64 104.82,56.73 93.67,45.59 71.38,67.88 60.24,56.73 37.95,79.02 26.8,67.88 		"/>
	</g>
</g>
<path class="st1" d="M103.54,116.47v-48.7h14.34v48.7H103.54z M114.26,112.85V71.38h-7.1v41.47H114.26z"/>
<path class="st1" d="M82.89,116.47V75.04h14.34v41.43H82.89z M93.61,112.85v-34.2h-7.1v34.2H93.61z"/>
<path class="st1" d="M62.24,116.47V84.03h14.34v32.44H62.24z M72.95,112.85v-25.2h-7.1v25.2H72.95z"/>
<path class="st1" d="M41.59,116.47V94.6h14.34v21.87H41.59z M52.3,112.85V98.22h-7.1v14.63H52.3z"/>
<path class="st1" d="M20.94,116.47v-16.25h14.34v16.25H20.94z M31.65,112.85v-9.02h-7.1v9.02H31.65z"/>
</svg>
