<?xml version="1.0" encoding="utf-8"?>
<!-- Generator: Adobe Illustrator 25.2.1, SVG Export Plug-In . SVG Version: 6.00 Build 0)  -->
<svg version="1.1" id="Layer_1" xmlns="http://www.w3.org/2000/svg" xmlns:xlink="http://www.w3.org/1999/xlink" x="0px" y="0px"
	 viewBox="0 0 133.08 139.77" style="enable-background:new 0 0 133.08 139.77;" xml:space="preserve">
<style type="text/css">
	.st0{fill:#FFB020;}
	.st1{fill:#363B64;}
	.st2{fill:#2DB493;}
</style>
<circle class="st0" cx="82.99" cy="116.05" r="13.08"/>
<rect x="69.16" y="54.48" class="st2" width="15.41" height="4.61"/>
<rect x="72.82" y="63.98" class="st2" width="15.41" height="4.61"/>
<rect x="30.61" y="92.48" class="st2" width="15.41" height="4.6"/>
<rect x="33.91" y="101.98" class="st2" width="15.41" height="4.61"/>
<rect x="36.47" y="73.48" class="st2" width="14.33" height="4.61"/>
<rect x="22.15" y="82.98" class="st2" width="29.73" height="4.61"/>
<rect x="94.25" y="54.48" class="st2" width="15.41" height="4.61"/>
<rect x="94.25" y="44.96" class="st2" width="15.41" height="4.61"/>
<g>
	<rect x="58.49" y="43.82" class="st2" width="29.73" height="4.61"/>
	<g>
		<path class="st1" d="M130.55,31.91H3.13V11.95h127.42V31.91z M7.74,27.3h118.21V16.56H7.74V27.3z"/>
		<g>
			<rect x="14.9" y="19.63" class="st1" width="4.61" height="4.61"/>
			<rect x="24.11" y="19.63" class="st1" width="4.61" height="4.61"/>
			<rect x="33.32" y="19.63" class="st1" width="4.61" height="4.61"/>
		</g>
		<polygon class="st1" points="87.06,118.55 3.13,118.55 3.13,27.31 130.55,27.31 130.55,108.06 125.95,108.06 125.95,31.91 
			7.74,31.91 7.74,113.95 87.06,113.95 		"/>
	</g>
	<g>
		<path class="st2" d="M62.1,102.35c-7.86,0-15.25-3.06-20.81-8.62c-11.47-11.47-11.47-30.14,0-41.61
			c5.56-5.56,12.94-8.61,20.8-8.61c7.86,0,15.25,3.06,20.81,8.62c11.47,11.47,11.47,30.14,0,41.61
			C77.35,99.29,69.96,102.35,62.1,102.35z M62.1,48.11c-6.63,0-12.86,2.58-17.55,7.27c-9.68,9.68-9.68,25.42,0,35.1
			c4.69,4.69,10.92,7.27,17.55,7.27c6.63,0,12.86-2.58,17.55-7.27c9.67-9.68,9.67-25.42,0-35.1C74.96,50.69,68.73,48.11,62.1,48.11z
			"/>
		
			<rect x="83.38" y="90.29" transform="matrix(0.7071 -0.7071 0.7071 0.7071 -43.1472 88.8516)" class="st2" width="4.6" height="12.45"/>
		<path class="st2" d="M109.26,127.82c-2.07,0-4.01-0.81-5.47-2.27l-20.8-20.8l10.93-10.93l20.81,20.81
			c1.46,1.46,2.26,3.4,2.26,5.46c0,2.07-0.81,4.01-2.27,5.47C113.27,127.01,111.32,127.82,109.26,127.82z M89.5,104.75l17.55,17.55
			c1.18,1.19,3.24,1.18,4.42,0c0.59-0.59,0.92-1.37,0.92-2.21c0-0.83-0.32-1.61-0.91-2.2l-17.55-17.55L89.5,104.75z"/>
	</g>
</g>
</svg>
