<?xml version="1.0" encoding="utf-8"?>
<!-- Generator: Adobe Illustrator 25.2.1, SVG Export Plug-In . SVG Version: 6.00 Build 0)  -->
<svg version="1.1" id="Layer_1" xmlns="http://www.w3.org/2000/svg" xmlns:xlink="http://www.w3.org/1999/xlink" x="0px" y="0px"
	 viewBox="0 0 133.08 139.77" style="enable-background:new 0 0 133.08 139.77;" xml:space="preserve">
<style type="text/css">
	.st0{fill:#FFB020;}
	.st1{fill:#2DB493;}
	.st2{fill:#363B64;}
</style>
<circle class="st0" cx="108.12" cy="25.57" r="11.72"/>
<path class="st1" d="M67.07,89.78c-18.65,0-33.82-15.17-33.82-33.81c0-18.64,15.17-33.81,33.82-33.81
	c18.65,0,33.81,15.17,33.81,33.81C100.89,74.61,85.72,89.78,67.07,89.78z M67.07,26.36c-16.32,0-29.6,13.28-29.6,29.6
	c0,16.32,13.28,29.6,29.6,29.6c16.32,0,29.6-13.28,29.6-29.6C96.68,39.64,83.4,26.36,67.07,26.36z"/>
<polygon class="st1" points="75.76,63.28 67.07,54.59 58.38,63.28 48.21,53.11 51.18,50.13 58.38,57.33 67.07,48.64 75.76,57.33 
	82.96,50.13 85.94,53.11 "/>
<path class="st2" d="M90.9,110.19H43.25V94.77c-13.43-8.26-21.72-23.02-21.72-38.81c0-25.11,20.43-45.54,45.54-45.54
	c25.11,0,45.54,20.43,45.54,45.54c0,15.79-8.29,30.54-21.72,38.81V110.19z M47.46,105.98h39.23V92.36l1.05-0.61
	c12.75-7.38,20.67-21.09,20.67-35.79c0-22.79-18.54-41.33-41.33-41.33S25.74,33.17,25.74,55.96c0,14.7,7.92,28.41,20.67,35.79
	l1.05,0.61V105.98z"/>
<rect x="43.25" y="114.67" class="st2" width="47.65" height="4.21"/>
<rect x="43.25" y="123.36" class="st2" width="47.65" height="4.21"/>
<rect x="57.58" y="132.04" class="st2" width="18.98" height="4.21"/>
<rect x="64.44" y="3.51" class="st2" width="4.21" height="7.1"/>
<rect x="49.62" y="5.86" transform="matrix(0.9511 -0.3088 0.3088 0.9511 -0.3784 16.4346)" class="st2" width="4.21" height="7.1"/>
<rect x="36.25" y="12.67" transform="matrix(0.809 -0.5878 0.5878 0.809 -2.2091 25.6458)" class="st2" width="4.21" height="7.1"/>
<rect x="25.64" y="23.28" transform="matrix(0.5878 -0.809 0.809 0.5878 -10.2683 33.5075)" class="st2" width="4.21" height="7.1"/>
<rect x="18.83" y="36.65" transform="matrix(0.3089 -0.9511 0.9511 0.3089 -23.7626 47.693)" class="st2" width="4.21" height="7.1"/>
<rect x="15.04" y="52.91" class="st2" width="7.1" height="4.21"/>
<rect x="17.39" y="67.73" transform="matrix(0.951 -0.3091 0.3091 0.951 -20.5603 9.8917)" class="st2" width="7.1" height="4.21"/>
<rect x="24.2" y="81.1" transform="matrix(0.8093 -0.5874 0.5874 0.8093 -43.5806 32.167)" class="st2" width="7.1" height="4.21"/>
<rect x="34.81" y="91.7" transform="matrix(0.588 -0.8089 0.8089 0.588 -60.076 69.6788)" class="st2" width="7.1" height="4.21"/>
<rect x="92.62" y="90.26" transform="matrix(0.8092 -0.5875 0.5875 0.8092 -37.0411 73.5559)" class="st2" width="4.21" height="7.1"/>
<rect x="103.23" y="79.65" transform="matrix(0.5878 -0.809 0.809 0.5878 -23.8885 119.5165)" class="st2" width="4.21" height="7.1"/>
<rect x="110.04" y="66.28" transform="matrix(0.3094 -0.9509 0.9509 0.3094 11.0458 154.8728)" class="st2" width="4.21" height="7.1"/>
<rect x="110.94" y="52.91" class="st2" width="7.1" height="4.21"/>
<rect x="108.6" y="38.09" transform="matrix(0.9512 -0.3086 0.3086 0.9512 -6.9311 36.57)" class="st2" width="7.1" height="4.21"/>
<rect x="101.78" y="24.72" transform="matrix(0.8091 -0.5877 0.5877 0.8091 4.3433 67.0287)" class="st2" width="7.1" height="4.21"/>
<rect x="91.17" y="14.11" transform="matrix(0.5878 -0.809 0.809 0.5878 25.9196 83.3154)" class="st2" width="7.1" height="4.21"/>
<rect x="77.81" y="7.31" transform="matrix(0.3095 -0.9509 0.9509 0.3095 47.2343 83.8658)" class="st2" width="7.1" height="4.21"/>
</svg>
