<?xml version="1.0" encoding="utf-8"?>
<!-- Generator: Adobe Illustrator 25.2.1, SVG Export Plug-In . SVG Version: 6.00 Build 0)  -->
<svg version="1.1" id="Layer_1" xmlns="http://www.w3.org/2000/svg" xmlns:xlink="http://www.w3.org/1999/xlink" x="0px" y="0px"
	 viewBox="0 0 133.08 139.77" style="enable-background:new 0 0 133.08 139.77;" xml:space="preserve">
<style type="text/css">
	.st0{fill:#FFB020;}
	.st1{fill:#2DB493;}
	.st2{fill:#363B64;}
</style>
<circle class="st0" cx="31.35" cy="20.73" r="12.09"/>
<g>
	<polygon class="st2" points="90.25,124.97 55.07,124.97 55.07,113.29 59.19,113.29 59.19,120.84 86.13,120.84 86.13,113.29 
		90.25,113.29 	"/>
	<rect x="48.27" y="120.84" class="st2" width="48.79" height="4.12"/>
	<path class="st2" d="M127.53,96.76H31.35V77.98c0-0.77-0.62-1.39-1.39-1.39H17.79V26.89c0-1.54,0.6-2.99,1.69-4.09
		c1.1-1.1,2.56-1.7,4.1-1.7H75.8v4.12H23.58c-0.45,0-0.87,0.17-1.18,0.49c-0.31,0.31-0.48,0.73-0.48,1.17v45.58h8.04
		c3.04,0,5.51,2.47,5.51,5.51v14.66h87.93V26.89c0-0.44-0.17-0.86-0.49-1.18c-0.31-0.31-0.73-0.48-1.17-0.48h-5.07V21.1h5.07
		c1.55,0,3.01,0.6,4.1,1.7c1.09,1.09,1.69,2.55,1.69,4.09V96.76z"/>
	<path class="st2" d="M121.74,109.18H31.35V92.64h96.18v10.76c0,1.55-0.6,3.01-1.7,4.1C124.75,108.58,123.29,109.18,121.74,109.18z
		 M35.47,105.06h86.26c0.45,0,0.86-0.17,1.17-0.48c0.32-0.32,0.5-0.74,0.5-1.19v-6.63H35.47V105.06z"/>
	<polygon class="st2" points="118.73,87.96 33.41,87.96 33.41,83.84 114.6,83.84 114.6,64.92 118.73,64.92 	"/>
	<polygon class="st2" points="30.72,74.53 26.6,74.53 26.6,29.9 75.8,29.9 75.8,34.02 30.72,34.02 	"/>
</g>
<g>
	<rect x="17.66" y="79.51" class="st1" width="4.4" height="4.12"/>
	<rect x="15.02" y="113.8" class="st1" width="9.68" height="4.12"/>
	<path class="st1" d="M29.96,124.97H9.75c-3.04,0-5.52-2.47-5.52-5.51V77.98c0-3.04,2.47-5.51,5.52-5.51h20.21
		c3.04,0,5.51,2.47,5.51,5.51v41.48C35.47,122.5,33,124.97,29.96,124.97z M9.75,76.59c-0.75,0-1.39,0.64-1.39,1.39v41.48
		c0,0.76,0.62,1.39,1.39,1.39h20.21c0.77,0,1.39-0.62,1.39-1.39V77.98c0-0.77-0.62-1.39-1.39-1.39H9.75z"/>
</g>
<g>
	<rect x="94.03" y="21.1" class="st1" width="4.4" height="4.12"/>
	<rect x="89.63" y="59.26" class="st1" width="13.2" height="4.13"/>
	<path class="st1" d="M111.46,72.18H81c-4.01,0-7.27-3.26-7.27-7.26V19.56c0-4.01,3.26-7.27,7.27-7.27h30.46
		c4.01,0,7.27,3.26,7.27,7.27v45.36C118.73,68.93,115.47,72.18,111.46,72.18z M81,16.42c-1.73,0-3.14,1.41-3.14,3.14v45.36
		c0,1.73,1.41,3.14,3.14,3.14h30.46c1.73,0,3.14-1.41,3.14-3.14V19.56c0-1.73-1.41-3.14-3.14-3.14H81z"/>
</g>
</svg>
