<?xml version="1.0" encoding="utf-8"?>
<!-- Generator: Adobe Illustrator 25.2.1, SVG Export Plug-In . SVG Version: 6.00 Build 0)  -->
<svg version="1.1" id="Layer_1" xmlns="http://www.w3.org/2000/svg" xmlns:xlink="http://www.w3.org/1999/xlink" x="0px" y="0px"
	 viewBox="0 0 133.08 139.77" style="enable-background:new 0 0 133.08 139.77;" xml:space="preserve">
<style type="text/css">
	.st0{fill:#FFB020;}
	.st1{fill:#2DB493;}
	.st2{fill:#363B64;}
</style>
<circle class="st0" cx="42.51" cy="121.27" r="12.53"/>
<g>
	<g>
		<path class="st2" d="M128.96,89.21H44.4V76.61h84.56V89.21z M48.42,85.19h76.51v-4.55H48.42V85.19z"/>
		<path class="st2" d="M123,125.3H50.35c-1.6,0-3.09-0.62-4.21-1.73c-1.11-1.11-1.74-2.65-1.74-4.22l0-45.79
			c0-1.59,0.62-3.08,1.74-4.21c1.13-1.13,2.62-1.74,4.21-1.75H123c1.59,0,3.08,0.62,4.21,1.74c1.13,1.14,1.75,2.63,1.75,4.22
			l-0.01,45.79c0.01,1.57-0.63,3.11-1.75,4.22C126.1,124.68,124.6,125.3,123,125.3z M123.01,71.62H50.35c-0.51,0-1,0.2-1.36,0.57
			c-0.36,0.36-0.56,0.85-0.56,1.37l0,45.79c0,0.51,0.21,1.01,0.57,1.38c0.35,0.35,0.84,0.55,1.36,0.55H123c0.37,0,0.9-0.1,1.35-0.55
			c0.37-0.37,0.57-0.86,0.57-1.36l0.01-45.8c0-0.52-0.2-1-0.57-1.37C124,71.82,123.51,71.62,123.01,71.62z"/>
		<g>
			<rect x="87.11" y="99.86" class="st2" width="33.09" height="4.03"/>
			<rect x="87.11" y="106.86" class="st2" width="18.56" height="4.03"/>
		</g>
		<path class="st2" d="M73.49,114.26c-2.13,0-4.14-0.76-5.73-2.09c-1.58,1.34-3.6,2.09-5.73,2.09c-4.9,0-8.88-3.99-8.88-8.89
			c0-4.9,3.98-8.89,8.88-8.89c2.13,0,4.15,0.76,5.73,2.09c1.58-1.34,3.6-2.09,5.73-2.09c4.9,0,8.9,3.99,8.9,8.89
			C82.39,110.28,78.4,114.26,73.49,114.26z M67.77,107.16L67.77,107.16c0.67,0,1.3,0.34,1.68,0.9c0.91,1.36,2.42,2.18,4.05,2.18
			c2.68,0,4.87-2.18,4.87-4.86c0-2.68-2.18-4.86-4.87-4.86c-1.63,0-3.14,0.81-4.05,2.18c-0.37,0.56-1,0.9-1.68,0.9
			s-1.31-0.34-1.68-0.9c-0.91-1.36-2.42-2.18-4.06-2.18c-2.68,0-4.86,2.18-4.86,4.86c0,2.68,2.18,4.86,4.86,4.86
			c1.63,0,3.15-0.81,4.06-2.18C66.46,107.49,67.09,107.16,67.77,107.16z"/>
	</g>
	<g>
		<path class="st1" d="M88.69,61.82H4.12V14.17h84.56V61.82z M8.15,57.8h76.51V18.2H8.15V57.8z"/>
		<path class="st1" d="M46.41,49.86c-6.54,0-11.86-5.32-11.86-11.86c0-6.54,5.32-11.86,11.86-11.86c6.54,0,11.86,5.32,11.86,11.86
			C58.26,44.54,52.94,49.86,46.41,49.86z M46.41,30.17c-4.32,0-7.83,3.51-7.83,7.83c0,4.32,3.51,7.83,7.83,7.83
			c4.32,0,7.83-3.51,7.83-7.83C54.24,33.68,50.72,30.17,46.41,30.17z"/>
		<path class="st1" d="M86.67,30.73c-8.02,0-14.54-6.52-14.54-14.54h4.03c0,5.8,4.72,10.51,10.52,10.51V30.73z"/>
		<path class="st1" d="M6.14,30.73V26.7c5.8,0,10.51-4.72,10.51-10.51h4.03C20.68,24.2,14.16,30.73,6.14,30.73z"/>
		<path class="st1" d="M76.16,59.81h-4.03c0-8.02,6.52-14.54,14.54-14.54v4.03C80.88,49.29,76.16,54.01,76.16,59.81z"/>
		<path class="st1" d="M20.68,59.81h-4.03c0-5.8-4.72-10.52-10.51-10.52v-4.03C14.16,45.27,20.68,51.79,20.68,59.81z"/>
		<g>
			<rect x="66.19" y="35.98" class="st1" width="9.39" height="4.03"/>
			<rect x="17.22" y="35.98" class="st1" width="9.4" height="4.03"/>
		</g>
	</g>
	<g>
		<rect x="116.92" y="35.98" class="st1" width="4.03" height="4.03"/>
		<path class="st1" d="M112.89,40.01h-4.03v-4.03h4.03V40.01z M104.83,40.01h-4.03v-4.03h4.03V40.01z"/>
		<path class="st2" d="M16.16,85.6h-4.03v-3.8h4.03V85.6z M16.16,78h-4.03v-3.8h4.03V78z"/>
		<rect x="12.13" y="89.4" class="st2" width="4.03" height="4.03"/>
		<path class="st2" d="M32.28,93.43h-4.03V89.4h4.03V93.43z M24.22,93.43h-4.03V89.4h4.03V93.43z"/>
		<path class="st1" d="M120.94,55.21h-4.03v-3.8h4.03V55.21z M120.94,47.61h-4.03v-3.8h4.03V47.61z"/>
	</g>
</g>
</svg>
