<?xml version="1.0" encoding="utf-8"?>
<!-- Generator: Adobe Illustrator 25.2.1, SVG Export Plug-In . SVG Version: 6.00 Build 0)  -->
<svg version="1.1" id="Layer_1" xmlns="http://www.w3.org/2000/svg" xmlns:xlink="http://www.w3.org/1999/xlink" x="0px" y="0px"
	 viewBox="0 0 133.08 139.77" style="enable-background:new 0 0 133.08 139.77;" xml:space="preserve">
<style type="text/css">
	.st0{fill:#FFB020;}
	.st1{fill:#2DB493;}
	.st2{fill:#363B64;}
</style>
<circle class="st0" cx="118.21" cy="17.02" r="12.53"/>
<g>
	<polygon class="st2" points="85.93,130.15 47.15,130.15 47.15,117.3 51.54,117.3 51.54,125.76 81.55,125.76 81.55,117.3 
		85.93,117.3 	"/>
	<rect x="39.53" y="125.76" class="st2" width="54.02" height="4.38"/>
	<path class="st2" d="M127.2,98.92H5.88V21.64c0-1.68,0.65-3.27,1.84-4.46c1.2-1.2,2.79-1.85,4.48-1.85h108.68
		c1.69,0,3.28,0.66,4.47,1.85c1.19,1.2,1.85,2.78,1.85,4.46V98.92z M10.27,94.53h112.55V21.64c0-0.51-0.2-1-0.57-1.37
		c-0.36-0.36-0.85-0.56-1.36-0.56H12.2c-0.52,0-1,0.2-1.37,0.57c-0.36,0.36-0.56,0.85-0.56,1.37V94.53z"/>
	<path class="st2" d="M120.88,112.67H12.2c-1.7,0-3.29-0.66-4.47-1.86c-1.19-1.18-1.84-2.77-1.84-4.46V94.53H127.2v11.82
		c0,1.69-0.66,3.28-1.86,4.47C124.17,112.01,122.58,112.67,120.88,112.67z M10.27,98.92v7.44c0,0.52,0.2,1,0.56,1.36
		c0.37,0.37,0.85,0.57,1.37,0.57h108.68c0.52,0,1-0.2,1.36-0.56c0.37-0.37,0.58-0.86,0.58-1.38v-7.44H10.27z"/>
</g>
<g>
	<path class="st1" d="M105.31,59.26c-3.13,0-5.93-1.45-7.75-3.72c-1.83,2.27-4.62,3.72-7.76,3.72c-3.13,0-5.93-1.45-7.76-3.72
		c-1.82,2.27-4.62,3.72-7.75,3.72c-3.13,0-5.93-1.45-7.76-3.72c-1.82,2.27-4.62,3.72-7.75,3.72c-3.13,0-5.93-1.45-7.75-3.72
		c-1.82,2.27-4.62,3.72-7.75,3.72c-3.13,0-5.93-1.45-7.76-3.72c-1.82,2.27-4.62,3.72-7.75,3.72c-5.49,0-9.95-4.46-9.95-9.95V27.5
		h97.44v21.81C115.26,54.79,110.8,59.26,105.31,59.26z M99.75,49.31c0,3.07,2.49,5.56,5.56,5.56c3.07,0,5.56-2.5,5.56-5.56V31.89
		H22.2v17.42c0,3.07,2.5,5.56,5.56,5.56c3.07,0,5.56-2.5,5.56-5.56h4.38c0,3.07,2.5,5.56,5.56,5.56c3.07,0,5.56-2.5,5.56-5.56h4.39
		c0,3.07,2.49,5.56,5.56,5.56c3.07,0,5.56-2.5,5.56-5.56h4.39c0,3.07,2.49,5.56,5.56,5.56c3.07,0,5.56-2.5,5.56-5.56h4.39
		c0,3.07,2.5,5.56,5.56,5.56c3.07,0,5.56-2.5,5.56-5.56H99.75z"/>
	<path class="st1" d="M39.01,86.74H18.06V65.79h20.95V86.74z M22.45,82.35h12.18V70.17H22.45V82.35z"/>
	<g>
		<rect x="50.3" y="82.35" class="st1" width="64.96" height="4.39"/>
		<rect x="50.3" y="65.79" class="st1" width="32.48" height="4.39"/>
		<rect x="50.3" y="74.07" class="st1" width="64.96" height="4.39"/>
	</g>
</g>
</svg>
