<?xml version="1.0" encoding="utf-8"?>
<!-- Generator: Adobe Illustrator 25.2.1, SVG Export Plug-In . SVG Version: 6.00 Build 0)  -->
<svg version="1.1" id="Layer_1" xmlns="http://www.w3.org/2000/svg" xmlns:xlink="http://www.w3.org/1999/xlink" x="0px" y="0px"
	 viewBox="0 0 133.08 139.77" style="enable-background:new 0 0 133.08 139.77;" xml:space="preserve">
<style type="text/css">
	.st0{fill:#FFB020;}
	.st1{fill:#2DB493;}
	.st2{fill:#363B64;}
</style>
<circle class="st0" cx="75.05" cy="53.05" r="12.53"/>
<g>
	<path class="st1" d="M66.52,75.26c-4.71,0-8.53-3.83-8.53-8.54c0-4.7,3.83-8.53,8.53-8.53c4.7,0,8.53,3.83,8.53,8.53
		C75.05,71.43,71.22,75.26,66.52,75.26z M66.52,62.23c-2.48,0-4.49,2.01-4.49,4.49c0,2.48,2.02,4.49,4.49,4.49
		c2.48,0,4.49-2.02,4.49-4.49C71.01,64.25,68.99,62.23,66.52,62.23z"/>
	<path class="st1" d="M74.67,86.56c-1.27-3.37-4.54-5.63-8.15-5.63c-3.61,0-6.88,2.26-8.15,5.63l-3.78-1.42
		c1.86-4.94,6.65-8.25,11.93-8.25c5.28,0,10.08,3.32,11.93,8.25L74.67,86.56z"/>
</g>
<path class="st2" d="M95.6,110.36H37.43V29.43H95.6V110.36z M41.48,106.32h50.08V33.47H41.48V106.32z"/>
<path class="st1" d="M66.52,90.78c-11.52,0-20.88-9.37-20.88-20.88c0-11.51,9.37-20.88,20.88-20.88c11.51,0,20.88,9.37,20.88,20.88
	C87.4,81.41,78.03,90.78,66.52,90.78z M66.52,53.05c-9.29,0-16.84,7.55-16.84,16.84c0,9.29,7.55,16.84,16.84,16.84
	s16.84-7.55,16.84-16.84C83.36,60.61,75.8,53.05,66.52,53.05z"/>
<g>
	<rect x="64.18" y="20.62" class="st2" width="4.67" height="4.04"/>
	<rect x="56.55" y="115.11" class="st2" width="19.93" height="4.04"/>
	<path class="st2" d="M93.71,130.29H39.33c-5.71,0-10.35-4.64-10.35-10.35v-7.02h4.04v7.02c0,3.48,2.83,6.3,6.31,6.3h54.38
		c3.48,0,6.31-2.83,6.31-6.3V19.84c0-3.48-2.83-6.31-6.31-6.31H39.33c-3.48,0-6.31,2.83-6.31,6.31v69.73h-4.04V19.84
		c0-5.71,4.64-10.36,10.35-10.36h54.38c5.71,0,10.35,4.65,10.35,10.36v100.1C104.05,125.65,99.41,130.29,93.71,130.29z"/>
</g>
<g>
	<path class="st1" d="M41.48,114.94H4.74v-27.4h36.74V114.94z M8.78,110.9h28.65V91.59H8.78V110.9z"/>
	<rect x="15.27" y="103.12" class="st1" width="7.84" height="4.04"/>
	<rect x="15.27" y="95.33" class="st1" width="15.69" height="4.04"/>
</g>
<g>
	<rect x="124.3" y="87.55" class="st2" width="4.04" height="4.04"/>
	<path class="st2" d="M120.26,91.59h-4.04v-4.04h4.04V91.59z M112.18,91.59h-4.04v-4.04h4.04V91.59z"/>
	<path class="st2" d="M120.26,33.47h-4.04v-4.04h4.04V33.47z M112.18,33.47h-4.04v-4.04h4.04V33.47z"/>
	<rect x="124.3" y="29.43" class="st2" width="4.04" height="4.04"/>
	<path class="st2" d="M128.34,83.39h-4.04v-4.16h4.04V83.39z M128.34,75.07h-4.04v-4.16h4.04V75.07z M128.34,66.75h-4.04v-4.16h4.04
		V66.75z M128.34,58.43h-4.04v-4.16h4.04V58.43z M128.34,50.11h-4.04v-4.16h4.04V50.11z M128.34,41.79h-4.04v-4.16h4.04V41.79z"/>
</g>
</svg>
