<?xml version="1.0" encoding="utf-8"?>
<!-- Generator: Adobe Illustrator 25.2.1, SVG Export Plug-In . SVG Version: 6.00 Build 0)  -->
<svg version="1.1" id="Layer_1" xmlns="http://www.w3.org/2000/svg" xmlns:xlink="http://www.w3.org/1999/xlink" x="0px" y="0px"
	 viewBox="0 0 133.08 139.77" style="enable-background:new 0 0 133.08 139.77;" xml:space="preserve">
<style type="text/css">
	.st0{fill:#FFB020;}
	.st1{fill:#2DB493;}
	.st2{fill:#363B64;}
</style>
<circle class="st0" cx="88.24" cy="19.71" r="12.53"/>
<g>
	<g>
		<polygon class="st2" points="55.62,58.85 14.08,58.85 14.08,42.34 48.92,42.34 48.92,46.22 17.97,46.22 17.97,54.96 55.62,54.96 
					"/>
		<polygon class="st2" points="119,58.85 77.46,58.85 77.46,54.96 115.11,54.96 115.11,46.22 84.16,46.22 84.16,42.34 119,42.34 		
			"/>
		<g>
			<rect x="24.45" y="48.65" class="st2" width="3.89" height="3.89"/>
			<rect x="32.22" y="48.65" class="st2" width="3.89" height="3.89"/>
			<rect x="39.99" y="48.65" class="st2" width="3.89" height="3.89"/>
		</g>
		<polygon class="st2" points="119,130.12 14.08,130.12 14.08,56.91 17.97,56.91 17.97,126.24 115.11,126.24 115.11,56.91 
			119,56.91 		"/>
		<polygon class="st2" points="78.68,89.61 54.4,89.61 54.4,65.32 61.12,65.32 61.12,69.21 58.28,69.21 58.28,85.72 74.8,85.72 
			74.8,69.21 71.96,69.21 71.96,65.32 78.68,65.32 		"/>
		<path class="st2" d="M48.73,89.61H24.45V65.32h24.29V89.61z M28.33,85.72h16.51V69.21H28.33V85.72z"/>
		<path class="st2" d="M108.64,89.61H84.35V65.32h24.29V89.61z M88.24,85.72h16.51V69.21H88.24V85.72z"/>
		<g>
			<rect x="24.45" y="113.61" class="st2" width="24.29" height="3.89"/>
			<rect x="24.45" y="105.19" class="st2" width="24.29" height="3.89"/>
			<rect x="24.45" y="96.77" class="st2" width="24.29" height="3.89"/>
		</g>
		<g>
			<rect x="84.35" y="113.61" class="st2" width="24.29" height="3.89"/>
			<rect x="84.35" y="105.19" class="st2" width="24.29" height="3.89"/>
			<rect x="84.35" y="96.77" class="st2" width="24.29" height="3.89"/>
		</g>
		<g>
			<rect x="54.4" y="113.61" class="st2" width="24.29" height="3.89"/>
			<rect x="54.4" y="105.19" class="st2" width="24.29" height="3.89"/>
			<rect x="54.4" y="96.77" class="st2" width="24.29" height="3.89"/>
		</g>
	</g>
	<g>
		<path class="st1" d="M66.54,81.61L46.72,44.27c-2.06-3.48-3.16-7.52-3.16-11.64c0-12.68,10.31-22.99,22.99-22.99
			c12.68,0,22.99,10.31,22.99,22.99c0,4.1-1.1,8.13-3.17,11.65L66.54,81.61z M66.54,13.53c-10.54,0-19.1,8.57-19.1,19.1
			c0,3.42,0.92,6.78,2.65,9.71l0.06,0.1l16.4,30.88l16.45-30.98c1.73-2.93,2.65-6.29,2.65-9.71C85.64,22.1,77.07,13.53,66.54,13.53z
			"/>
		<g>
			
				<rect x="52.85" y="30.69" transform="matrix(0.7071 -0.7071 0.7071 0.7071 -3.5879 56.6086)" class="st1" width="27.39" height="3.89"/>
			<g>
				<path class="st1" d="M72.57,44.26c-3.08,0-5.59-2.51-5.59-5.6c0-3.08,2.51-5.59,5.59-5.59c3.08,0,5.59,2.51,5.59,5.59
					C78.17,41.75,75.66,44.26,72.57,44.26z M72.57,36.96c-0.94,0-1.71,0.77-1.71,1.71c0,0.94,0.76,1.71,1.71,1.71
					c0.94,0,1.71-0.77,1.71-1.71C74.28,37.72,73.51,36.96,72.57,36.96z"/>
				<path class="st1" d="M60.51,32.2c-3.08,0-5.59-2.51-5.59-5.6s2.51-5.59,5.59-5.59c3.09,0,5.59,2.51,5.59,5.59
					S63.6,32.2,60.51,32.2z M60.51,24.9c-0.94,0-1.71,0.77-1.71,1.71s0.77,1.71,1.71,1.71c0.94,0,1.71-0.77,1.71-1.71
					S61.45,24.9,60.51,24.9z"/>
			</g>
		</g>
	</g>
</g>
</svg>
