<svg xmlns="http://www.w3.org/2000/svg" width="62" height="62" viewBox="0 0 62 62" fill="none"><g clip-path="url(#clip0_1214_20153)"><path d="M25.4098 50.8197C31.0968 50.8237 36.619 48.9097 41.0836 45.3871L44.7426 49.0461C44.7986 50.0295 45.2134 50.9582 45.9084 51.6562L54.0396 59.7873C55.0603 60.8442 56.5719 61.2681 57.9934 60.896C59.4148 60.5239 60.5249 59.4139 60.897 57.9924C61.269 56.571 60.8452 55.0594 59.7883 54.0386L51.6572 45.9075C50.9648 45.2376 50.0538 44.8402 49.0918 44.7884L45.387 41.0837C52.6806 31.7714 52.579 18.6568 45.142 9.45866C37.705 0.260559 24.9023 -2.58483 14.2693 2.59723C3.63634 7.77929 -2.01077 19.6163 0.651763 31.1413C3.31429 42.6663 13.5813 50.8268 25.4098 50.8197ZM58.3552 55.4809C59.1487 56.2747 59.1487 57.5614 58.3552 58.3552C57.551 59.1235 56.285 59.1235 55.4808 58.3552L47.3497 50.2241C46.8212 49.7137 46.6093 48.9579 46.7953 48.2472C46.9814 47.5365 47.5364 46.9814 48.2471 46.7954C48.9579 46.6094 49.7137 46.8213 50.224 47.3497L58.3552 55.4809ZM46.7358 45.3068C46.4351 45.472 46.1582 45.6772 45.9125 45.9166C45.6757 46.1608 45.4708 46.434 45.3027 46.7297L42.6377 44.0668C43.1323 43.6094 43.6087 43.1331 44.0667 42.6377L46.7358 45.3068ZM25.4098 2.03281C38.3206 2.03281 48.7869 12.4991 48.7869 25.4099C48.7869 38.3207 38.3206 48.7869 25.4098 48.7869C12.499 48.7869 2.03276 38.3207 2.03276 25.4099C2.04733 12.5051 12.5051 2.04738 25.4098 2.03281Z" fill="url(#paint0_linear_1214_20153)"></path><path d="M25.4097 46.7541C37.1978 46.7541 46.754 37.198 46.754 25.4099C46.754 13.6218 37.1978 4.06561 25.4097 4.06561C13.6216 4.06561 4.06543 13.6218 4.06543 25.4099C4.07887 37.1924 13.6272 46.7407 25.4097 46.7541ZM25.4097 6.0984C36.0751 6.0984 44.7212 14.7444 44.7212 25.4099C44.7212 36.0753 36.0751 44.7214 25.4097 44.7214C14.7443 44.7214 6.09822 36.0753 6.09822 25.4099C6.10998 14.7493 14.7491 6.11016 25.4097 6.0984Z" fill="url(#paint1_linear_1214_20153)"></path><path fill-rule="evenodd" clip-rule="evenodd" d="M15.2459 35.5738H36.5902C37.1515 35.5738 37.6066 35.1187 37.6066 34.5574C37.6066 33.996 37.1515 33.541 36.5902 33.541H15.2459V16.2623C15.2459 15.701 14.7909 15.2459 14.2295 15.2459C13.6682 15.2459 13.2131 15.701 13.2131 16.2623V33.541C13.2131 34.6637 14.1232 35.5738 15.2459 35.5738Z" fill="url(#paint2_linear_1214_20153)"></path><path fill-rule="evenodd" clip-rule="evenodd" d="M18.295 31.5082C18.8563 31.5082 19.3114 31.0532 19.3114 30.4918V26.4262C19.3114 25.8649 18.8563 25.4099 18.295 25.4099C17.7336 25.4099 17.2786 25.8649 17.2786 26.4262V30.4918C17.2786 31.0532 17.7336 31.5082 18.295 31.5082Z" fill="url(#paint3_linear_1214_20153)"></path><path fill-rule="evenodd" clip-rule="evenodd" d="M21.3442 24.3935V28.459C21.3442 29.0204 21.7993 29.4754 22.3606 29.4754C22.922 29.4754 23.377 29.0204 23.377 28.459V24.3935C23.377 23.8321 22.922 23.3771 22.3606 23.3771C21.7993 23.3771 21.3442 23.8321 21.3442 24.3935Z" fill="url(#paint4_linear_1214_20153)"></path><path fill-rule="evenodd" clip-rule="evenodd" d="M25.4099 26.4262V30.4918C25.4099 31.0532 25.865 31.5082 26.4263 31.5082C26.9876 31.5082 27.4427 31.0532 27.4427 30.4918V26.4262C27.4427 25.8649 26.9876 25.4099 26.4263 25.4099C25.865 25.4099 25.4099 25.8649 25.4099 26.4262Z" fill="url(#paint5_linear_1214_20153)"></path><path fill-rule="evenodd" clip-rule="evenodd" d="M29.4753 24.3935V28.459C29.4753 29.0204 29.9304 29.4754 30.4917 29.4754C31.0531 29.4754 31.5081 29.0204 31.5081 28.459V24.3935C31.5081 23.8321 31.0531 23.3771 30.4917 23.3771C29.9304 23.3771 29.4753 23.8321 29.4753 24.3935Z" fill="url(#paint6_linear_1214_20153)"></path><path fill-rule="evenodd" clip-rule="evenodd" d="M33.541 26.4262V30.4918C33.541 31.0532 33.9961 31.5082 34.5574 31.5082C35.1187 31.5082 35.5738 31.0532 35.5738 30.4918V26.4262C35.5738 25.8649 35.1187 25.4099 34.5574 25.4099C33.9961 25.4099 33.541 25.8649 33.541 26.4262Z" fill="url(#paint7_linear_1214_20153)"></path><path fill-rule="evenodd" clip-rule="evenodd" d="M18.295 23.3771C18.515 23.3775 18.7291 23.3061 18.9049 23.1738L22.3606 20.582L25.3142 22.7967C25.9291 23.2611 26.7545 23.3356 27.4426 22.9888L30.4917 21.4642L33.4474 22.942C34.2302 23.3334 35.1756 23.1799 35.7943 22.5609L37.3087 21.0465C37.6939 20.6477 37.6884 20.0137 37.2963 19.6217C36.9043 19.2296 36.2703 19.2241 35.8715 19.6093L34.3571 21.1237L31.4065 19.6459C30.8334 19.3613 30.1602 19.3613 29.5872 19.6459L26.538 21.1705L23.5803 18.9568C22.8564 18.4181 21.8648 18.4181 21.1409 18.9568L17.6852 21.5476C17.3352 21.81 17.1924 22.267 17.3308 22.6821C17.4691 23.0971 17.8575 23.3771 18.295 23.3771Z" fill="url(#paint8_linear_1214_20153)"></path></g><defs><linearGradient id="paint0_linear_1214_20153" x1="38.1158" y1="24.2594" x2="-3.89241" y2="24.9035" gradientUnits="userSpaceOnUse"><stop stop-color="#B675FF"></stop><stop offset="1" stop-color="#FF2377"></stop></linearGradient><linearGradient id="paint1_linear_1214_20153" x1="30.727" y1="21.0224" x2="1.3446" y2="21.4727" gradientUnits="userSpaceOnUse"><stop stop-color="#B675FF"></stop><stop offset="1" stop-color="#FF2377"></stop></linearGradient><linearGradient id="paint2_linear_1214_20153" x1="28.4483" y1="23.3206" x2="11.6601" y2="23.6293" gradientUnits="userSpaceOnUse"><stop stop-color="#B675FF"></stop><stop offset="1" stop-color="#FF2377"></stop></linearGradient><linearGradient id="paint3_linear_1214_20153" x1="18.5482" y1="27.8323" x2="17.1487" y2="27.8394" gradientUnits="userSpaceOnUse"><stop stop-color="#B675FF"></stop><stop offset="1" stop-color="#FF2377"></stop></linearGradient><linearGradient id="paint4_linear_1214_20153" x1="22.6138" y1="25.7995" x2="21.2144" y2="25.8066" gradientUnits="userSpaceOnUse"><stop stop-color="#B675FF"></stop><stop offset="1" stop-color="#FF2377"></stop></linearGradient><linearGradient id="paint5_linear_1214_20153" x1="26.6795" y1="27.8323" x2="25.2801" y2="27.8394" gradientUnits="userSpaceOnUse"><stop stop-color="#B675FF"></stop><stop offset="1" stop-color="#FF2377"></stop></linearGradient><linearGradient id="paint6_linear_1214_20153" x1="30.7449" y1="25.7995" x2="29.3455" y2="25.8066" gradientUnits="userSpaceOnUse"><stop stop-color="#B675FF"></stop><stop offset="1" stop-color="#FF2377"></stop></linearGradient><linearGradient id="paint7_linear_1214_20153" x1="34.8106" y1="27.8323" x2="33.4112" y2="27.8394" gradientUnits="userSpaceOnUse"><stop stop-color="#B675FF"></stop><stop offset="1" stop-color="#FF2377"></stop></linearGradient><linearGradient id="paint8_linear_1214_20153" x1="29.9668" y1="20.4691" x2="16.0385" y2="21.368" gradientUnits="userSpaceOnUse"><stop stop-color="#B675FF"></stop><stop offset="1" stop-color="#FF2377"></stop></linearGradient><clipPath id="clip0_1214_20153"><rect width="62" height="62" fill="white"></rect></clipPath></defs></svg>