<svg xmlns="http://www.w3.org/2000/svg" width="72" height="72" viewBox="0 0 72 72" fill="none"><g clip-path="url(#clip0_1214_20260)"><path d="M47.693 34.6236C45.0504 34.6236 42.4081 33.6213 40.3961 31.6162C38.4462 29.6705 37.3726 27.0838 37.3726 24.3317C37.3726 21.5798 38.4462 18.993 40.3956 17.0481C44.4196 13.0331 50.9669 13.0332 54.9909 17.0481C56.9401 18.9932 58.0138 21.5798 58.0138 24.3317C58.0138 27.0838 56.9403 29.6705 54.9909 31.6155C52.9787 33.621 50.3357 34.6236 47.693 34.6236ZM47.6933 16.8475C45.7698 16.8475 43.8464 17.5779 42.3822 19.039C40.9654 20.4526 40.1851 22.3323 40.1851 24.3319C40.1851 26.3314 40.9654 28.2111 42.3822 29.6247C45.3104 32.5432 50.0762 32.5432 53.0049 29.6241C54.4211 28.2111 55.2013 26.3314 55.2013 24.3319C55.2013 22.3323 54.421 20.4526 53.0043 19.039C51.54 17.5779 49.6166 16.8475 47.6933 16.8475Z" fill="url(#paint0_linear_1214_20260)"></path><path d="M71.8885 6.48023C71.6164 2.16276 69.9084 0.456694 65.584 0.185147C62.3526 -0.0122905 59.1596 0.0578814 56.0922 0.393835C50.9725 0.956756 45.9477 2.59026 41.157 5.24891C36.9311 7.59412 32.8641 10.7507 29.0599 14.6313C15.0137 11.9349 7.16571 19.5827 0.332041 27.6723C-0.0593184 28.1355 -0.109662 28.7977 0.207307 29.3146C0.524275 29.8317 1.13712 30.0872 1.72746 29.9489C5.90613 28.9684 12.0534 29.8154 15.7869 33.2018C14.0642 36.4937 12.7006 39.5846 11.6505 42.2427C11.5636 42.4626 11.5337 42.7009 11.5632 42.9356C11.6241 43.4174 11.6417 43.5545 13.717 45.7205C9.8726 46.8343 6.26881 49.8851 4.22426 53.9476C1.7366 58.8862 0.555213 65.0001 1.2146 69.5235C1.30446 70.1399 1.78906 70.6236 2.40542 70.7125C3.23679 70.8325 4.12118 70.8908 5.04242 70.8907C9.14557 70.8907 13.9714 69.7335 18.0107 67.7096C22.0817 65.6645 25.1389 62.0668 26.2554 58.2318C28.4251 60.3025 28.56 60.3209 29.0352 60.3849C29.2717 60.4167 29.5152 60.3873 29.7374 60.2999C32.4034 59.2516 35.5039 57.8898 38.8058 56.1691C42.2036 59.8933 43.051 66.0266 42.0655 70.1943C41.926 70.7845 42.1804 71.3976 42.6967 71.7155C42.924 71.8554 43.1794 71.9241 43.4336 71.9241C43.7575 71.9241 44.0795 71.8126 44.3392 71.5938C52.4468 64.7718 60.1113 56.938 57.4106 42.928C61.2992 39.1324 64.4622 35.0743 66.8125 30.8577C69.4775 26.0763 71.1149 21.0609 71.6794 15.9501C72.0189 12.8664 72.0892 9.68043 71.8885 6.48023ZM4.86213 26.7555C10.4499 20.6029 16.7385 15.8219 26.7527 17.1084C22.8333 21.5302 19.6737 26.2257 17.162 30.6736C13.7484 27.8665 9.04348 26.6734 4.86213 26.7555ZM16.7494 65.1957C12.7392 67.2051 7.72639 68.2952 3.88479 68.0406C3.62787 64.2121 4.72067 59.214 6.73653 55.2126C8.68896 51.3333 12.4482 48.4953 16.0436 48.1165C17.2042 49.299 22.6734 54.7561 23.8601 55.9158C23.4774 59.4967 20.6339 63.2444 16.7494 65.1957ZM29.4607 57.3825C28.822 56.8096 15.1472 43.1639 14.5686 42.5216C15.1705 41.0385 15.8255 39.5438 16.5308 38.0481L33.9456 55.4242C32.4462 56.1282 30.9475 56.7819 29.4607 57.3825ZM45.2614 67.0689C45.3453 62.898 44.1512 58.2042 41.3387 54.7973C45.7967 52.2904 50.5025 49.1371 54.9336 45.2256C56.2236 55.2147 51.43 61.4901 45.2614 67.0689ZM36.6167 54.1162L28.224 45.7423L36.4267 37.5579C36.9765 37.0094 36.9775 36.1189 36.4289 35.5692C35.8804 35.0194 34.9899 35.0184 34.4402 35.567L26.2331 43.7558L17.8417 35.3832C25.1334 21.1639 36.9883 7.47121 52.3262 3.89019C54.9585 10.9528 61.1074 17.0887 68.1804 19.7111C64.5897 35.014 50.8668 46.8414 36.6167 54.1162ZM68.8839 15.6419C68.8372 16.0651 68.7799 16.485 68.7177 16.9035C62.7965 14.5403 57.5099 9.26657 55.1359 3.35526C55.5548 3.29338 55.9752 3.23615 56.3989 3.1896C59.3075 2.87108 62.3399 2.80457 65.4099 2.99244C68.3154 3.17483 68.8988 3.75716 69.0815 6.65671C69.272 9.69562 69.2055 12.7189 68.8839 15.6419Z" fill="url(#paint1_linear_1214_20260)"></path></g><defs><linearGradient id="paint0_linear_1214_20260" x1="50.2643" y1="22.2144" x2="36.057" y2="22.4327" gradientUnits="userSpaceOnUse"><stop stop-color="#B675FF"></stop><stop offset="1" stop-color="#FF2377"></stop></linearGradient><linearGradient id="paint1_linear_1214_20260" x1="44.9685" y1="28.6156" x2="-4.589" y2="29.3767" gradientUnits="userSpaceOnUse"><stop stop-color="#B675FF"></stop><stop offset="1" stop-color="#FF2377"></stop></linearGradient><clipPath id="clip0_1214_20260"><rect width="72" height="72" fill="white"></rect></clipPath></defs></svg>