<svg xmlns="http://www.w3.org/2000/svg" width="46" height="45" viewBox="0 0 46 45" fill="none"><g clip-path="url(#clip0_1214_23607)"><path d="M12.7042 28.3213C13.1244 28.079 13.2683 27.541 13.0259 27.1207C12.7832 26.7009 12.2455 26.5567 11.8253 26.799C11.4051 27.0418 11.2609 27.5798 11.5036 27.9996C11.746 28.4199 12.284 28.5641 12.7042 28.3213Z" fill="white"></path><path d="M9.10262 34.3876L13.5287 42.0543C14.4839 43.7105 16.6324 44.3237 18.3315 43.3414C20.0127 42.3698 20.5905 40.2216 19.6179 38.539L16.9812 33.9715L19.2646 32.6531C19.6849 32.41 19.8291 31.8727 19.5863 31.4525L18.4434 29.4729C18.5797 29.4465 19.4758 29.2707 35.2779 26.1708C37.2314 26.0647 38.4018 23.9282 37.4151 22.2202L34.4941 17.161L36.3607 14.3337C36.5441 14.0556 36.555 13.6982 36.3885 13.4099L34.6307 10.3653C34.4642 10.0769 34.148 9.90796 33.8167 9.92753L30.4353 10.1304L27.1926 4.51367C26.723 3.7 25.8815 3.20733 24.9422 3.19566C24.9308 3.19531 24.9198 3.19531 24.9085 3.19531C24.0008 3.19531 23.1768 3.64713 22.6886 4.41102L11.2072 19.0373L3.74301 23.3466C0.807252 25.0409 -0.20967 28.8072 1.49115 31.7508C3.04503 34.4425 6.32102 35.5013 9.10262 34.3876ZM18.096 39.4183C18.5814 40.258 18.2941 41.3326 17.4519 41.8191C16.607 42.3077 15.531 42.0076 15.051 41.1757L10.6565 33.5632L13.7011 31.8054C18.7871 40.6158 18.0142 39.2772 18.096 39.4183ZM16.1023 32.4488L15.2234 30.9265L16.7457 30.0476L17.6246 31.5699L16.1023 32.4488ZM33.38 11.7145L34.5947 13.8184L33.5115 15.4588L31.4179 11.8323L33.38 11.7145ZM24.1587 5.37473C24.3946 4.98883 24.7688 4.94901 24.9205 4.95312C25.0706 4.95484 25.4444 5.00153 25.67 5.39223L35.8928 23.0991C36.2258 23.6755 35.821 24.4003 35.1533 24.4168C35.0334 24.4195 34.9782 24.4412 34.6712 24.4985L23.8576 5.76852C24.0845 5.47669 24.1137 5.44854 24.1587 5.37473ZM22.6879 7.25854L32.8478 24.8562L17.5144 27.8637L12.852 19.7884L22.6879 7.25854ZM3.01344 30.8719C2.62755 30.2042 2.42362 29.4461 2.42362 28.6791C2.42362 27.1115 3.26613 25.6517 4.62191 24.8689L11.4722 20.9139L15.8668 28.5253L9.01644 32.4807C6.91771 33.692 4.22503 32.9703 3.01344 30.8719Z" fill="white"></path><path d="M9.98163 28.8785C9.7389 28.4583 9.20126 28.3141 8.78103 28.5568L7.25874 29.4358C6.8392 29.6781 6.30053 29.5336 6.05814 29.1141C5.81541 28.6938 5.27777 28.5496 4.85754 28.7924C4.43731 29.0351 4.29312 29.5727 4.53585 29.993C5.25923 31.2461 6.87285 31.6879 8.13765 30.958L9.65994 30.0791C10.0802 29.8364 10.2244 29.2991 9.98163 28.8785Z" fill="white"></path><path d="M44.3599 5.0753L39.4624 7.8006C39.0384 8.03681 38.8857 8.57205 39.1219 8.99605C39.3574 9.41971 39.8923 9.57318 40.3173 9.33663L45.2145 6.61133C45.6388 6.37512 45.7913 5.83988 45.555 5.41588C45.3192 4.99153 44.7839 4.8391 44.3599 5.0753Z" fill="white"></path><path d="M43.8464 14.1782L40.4506 13.2683C39.9816 13.1427 39.4996 13.4208 39.3739 13.8898C39.2483 14.3587 39.5267 14.8404 39.9957 14.9661L43.3918 15.8759C43.8635 16.0026 44.3432 15.72 44.4681 15.2545C44.5938 14.7855 44.3154 14.3035 43.8464 14.1782Z" fill="white"></path><path d="M35.3131 1.88207L34.4023 5.27822C34.2766 5.7472 34.5547 6.22888 35.0237 6.35488C35.4923 6.48019 35.9743 6.20279 36.1003 5.73346L37.0108 2.33732C37.1365 1.86834 36.8584 1.38631 36.3894 1.26066C35.9208 1.135 35.4387 1.41309 35.3131 1.88207Z" fill="white"></path></g><defs><clipPath id="clip0_1214_23607"><rect width="45" height="45" fill="white" transform="translate(0.666504)"></rect></clipPath></defs></svg>