<?xml version="1.0" encoding="utf-8"?>
<!-- Generator: Adobe Illustrator 25.2.1, SVG Export Plug-In . SVG Version: 6.00 Build 0)  -->
<svg version="1.1" id="Layer_1" xmlns="http://www.w3.org/2000/svg" xmlns:xlink="http://www.w3.org/1999/xlink" x="0px" y="0px"
	 viewBox="0 0 133.08 139.77" style="enable-background:new 0 0 133.08 139.77;" xml:space="preserve">
<style type="text/css">
	.st0{fill:#FFB020;}
	.st1{fill:#363B64;}
	.st2{fill:#2CB694;}
	.st3{fill:#2DB493;}
</style>
<circle class="st0" cx="103.2" cy="16.29" r="11.72"/>
<g>
	<g>
		<path class="st1" d="M106.87,127.66H20.95V27.5h4.18v95.98h77.57V27.5c0-6.18-5.03-11.21-11.21-11.21v-4.18
			c8.48,0,15.38,6.9,15.38,15.38V127.66z"/>
		<path class="st1" d="M80.27,29.59l-72.62,0l0-2.09c0-8.48,6.9-15.38,15.38-15.38h68.44v4.18c-6.18,0-11.21,5.03-11.21,11.21V29.59
			z M12.03,25.41l64.21,0c0.49-3.58,2.21-6.77,4.72-9.12H23.04C17.57,16.29,13.01,20.22,12.03,25.41z"/>
	</g>
	<path class="st2" d="M55.68,78.44H35.17V41.6h36.85v20.51h-2.09c-7.86,0-14.25,6.39-14.25,14.25V78.44z M39.34,74.27h12.27
		c0.96-8.5,7.72-15.26,16.22-16.22V45.78H39.34V74.27z"/>
	<path class="st2" d="M79.13,93.17c-10.16,0-18.42-8.26-18.42-18.42v-2.09h16.34V56.33h2.09c10.16,0,18.42,8.27,18.42,18.42
		C97.55,84.91,89.29,93.17,79.13,93.17z M65.04,76.84c1.01,6.87,6.95,12.16,14.09,12.16c7.85,0,14.24-6.39,14.24-14.24
		c0-7.15-5.29-13.08-12.16-14.09v16.18H65.04z"/>
	<g>
		<path class="st2" d="M51.29,113.62H37.32V99.64h13.98V113.62z M41.49,109.44h5.62v-5.62h-5.62V109.44z"/>
		<path class="st2" d="M70.89,113.62H56.92V99.64h13.98V113.62z M61.1,109.44h5.62v-5.62H61.1V109.44z"/>
		<path class="st2" d="M90.5,113.62H76.52V99.64H90.5V113.62z M80.7,109.44h5.62v-5.62H80.7V109.44z"/>
	</g>
	<g>
		<path class="st1" d="M118.7,127.66c-1.8,0-3.49-0.7-4.76-1.97c-1.27-1.27-1.97-2.96-1.97-4.76v-7.71h13.46v7.71
			c0,1.8-0.7,3.49-1.97,4.76C122.19,126.96,120.5,127.66,118.7,127.66z M116.15,117.39v3.53c0,0.68,0.27,1.32,0.75,1.81
			c0.96,0.97,2.65,0.96,3.61,0c0.48-0.48,0.75-1.12,0.75-1.81v-3.53H116.15z"/>
		<polygon class="st1" points="121.44,38.62 118.7,32.57 115.96,38.62 112.16,36.9 118.7,22.43 125.24,36.9 		"/>
		<path class="st1" d="M123.34,117.39h-9.28c-1.15,0-2.09-0.94-2.09-2.09V37.76c0-1.15,0.93-2.09,2.09-2.09h9.28
			c1.15,0,2.09,0.94,2.09,2.09v77.54C125.43,116.46,124.49,117.39,123.34,117.39z M116.15,113.22h5.1V39.85h-5.1V113.22z"/>
	</g>
</g>
</svg>
