<?xml version="1.0" encoding="utf-8"?>
<!-- Generator: Adobe Illustrator 25.2.1, SVG Export Plug-In . SVG Version: 6.00 Build 0)  -->
<svg version="1.1" id="Layer_1" xmlns="http://www.w3.org/2000/svg" xmlns:xlink="http://www.w3.org/1999/xlink" x="0px" y="0px"
	 viewBox="0 0 133.08 139.77" style="enable-background:new 0 0 133.08 139.77;" xml:space="preserve">
<style type="text/css">
	.st0{fill:#FFB020;}
	.st1{fill:#363B64;}
	.st2{fill:#2CB694;}
	.st3{fill:#2DB493;}
</style>
<g>
	<circle class="st0" cx="30.89" cy="120.62" r="12.36"/>
	<g>
		<g>
			<path class="st1" d="M114.55,124.72H26.79V6.79h67.95l19.81,19.81V124.72z M30.89,120.62h79.56V28.3L93.04,10.89H30.89V120.62z"
				/>
			<polygon class="st1" points="112.5,29.49 91.84,29.49 91.84,8.84 95.94,8.84 95.94,25.39 112.5,25.39 			"/>
		</g>
		<path class="st2" d="M102,70.65H39.34V50.94H102V70.65z M43.44,66.55H97.9V55.03H43.44V66.55z"/>
		<path class="st2" d="M59.05,106.12H39.34V86.4h19.71V106.12z M43.44,102.02h11.52V90.5H43.44V102.02z"/>
		<path class="st2" d="M80.52,106.12H60.81V86.4h19.71V106.12z M64.91,102.02h11.51V90.5H64.91V102.02z"/>
		<path class="st2" d="M59.05,45.11H39.34V25.39h19.71V45.11z M43.44,41.01h11.51V29.49H43.44V41.01z"/>
		<path class="st2" d="M102,106.12H82.29V86.4H102V106.12z M86.38,102.02H97.9V90.5H86.38V102.02z"/>
		<rect x="47.15" y="43.06" class="st2" width="4.1" height="9.93"/>
		<rect x="68.62" y="68.6" class="st2" width="4.1" height="19.85"/>
		<polygon class="st2" points="94.18,88.45 90.09,88.45 90.09,80.58 51.25,80.58 51.25,88.45 47.15,88.45 47.15,76.48 94.18,76.48 
					"/>
	</g>
</g>
</svg>
