<?xml version="1.0" encoding="utf-8"?>
<!-- Generator: Adobe Illustrator 25.2.1, SVG Export Plug-In . SVG Version: 6.00 Build 0)  -->
<svg version="1.1" id="Layer_1" xmlns="http://www.w3.org/2000/svg" xmlns:xlink="http://www.w3.org/1999/xlink" x="0px" y="0px"
	 viewBox="0 0 133.08 139.77" style="enable-background:new 0 0 133.08 139.77;" xml:space="preserve">
<style type="text/css">
	.st0{fill:#FFB020;}
	.st1{fill:#363B64;}
	.st2{fill:#2CB694;}
	.st3{fill:#2DB493;}
</style>
<g>
	<circle class="st0" cx="100.82" cy="25.87" r="13.16"/>
	<g>
		<path class="st1" d="M126.93,127.06H6.15v-86.5h120.78V127.06z M10.52,122.7h112.05V44.92H10.52V122.7z"/>
		<g>
			<rect x="17.55" y="76.77" class="st3" width="4.37" height="4.37"/>
			<path class="st3" d="M21.91,72.73h-4.37v-4.04h4.37V72.73z M21.91,64.65h-4.37v-4.04h4.37V64.65z"/>
			<rect x="17.55" y="52.2" class="st3" width="4.37" height="4.37"/>
			<path class="st3" d="M106.91,56.57h-4.25V52.2h4.25V56.57z M98.41,56.57h-4.25V52.2h4.25V56.57z M89.91,56.57h-4.25V52.2h4.25
				V56.57z M81.41,56.57h-4.25V52.2h4.25V56.57z M72.91,56.57h-4.25V52.2h4.25V56.57z M64.42,56.57h-4.25V52.2h4.25V56.57z
				 M55.92,56.57h-4.25V52.2h4.25V56.57z M47.42,56.57h-4.25V52.2h4.25V56.57z M38.92,56.57h-4.25V52.2h4.25V56.57z M30.42,56.57
				h-4.25V52.2h4.25V56.57z"/>
			
				<rect x="111.16" y="52.2" transform="matrix(1.259117e-03 -1 1 1.259117e-03 58.82 167.6623)" class="st3" width="4.37" height="4.37"/>
			<path class="st3" d="M115.53,72.73h-4.37v-4.04h4.37V72.73z M115.53,64.65h-4.37v-4.04h4.37V64.65z"/>
			<rect x="111.16" y="76.77" class="st3" width="4.37" height="4.37"/>
			<path class="st3" d="M106.91,81.14h-4.25v-4.37h4.25V81.14z M98.41,81.14h-4.25v-4.37h4.25V81.14z M89.91,81.14h-4.25v-4.37h4.25
				V81.14z M81.41,81.14h-4.25v-4.37h4.25V81.14z M72.91,81.14h-4.25v-4.37h4.25V81.14z M64.42,81.14h-4.25v-4.37h4.25V81.14z
				 M55.92,81.14h-4.25v-4.37h4.25V81.14z M47.42,81.14h-4.25v-4.37h4.25V81.14z M38.92,81.14h-4.25v-4.37h4.25V81.14z M30.42,81.14
				h-4.25v-4.37h4.25V81.14z"/>
		</g>
		<path class="st1" d="M126.93,44.92H6.15V26.01h120.78V44.92z M10.52,40.56h112.05V30.37H10.52V40.56z"/>
		<rect x="17.55" y="33.28" class="st1" width="4.37" height="4.37"/>
		<rect x="26.28" y="33.28" class="st1" width="4.37" height="4.37"/>
		<rect x="35.01" y="33.28" class="st1" width="4.37" height="4.37"/>
		<path class="st3" d="M17.55,86.23v29.43h29.43V86.23H17.55z M42.61,111.3h-20.7V90.6h20.7V111.3z"/>
		<path class="st3" d="M51.83,86.23v29.43h29.43V86.23H51.83z M76.89,111.3h-20.7V90.6h20.7V111.3z"/>
		<path class="st3" d="M86.11,86.23v29.43h29.43V86.23H86.11z M111.17,111.3H90.47V90.6h20.69V111.3z"/>
	</g>
</g>
</svg>
