<?xml version="1.0" encoding="utf-8"?>
<!-- Generator: Adobe Illustrator 25.2.1, SVG Export Plug-In . SVG Version: 6.00 Build 0)  -->
<svg version="1.1" id="Layer_1" xmlns="http://www.w3.org/2000/svg" xmlns:xlink="http://www.w3.org/1999/xlink" x="0px" y="0px"
	 viewBox="0 0 133.08 139.77" style="enable-background:new 0 0 133.08 139.77;" xml:space="preserve">
<style type="text/css">
	.st0{fill:#FFB020;}
	.st1{fill:#363B64;}
	.st2{fill:#2CB694;}
	.st3{fill:#2DB493;}
</style>
<circle class="st0" cx="103.43" cy="26.53" r="12.86"/>
<g>
	<g>
		<path class="st1" d="M61.62,123.92c-14.06-1.21-27.1-7.61-36.71-18.02C15.24,95.42,9.92,81.79,9.92,67.52
			c0-31.23,25.4-56.63,56.62-56.63s56.62,25.4,56.62,56.63h-4.26c0-28.88-23.49-52.37-52.36-52.37c-28.87,0-52.36,23.49-52.36,52.37
			c0,26.94,21,49.85,47.8,52.16L61.62,123.92z"/>
		<path class="st1" d="M71.46,123.92l-0.36-4.25c7.6-0.65,15.08-2.99,21.64-6.79l2.14,3.69C87.78,120.68,79.68,123.22,71.46,123.92z
			"/>
		<path class="st1" d="M66.54,96.91c-16.2,0-29.37-13.18-29.37-29.38c0-16.2,13.18-29.39,29.37-29.39
			c16.21,0,29.39,13.18,29.39,29.39C95.94,83.73,82.75,96.91,66.54,96.91z M66.54,42.41c-13.85,0-25.11,11.27-25.11,25.12
			c0,13.85,11.26,25.12,25.11,25.12c13.86,0,25.13-11.27,25.13-25.12C91.67,53.68,80.4,42.41,66.54,42.41z"/>
		<path class="st1" d="M107.42,96.91c-4.2,0-8.15-1.64-11.12-4.61c-2.98-2.93-4.63-6.89-4.63-11.14V67.53h4.26v13.63
			c0,3.1,1.2,5.98,3.37,8.11c2.18,2.18,5.06,3.37,8.12,3.37c3.07,0,5.96-1.2,8.15-3.37c2.14-2.15,3.32-5.04,3.32-8.12V67.53h4.26
			v13.63c0,4.22-1.62,8.17-4.57,11.14C115.59,95.28,111.63,96.91,107.42,96.91z"/>
	</g>
	<path class="st3" d="M66.57,85.3h-0.02c-1.55,0-3.09-0.2-4.57-0.59l1.1-4.12c1.13,0.3,2.3,0.45,3.48,0.45L66.57,85.3z M71.16,84.69
		l-1.11-4.12c1.14-0.31,2.23-0.76,3.25-1.35l2.14,3.69C74.1,83.69,72.66,84.29,71.16,84.69z M57.68,82.93
		c-1.34-0.77-2.58-1.72-3.68-2.82l3.01-3.02c0.84,0.83,1.78,1.56,2.8,2.14L57.68,82.93z M79.12,80.09l-3.02-3.01
		c0.84-0.84,1.56-1.78,2.15-2.8l3.69,2.14C81.16,77.75,80.21,78.99,79.12,80.09z M51.18,76.44c-0.78-1.34-1.38-2.78-1.78-4.28
		l4.12-1.11c0.31,1.14,0.76,2.23,1.35,3.25L51.18,76.44z M83.72,72.13l-4.12-1.1c0.3-1.13,0.46-2.31,0.46-3.49l4.26-0.06v0.06
		C84.32,69.09,84.12,70.63,83.72,72.13z M48.78,67.56v-0.03c0-1.54,0.2-3.08,0.59-4.56l4.12,1.09c-0.3,1.13-0.45,2.29-0.45,3.47
		L48.78,67.56z M79.58,63.99c-0.31-1.13-0.77-2.23-1.36-3.24l3.68-2.15c0.78,1.34,1.39,2.78,1.8,4.28L79.58,63.99z M54.84,60.81
		l-3.7-2.13c0.77-1.34,1.72-2.58,2.81-3.68l3.02,3.01C56.15,58.85,55.43,59.79,54.84,60.81z M76.06,57.95
		c-0.84-0.83-1.78-1.55-2.8-2.14l2.12-3.7c1.34,0.77,2.58,1.72,3.68,2.81L76.06,57.95z M59.77,55.85l-2.15-3.68
		c1.34-0.78,2.78-1.38,4.28-1.79l1.12,4.12C61.88,54.8,60.79,55.26,59.77,55.85z M70,54.47c-1.12-0.3-2.29-0.45-3.46-0.45
		l-0.04-4.26l0.11,0c0,0,0.01,0,0.01,0c1.47,0,2.99,0.2,4.47,0.59L70,54.47z"/>
	<g>
		<path class="st1" d="M73.41,128.88H59.67v-13.74h13.74V128.88z M63.94,124.62h5.21v-5.21h-5.21V124.62z"/>
		<path class="st1" d="M123.16,128.88h-13.74v-13.74h13.74V128.88z M113.69,124.62h5.21v-5.21h-5.21V124.62z"/>
		<path class="st1" d="M23.66,128.88H9.92v-13.74h13.74V128.88z M14.18,124.62h5.21v-5.21h-5.21V124.62z"/>
		<rect x="71.28" y="119.88" class="st1" width="40.28" height="4.26"/>
		<rect x="21.53" y="119.88" class="st1" width="40.28" height="4.26"/>
	</g>
</g>
</svg>
