<?xml version="1.0" encoding="utf-8"?>
<!-- Generator: Adobe Illustrator 25.2.1, SVG Export Plug-In . SVG Version: 6.00 Build 0)  -->
<svg version="1.1" id="Layer_1" xmlns="http://www.w3.org/2000/svg" xmlns:xlink="http://www.w3.org/1999/xlink" x="0px" y="0px"
	 viewBox="0 0 133.08 139.77" style="enable-background:new 0 0 133.08 139.77;" xml:space="preserve">
<style type="text/css">
	.st0{fill:#FFB020;}
	.st1{fill:#363B64;}
	.st2{fill:#2CB694;}
	.st3{fill:#2DB493;}
</style>
<circle class="st0" cx="98.83" cy="14.91" r="12.54"/>
<g>
	<g>
		<polygon class="st1" points="126.4,120.18 71.63,120.18 71.63,116.02 122.24,116.02 122.24,33.51 10.84,33.51 10.84,116.02 
			61.46,116.02 61.46,120.18 6.68,120.18 6.68,29.35 126.4,29.35 		"/>
		<path class="st1" d="M126.4,33.51H6.68v-18.6H126.4V33.51z M10.84,29.35h111.4V19.07H10.84V29.35z"/>
		<g>
			<rect x="34.26" y="22.13" class="st1" width="4.16" height="4.16"/>
			<rect x="25.94" y="22.13" class="st1" width="4.16" height="4.16"/>
			<rect x="17.62" y="22.13" class="st1" width="4.16" height="4.16"/>
		</g>
	</g>
	<g>
		<path class="st3" d="M66.54,104.58c-16.44,0-29.81-13.37-29.81-29.81S50.1,44.95,66.54,44.95s29.81,13.38,29.81,29.81
			S82.98,104.58,66.54,104.58z M66.54,49.11c-14.15,0-25.65,11.51-25.65,25.65c0,14.15,11.51,25.65,25.65,25.65
			c14.15,0,25.65-11.51,25.65-25.65C92.2,60.62,80.69,49.11,66.54,49.11z"/>
		<polygon class="st3" points="78.79,112.47 54.29,112.47 54.29,100.57 58.45,100.57 58.45,108.31 74.63,108.31 74.63,100.57 
			78.79,100.57 		"/>
		<g>
			<rect x="69.55" y="110.39" class="st3" width="4.16" height="23.98"/>
			<rect x="59.38" y="110.39" class="st3" width="4.16" height="23.98"/>
		</g>
	</g>
	<g>
		<polygon class="st1" points="57.33,84.22 47.88,74.77 57.33,65.32 60.28,68.26 53.77,74.77 60.28,81.28 		"/>
		<polygon class="st1" points="75.75,84.22 72.81,81.28 79.31,74.77 72.81,68.26 75.75,65.32 85.2,74.77 		"/>
		
			<rect x="52.77" y="72.69" transform="matrix(0.1733 -0.9849 0.9849 0.1733 -18.6303 127.3407)" class="st1" width="27.55" height="4.16"/>
	</g>
	<g>
		<rect x="21.7" y="64.37" class="st1" width="4.16" height="4.16"/>
		<rect x="21.7" y="72.69" class="st1" width="4.16" height="4.16"/>
		<rect x="21.7" y="81.01" class="st1" width="4.16" height="4.16"/>
	</g>
	<g>
		<rect x="107.22" y="64.37" class="st1" width="4.16" height="4.16"/>
		<rect x="107.22" y="72.69" class="st1" width="4.16" height="4.16"/>
		<rect x="107.22" y="81.01" class="st1" width="4.16" height="4.16"/>
	</g>
</g>
</svg>
