<?xml version="1.0" encoding="utf-8"?>
<!-- Generator: Adobe Illustrator 25.2.1, SVG Export Plug-In . SVG Version: 6.00 Build 0)  -->
<svg version="1.1" id="Layer_1" xmlns="http://www.w3.org/2000/svg" xmlns:xlink="http://www.w3.org/1999/xlink" x="0px" y="0px"
	 viewBox="0 0 133.08 139.77" style="enable-background:new 0 0 133.08 139.77;" xml:space="preserve">
<style type="text/css">
	.st0{fill:#FFB020;}
	.st1{fill:#363B64;}
	.st2{fill:#2CB694;}
	.st3{fill:#2DB493;}
</style>
<circle class="st0" cx="111.19" cy="82.93" r="11.72"/>
<g>
	<path class="st3" d="M68.17,62.14l-1.59-2.93c3.06-1.66,4.97-4.85,4.97-8.32c0-5.21-4.24-9.45-9.45-9.45
		c-5.21,0-9.45,4.24-9.45,9.45c0,3.47,1.9,6.66,4.97,8.32l-1.59,2.93c-4.14-2.24-6.71-6.56-6.71-11.26
		c0-7.05,5.73-12.78,12.78-12.78c7.05,0,12.78,5.73,12.78,12.78C74.88,55.59,72.31,59.9,68.17,62.14z"/>
	<g>
		<path class="st1" d="M99.03,117.4H56.82c-0.92,0-1.67-0.75-1.67-1.67c0-7.92-6.44-14.36-14.36-14.36c-3.83,0-6.94-3.12-6.94-6.94
			s3.11-6.94,6.94-6.94c5.12,0,10.03,1.35,14.36,3.93V50.89c0-1.86,0.72-3.61,2.04-4.91c1.31-1.31,3.05-2.03,4.9-2.03
			c1.86,0,3.6,0.72,4.91,2.03c1.31,1.31,2.03,3.05,2.03,4.91v18.75c1.08-0.66,2.32-1.01,3.61-1.01c1.85,0,3.59,0.72,4.91,2.04
			c0.13,0.13,0.25,0.26,0.37,0.4c0.12-0.14,0.24-0.27,0.37-0.4c1.31-1.31,3.05-2.04,4.9-2.04c1.86,0,3.6,0.72,4.91,2.04
			c0.13,0.13,0.25,0.26,0.37,0.4c0.12-0.14,0.25-0.27,0.38-0.41c1.3-1.31,3.05-2.03,4.9-2.03c1.84,0,3.59,0.72,4.9,2.04
			c1.31,1.32,2.04,3.06,2.04,4.91v40.16C100.7,116.65,99.96,117.4,99.03,117.4z M58.41,114.07h38.95V75.58
			c0-0.96-0.38-1.87-1.06-2.56c-0.68-0.68-1.59-1.06-2.54-1.06c-0.96,0-1.87,0.38-2.55,1.06c-0.7,0.69-1.07,1.6-1.07,2.56
			c0,0,0,0,0,0c0,0.92-0.75,1.67-1.67,1.67c-0.92,0-1.67-0.75-1.67-1.66c0,0,0,0,0,0c0-0.97-0.38-1.88-1.06-2.56
			c-0.68-0.68-1.58-1.06-2.55-1.06c-0.96,0-1.86,0.38-2.54,1.06c-0.69,0.69-1.07,1.6-1.07,2.56c0,0.92-0.75,1.67-1.67,1.67
			c-0.92,0-1.67-0.75-1.67-1.67c0-0.97-0.37-1.88-1.05-2.56c-0.68-0.68-1.59-1.06-2.55-1.06c-0.96,0-1.87,0.38-2.56,1.06
			c-0.68,0.68-1.05,1.59-1.05,2.55c0,0.92-0.75,1.67-1.67,1.67c-0.92,0-1.67-0.75-1.67-1.67V50.89c0-0.97-0.37-1.87-1.06-2.55
			c-0.68-0.68-1.59-1.06-2.55-1.06c-0.96,0-1.87,0.37-2.55,1.06c-0.68,0.68-1.06,1.58-1.06,2.55v43.66c0,0.63-0.36,1.21-0.93,1.49
			c-0.57,0.28-1.24,0.22-1.75-0.17c-4.35-3.3-9.55-5.05-15.02-5.05c-1.99,0-3.61,1.62-3.61,3.61c0,1.99,1.62,3.61,3.61,3.61
			C49.99,98.04,57.57,105.09,58.41,114.07z"/>
		<path class="st1" d="M92.55,129.56c-2.54,0-4.61-2.07-4.61-4.61c0-2.54,2.07-4.6,4.61-4.6c2.54,0,4.6,2.07,4.6,4.6
			C97.15,127.5,95.09,129.56,92.55,129.56z M92.55,123.69c-0.7,0-1.27,0.57-1.27,1.27c0,0.7,0.57,1.27,1.27,1.27
			c0.7,0,1.27-0.57,1.27-1.27C93.82,124.26,93.25,123.69,92.55,123.69z"/>
		<polygon class="st1" points="103.5,134.18 100.16,134.18 100.16,117.4 55.69,117.4 55.69,134.18 52.36,134.18 52.36,114.07 
			103.5,114.07 		"/>
	</g>
	<g>
		<rect x="60.43" y="29.77" class="st3" width="3.33" height="6.06"/>
		
			<rect x="51.39" y="32.19" transform="matrix(0.8659 -0.5002 0.5002 0.8659 -10.503 31.2641)" class="st3" width="3.34" height="6.06"/>
		
			<rect x="44.77" y="38.81" transform="matrix(0.5002 -0.8659 0.8659 0.5002 -13.0225 61.1258)" class="st3" width="3.33" height="6.06"/>
		<rect x="40.98" y="49.22" class="st3" width="6.06" height="3.34"/>
		
			<rect x="43.41" y="58.27" transform="matrix(0.8659 -0.5002 0.5002 0.8659 -23.7506 31.2615)" class="st3" width="6.06" height="3.33"/>
		
			<rect x="76.1" y="56.9" transform="matrix(0.5002 -0.8659 0.8659 0.5002 -13.0276 97.2944)" class="st3" width="3.33" height="6.06"/>
		<rect x="77.16" y="49.22" class="st3" width="6.06" height="3.34"/>
		
			<rect x="74.74" y="40.18" transform="matrix(0.8659 -0.5003 0.5003 0.8659 -10.5019 44.5174)" class="st3" width="6.06" height="3.34"/>
		<rect x="68.11" y="33.55" transform="matrix(0.5 -0.866 0.866 0.5 5.0715 79.2251)" class="st3" width="6.06" height="3.33"/>
	</g>
	<polygon class="st1" points="114.53,85.86 103.98,85.86 103.98,82.52 111.19,82.52 111.19,20.5 21.89,20.5 21.89,82.52 
		51.33,82.52 51.33,85.86 18.56,85.86 18.56,17.16 114.53,17.16 	"/>
	<path class="st1" d="M114.53,20.5H18.56V5.58h95.97V20.5z M21.89,17.16h89.3V8.92h-89.3V17.16z"/>
	<rect x="40.67" y="11.37" class="st1" width="3.34" height="3.33"/>
	<rect x="34" y="11.37" class="st1" width="3.34" height="3.33"/>
	<rect x="27.33" y="11.37" class="st1" width="3.33" height="3.33"/>
</g>
</svg>
