<?xml version="1.0" encoding="utf-8"?>
<!-- Generator: Adobe Illustrator 25.2.1, SVG Export Plug-In . SVG Version: 6.00 Build 0)  -->
<svg version="1.1" id="Layer_1" xmlns="http://www.w3.org/2000/svg" xmlns:xlink="http://www.w3.org/1999/xlink" x="0px" y="0px"
	 viewBox="0 0 125.63 56.16" style="enable-background:new 0 0 125.63 56.16;" xml:space="preserve">
<style type="text/css">
	.st0{fill:url(#SVGID_1_);}
	.st1{fill:#FFFFFF;}
	.st2{fill:#FFB820;}
</style>
<g>
	
		<linearGradient id="SVGID_1_" gradientUnits="userSpaceOnUse" x1="120.16" y1="388.3273" x2="120.16" y2="370.4646" gradientTransform="matrix(1 0 0 1 0 -342.4773)">
		<stop  offset="0" style="stop-color:#FFFFFF;stop-opacity:0"/>
		<stop  offset="0.0937" style="stop-color:#FFFCF6;stop-opacity:0.0937"/>
		<stop  offset="0.2465" style="stop-color:#FFF4DE;stop-opacity:0.2465"/>
		<stop  offset="0.4396" style="stop-color:#FFE8B6;stop-opacity:0.4396"/>
		<stop  offset="0.6653" style="stop-color:#FFD67F;stop-opacity:0.6653"/>
		<stop  offset="0.9156" style="stop-color:#FFC039;stop-opacity:0.9156"/>
		<stop  offset="1" style="stop-color:#FFB820"/>
	</linearGradient>
	<rect x="117.69" y="27.67" class="st0" width="4.94" height="18.18"/>
	<g>
		<path class="st1" d="M41.67,7.1h-7.16v20.57h-5.56V7.1h-7.16V1.94h19.88V7.1z"/>
		<path class="st1" d="M60.03,17.68c0,0.52-0.04,1.05-0.1,1.57H44.9c0.47,2.71,2.25,4.2,4.85,4.2c1.87,0,3.4-0.88,4.21-2.3h5.64
			c-1.44,4.33-5.24,7.09-9.85,7.09c-5.86,0-10.3-4.54-10.3-10.49c0-5.98,4.41-10.49,10.3-10.49C55.85,7.26,60.03,11.96,60.03,17.68
			L60.03,17.68z M45.04,15.58h9.62c-0.76-2.43-2.5-3.74-4.91-3.74C47.36,11.84,45.67,13.23,45.04,15.58z"/>
		<path class="st1" d="M61.02,17.69c0-5.95,4.54-10.43,10.57-10.43c5.14,0,9.13,3.26,10.1,8.15h-5.33c-0.87-1.95-2.66-3.1-4.8-3.1
			c-2.91,0-5.1,2.34-5.1,5.41s2.23,5.47,5.1,5.47c2.17,0,3.88-1.21,4.79-3.33h5.4c-0.94,4.99-5,8.38-10.19,8.38
			C65.59,28.23,61.02,23.63,61.02,17.69z"/>
		<path class="st1" d="M102.48,15.61v12.06h-5.37V16.51c0-2.97-1.05-4.45-3.46-4.45c-2.68,0-4.45,1.95-4.45,5.18v10.44h-5.37V0.66
			h5.37v9c1.51-1.44,3.63-2.31,6-2.31C99.69,7.35,102.48,10.55,102.48,15.61z"/>
		<path class="st2" d="M124.74,22.98h-2.11v4.69h-4.94v-4.69h-11.74v-0.95L114,3.22h5.19l-6.5,15.17h5.13l0.85-5.82h3.96v5.82h2.11
			V22.98L124.74,22.98z"/>
	</g>
	<g>
		<path class="st1" d="M1.13,46.11h5.61c0,2.49,2.06,3.69,4.33,3.69c2.1,0,4.15-1.11,4.15-3.03c0-1.99-2.35-2.54-5.14-3.19
			c-3.88-0.96-8.59-2.08-8.59-7.63c0-4.94,3.64-7.72,9.34-7.72c5.91,0,9.28,3.16,9.28,8.29h-5.5c0-2.22-1.83-3.26-3.91-3.26
			c-1.8,0-3.63,0.77-3.63,2.45c0,1.81,2.24,2.36,4.96,3.01c3.92,0.99,8.85,2.22,8.85,7.98c0,5.56-4.43,8.26-9.76,8.26
			C5.2,54.96,1.13,51.64,1.13,46.11z"/>
		<path class="st1" d="M35.27,49.67v4.78h-3.81c-4.37,0-7.05-2.68-7.05-7.09v-8.45h-3.59v-1.16l7.84-8.34h1.03v5.18h5.48v4.32h-5.39
			v7.74c0,1.92,1.1,3.02,3.06,3.02C32.84,49.67,35.27,49.67,35.27,49.67z"/>
		<path class="st1" d="M57.49,34.57v19.85h-4.21l-0.46-1.77c-1.7,1.49-3.93,2.37-6.43,2.37c-5.97,0-10.42-4.51-10.42-10.52
			c0-5.99,4.44-10.46,10.42-10.46c2.55,0,4.81,0.9,6.52,2.43l0.57-1.9C53.48,34.57,57.49,34.57,57.49,34.57z M52.22,44.49
			c0-3.12-2.29-5.44-5.41-5.44s-5.41,2.33-5.41,5.44c0,3.11,2.29,5.44,5.41,5.44C49.94,49.94,52.22,47.61,52.22,44.49z"/>
		<path class="st1" d="M73.1,49.67v4.78h-3.81c-4.37,0-7.05-2.68-7.05-7.09v-8.45h-3.59v-1.16l7.84-8.34h1.03v5.18H73v4.32h-5.39
			v7.74c0,1.92,1.1,3.02,3.06,3.02C70.67,49.67,73.1,49.67,73.1,49.67z"/>
		<path class="st1" d="M94.36,44.45c0,0.52-0.04,1.05-0.1,1.57H79.23c0.47,2.71,2.25,4.2,4.85,4.2c1.87,0,3.4-0.88,4.21-2.3h5.64
			c-1.44,4.33-5.24,7.09-9.85,7.09c-5.86,0-10.3-4.54-10.3-10.49c0-5.98,4.41-10.49,10.3-10.49C90.18,34.04,94.36,38.74,94.36,44.45
			L94.36,44.45z M79.37,42.36h9.62c-0.76-2.43-2.5-3.74-4.91-3.74C81.7,38.62,80,40.01,79.37,42.36z"/>
		<path class="st1" d="M103.69,55.01c-4.98,0-8.31-2.84-8.34-7.1h5.23c0.03,1.77,1.38,2.65,3.3,2.65c1.49,0,2.83-0.67,2.83-2
			c0-1.36-1.72-1.77-3.82-2.12c-3.17-0.53-7.21-1.38-7.21-6.06c0-3.76,3.19-6.35,7.99-6.35c4.79,0,7.94,2.67,7.96,6.63h-5.09
			c-0.02-1.58-1.13-2.36-3-2.36c-1.67,0-2.66,0.77-2.66,1.9c0,1.32,1.69,1.63,3.76,2.01c3.24,0.58,7.37,1.27,7.37,6.1
			C112.02,52.38,108.7,55.01,103.69,55.01L103.69,55.01z"/>
	</g>
	<circle class="st2" cx="120.04" cy="50.32" r="4.7"/>
</g>
</svg>
