<?xml version="1.0" encoding="utf-8"?>
<!-- Generator: Adobe Illustrator 24.3.0, SVG Export Plug-In . SVG Version: 6.00 Build 0)  -->
<svg version="1.1" id="Layer_1" xmlns="http://www.w3.org/2000/svg" xmlns:xlink="http://www.w3.org/1999/xlink" x="0px" y="0px"
	 viewBox="0 0 21.6 17.3" style="enable-background:new 0 0 21.6 17.3;" xml:space="preserve">
<style type="text/css">
	.st0{clip-path:url(#SVGID_2_);fill:#30365D;}
</style>
<g>
	<defs>
		<rect id="SVGID_1_" y="0" width="21.6" height="17.3"/>
	</defs>
	<clipPath id="SVGID_2_">
		<use xlink:href="#SVGID_1_"  style="overflow:visible;"/>
	</clipPath>
	<path class="st0" d="M18.9,0c-2.7,0-5.4,0-8.1,0C8.1,0,5.4,0,2.7,0C1.2,0,0,1.2,0,2.7c0,4,0,7.9,0,11.9c0,1.6,1.2,2.7,2.7,2.7
		c5.4,0,10.8,0,16.2,0c1.6,0,2.7-1.2,2.7-2.7c0-4,0-7.9,0-11.9C21.6,1.2,20.5,0,18.9,0 M20.2,5.2c0,3.1,0,6.2,0,9.3
		c0,0.9-0.5,1.4-1.4,1.4c-5.3,0-10.6,0-16,0c-0.9,0-1.4-0.5-1.4-1.4c0-3.1,0-6.2,0-9.3V4.9C3.1,6,4.7,7,6.3,8.1
		c1.3,0.9,2.7,1.7,4,2.6c0.4,0.2,0.7,0.2,1.1,0c2.9-1.9,5.8-3.7,8.7-5.6c0,0,0.1,0,0.1-0.1V5.2z M19.9,3.4c-3,1.9-5.9,3.8-8.9,5.7
		c-0.1,0.1-0.2,0.1-0.4,0c-3-1.9-6-3.9-9-5.8C1.5,3.2,1.4,3.2,1.4,3c0-0.2,0-0.5,0.1-0.7c0.2-0.5,0.6-0.8,1.2-0.8c1.2,0,2.5,0,3.7,0
		c1.4,0,2.9,0,4.3,0c2.7,0,5.3,0,8,0c0.9,0,1.4,0.5,1.4,1.4C20.2,3.1,20.1,3.3,19.9,3.4"/>
</g>
</svg>
