<?xml version="1.0" encoding="utf-8"?>
<!-- Generator: Adobe Illustrator 24.3.0, SVG Export Plug-In . SVG Version: 6.00 Build 0)  -->
<svg version="1.1" id="Layer_1" xmlns="http://www.w3.org/2000/svg" xmlns:xlink="http://www.w3.org/1999/xlink" x="0px" y="0px"
	 viewBox="0 0 137.3 80.9" style="enable-background:new 0 0 137.3 80.9;" xml:space="preserve">
<style type="text/css">
	.st0{fill:#FFFFFF;}
	.st1{fill:#352063;}
	.st2{fill:#EC1C24;}
</style>
<g>
	<polygon class="st0" points="0,40.3 0,0 124,16.3 124,40.3 	"/>
	<polygon class="st1" points="122.6,38.7 4,37.7 4,3.1 122.6,17.7 	"/>
	<g>
		<path class="st2" d="M37.2,31.5l-6.8-0.2l-9.6-9.8V31l-6.3-0.2V10.8l6.3,0.6v9l9-8.1l6.6,0.7l-8.9,8.2L37.2,31.5z"/>
		<path class="st2" d="M54.5,14.9l4.6,0.5v16.9l-3.9-0.1L44.9,20.6v11.1l-5.1-0.2V13.4l4.7,0.5l10,11.5V14.9z"/>
		<path class="st2" d="M73.2,33c-2.9-0.1-5.4-1-7.4-2.7c-2.1-1.7-3.1-3.8-3.1-6.3c0-2.5,1-4.4,3.1-5.9c2-1.4,4.5-2,7.4-1.7
			c1.9,0.2,3.5,0.7,5,1.6c1.5,0.8,2.6,1.9,3.4,3.2c0.8,1.3,1.2,2.7,1.2,4.2c0,2.3-0.9,4.1-2.7,5.6C78.3,32.4,76,33.1,73.2,33z
			 M73.2,29.8c1.1,0,2.1-0.1,3-0.5c0.9-0.4,1.6-0.9,2-1.7c0.5-0.7,0.7-1.6,0.7-2.5c0-1.4-0.5-2.6-1.6-3.6c-1.1-1-2.5-1.6-4.1-1.8
			c-1.7-0.1-3.1,0.2-4.3,1.1c-1.2,0.9-1.8,2.1-1.8,3.6c0,1.5,0.6,2.7,1.8,3.8C70,29.1,71.5,29.7,73.2,29.8z"/>
		<path class="st2" d="M93.2,33.6c-1.5,0-2.9-0.4-4.2-1.1c-1.3-0.7-2.3-1.7-3.1-2.9c-0.8-1.2-1.1-2.6-1.1-4.1c0-2.2,0.8-4.1,2.5-5.4
			c1.6-1.3,3.6-1.9,6-1.6c1.9,0.2,3.5,0.9,4.9,2.1c1.3,1.2,2.2,2.6,2.5,4.3l-3.2-0.2c-0.2-0.6-0.5-1.1-0.9-1.5
			C96,22.6,95.5,22.2,95,22c-0.6-0.3-1.2-0.4-1.8-0.5c-1.3-0.1-2.5,0.2-3.4,1c-0.9,0.8-1.4,1.9-1.4,3.2c0,1.3,0.5,2.5,1.4,3.4
			c0.9,0.9,2.1,1.4,3.4,1.5c1,0,1.9-0.2,2.6-0.7c0.7-0.5,1.2-1.2,1.5-2.1l3.3,0.2c-0.3,1.7-1.2,3.1-2.5,4.1
			C96.7,33.2,95.1,33.7,93.2,33.6z"/>
		<path class="st2" d="M114.2,34l-3.4-0.1l-4.8-6.8v6.7l-3.1-0.1V19.7l3.1,0.3v6.3l4.5-5.9l3.3,0.3l-4.5,6L114.2,34z"/>
		<path class="st2" d="M115.5,34.1v-2.9l2.8,0.1v2.9L115.5,34.1z M115.5,29.8v-9.2l2.6,0.3V30L115.5,29.8z"/>
	</g>
</g>
<g>
	<polygon class="st0" points="13.3,69.4 13.3,38 137.3,38.4 137.3,80.9 	"/>
	<polygon class="st1" points="134,77.9 15.1,67.5 15.1,40.1 134,41.1 	"/>
	<g>
		<path class="st2" d="M32.9,63l-4.2-0.3l-5.4-8.6v8.2l-3.3-0.2V45.5l3.3,0.1v7.7l5-7.6l4,0.1l-5.4,8L32.9,63z"/>
		<path class="st2" d="M45.1,46.1l3.6,0.1v17.9l-3.1-0.2L38,52.5v10.9l-3.5-0.2V45.8l3.2,0.1l7.3,11V46.1z"/>
		<path class="st2" d="M61.3,65.4c-2.8-0.2-5.1-1.3-6.9-3.2c-1.8-1.9-2.7-4.2-2.7-6.9c0-2.7,0.9-4.9,2.7-6.6
			c1.8-1.8,4.1-2.6,6.9-2.6c1.9,0,3.6,0.5,5.1,1.4c1.6,0.9,2.8,2.1,3.7,3.6c0.9,1.5,1.3,3.2,1.3,5.1c0,2.8-1,5.1-2.9,6.9
			C66.5,64.8,64.1,65.6,61.3,65.4z M61.3,61.6c1.1,0.1,2.1-0.1,3-0.6c0.9-0.5,1.6-1.1,2.1-2c0.5-0.9,0.8-1.9,0.8-3
			c0-1.7-0.6-3.1-1.7-4.3c-1.1-1.2-2.5-1.8-4.2-1.8c-1.6-0.1-3,0.5-4.1,1.5c-1.1,1.1-1.6,2.4-1.6,4.1s0.5,3.1,1.6,4.2
			C58.3,60.9,59.7,61.5,61.3,61.6z"/>
		<path class="st2" d="M84,67c-2-0.1-3.8-0.7-5.4-1.7c-1.6-1-2.8-2.3-3.7-3.8c-0.9-1.6-1.3-3.3-1.3-5.1c0-2.8,1-5.2,2.9-7
			c2-1.9,4.5-2.8,7.5-2.7c2.5,0.1,4.8,0.8,6.6,2.3c1.9,1.5,3.1,3.5,3.6,5.9l-4.7-0.2c-0.3-0.8-0.7-1.5-1.2-2.1
			c-0.5-0.6-1.2-1.1-1.9-1.4c-0.7-0.3-1.6-0.5-2.4-0.5c-1.7-0.1-3.2,0.5-4.3,1.6c-1.1,1.1-1.7,2.6-1.7,4.3c0,1.7,0.6,3.2,1.7,4.4
			c1.2,1.2,2.6,1.9,4.3,2c1.4,0.1,2.5-0.2,3.5-0.9c1-0.7,1.7-1.6,2.1-2.9l4.7,0.2c-0.5,2.5-1.7,4.4-3.6,5.8
			C88.8,66.6,86.6,67.2,84,67z"/>
		<path class="st2" d="M116.9,68.9l-6.3-0.4l-8.1-10.6v10l-4.8-0.3V47.3l4.8,0.1v9.4l7.5-9.3l6,0.1l-8,9.7L116.9,68.9z"/>
		<path class="st2" d="M119.4,69.1v-4.7l5.4,0.3v4.8L119.4,69.1z M119.5,62.3v-15l5.2,0.1v15.2L119.5,62.3z"/>
	</g>
</g>
</svg>
