<?xml version="1.0" encoding="utf-8"?>
<!-- Generator: Adobe Illustrator 24.3.0, SVG Export Plug-In . SVG Version: 6.00 Build 0)  -->
<svg version="1.1" id="Layer_1" xmlns="http://www.w3.org/2000/svg" xmlns:xlink="http://www.w3.org/1999/xlink" x="0px" y="0px"
	 viewBox="0 0 21.8 21.8" style="enable-background:new 0 0 21.8 21.8;" xml:space="preserve">
<style type="text/css">
	.st0{clip-path:url(#SVGID_2_);fill:none;stroke:#30365D;stroke-width:1.5;stroke-linecap:round;stroke-linejoin:round;}
	
		.st1{clip-path:url(#SVGID_2_);fill:none;stroke:#30365D;stroke-width:1.5;stroke-linecap:round;stroke-linejoin:round;stroke-miterlimit:10;}
</style>
<g>
	<defs>
		<rect id="SVGID_1_" y="0" width="21.8" height="21.8"/>
	</defs>
	<clipPath id="SVGID_2_">
		<use xlink:href="#SVGID_1_"  style="overflow:visible;"/>
	</clipPath>
	<path class="st0" d="M9.8,1h-2c-5,0-7,2-7,7v6c0,5,2,7,7,7h6c5,0,7-2,7-7v-2"/>
	<path class="st1" d="M14.8,2L6.9,9.9c-0.3,0.3-0.6,0.9-0.7,1.3l-0.4,3c-0.2,1.1,0.6,1.9,1.7,1.7l3-0.4c0.4-0.1,1-0.4,1.3-0.7
		L19.7,7c1.4-1.4,2-2.9,0-4.9S16.1,0.7,14.8,2z"/>
	<path class="st1" d="M13.7,3.2c0.7,2.4,2.5,4.3,4.9,4.9"/>
</g>
</svg>
