<?xml version="1.0" encoding="utf-8"?>
<!-- Generator: Adobe Illustrator 24.3.0, SVG Export Plug-In . SVG Version: 6.00 Build 0)  -->
<svg version="1.1" id="Layer_1" xmlns="http://www.w3.org/2000/svg" xmlns:xlink="http://www.w3.org/1999/xlink" x="0px" y="0px"
	 viewBox="0 0 21.5 21.5" style="enable-background:new 0 0 21.5 21.5;" xml:space="preserve">
<style type="text/css">
	.st0{clip-path:url(#SVGID_2_);fill:none;stroke:#292D32;stroke-width:1.5;stroke-linecap:round;stroke-linejoin:round;}
</style>
<g>
	<defs>
		<rect id="SVGID_1_" y="0" width="21.5" height="21.5"/>
	</defs>
	<clipPath id="SVGID_2_">
		<use xlink:href="#SVGID_1_"  style="overflow:visible;"/>
	</clipPath>
	<path class="st0" d="M10.9,11.5c-0.1,0-0.2,0-0.2,0C8.9,11.5,7.5,10,7.5,8.3C7.5,6.5,8.9,5,10.7,5C12.6,5,14,6.5,14,8.3
		C14,10,12.6,11.5,10.9,11.5z"/>
	<path class="st0" d="M17.5,18.1c-1.8,1.6-4.1,2.6-6.7,2.6s-5-1-6.7-2.6c0.1-0.9,0.7-1.9,1.8-2.6c2.7-1.8,7.2-1.8,9.9,0
		C16.8,16.3,17.4,17.2,17.5,18.1z"/>
	<circle class="st0" cx="10.8" cy="10.8" r="10"/>
</g>
</svg>
