<?xml version="1.0" encoding="utf-8"?>
<!-- Generator: Adobe Illustrator 24.3.0, SVG Export Plug-In . SVG Version: 6.00 Build 0)  -->
<svg version="1.1" id="Layer_1" xmlns="http://www.w3.org/2000/svg" xmlns:xlink="http://www.w3.org/1999/xlink" x="0px" y="0px"
	 viewBox="0 0 19.2 19.2" style="enable-background:new 0 0 19.2 19.2;" xml:space="preserve">
<style type="text/css">
	.st0{clip-path:url(#SVGID_2_);fill:none;stroke:#30365D;stroke-width:1.5;stroke-miterlimit:10;}
</style>
<g>
	<defs>
		<rect id="SVGID_1_" y="0" width="19.2" height="19.2"/>
	</defs>
	<clipPath id="SVGID_2_">
		<use xlink:href="#SVGID_1_"  style="overflow:visible;"/>
	</clipPath>
	<path class="st0" d="M18.4,15.2c0,0.3-0.1,0.6-0.2,1c-0.2,0.3-0.3,0.6-0.6,0.9c-0.4,0.5-0.9,0.8-1.5,1c-0.5,0.2-1.1,0.3-1.7,0.3
		c-0.9,0-1.9-0.2-2.9-0.6c-1-0.4-2-1-3-1.8c-1-0.7-2-1.6-2.9-2.5c-0.9-0.9-1.7-1.9-2.5-2.9c-0.7-1-1.3-2-1.7-3c-0.4-1-0.6-2-0.6-2.9
		c0-0.6,0.1-1.2,0.3-1.7c0.2-0.5,0.5-1,1-1.5C2.7,1,3.3,0.8,3.9,0.8c0.2,0,0.5,0.1,0.7,0.2C4.9,1,5.1,1.2,5.2,1.4l2.1,2.9
		c0.2,0.2,0.3,0.4,0.4,0.6c0.1,0.2,0.1,0.4,0.1,0.5c0,0.2-0.1,0.4-0.2,0.6C7.5,6.3,7.3,6.5,7.1,6.7L6.4,7.4C6.3,7.5,6.3,7.6,6.3,7.8
		c0,0.1,0,0.1,0,0.2c0,0.1,0.1,0.1,0.1,0.2c0.2,0.3,0.4,0.7,0.8,1.1c0.4,0.5,0.8,0.9,1.3,1.4C9,11.2,9.4,11.6,9.9,12
		c0.5,0.4,0.8,0.7,1.1,0.8c0,0,0.1,0,0.2,0.1c0.1,0,0.1,0,0.2,0c0.2,0,0.3-0.1,0.4-0.2l0.7-0.7c0.2-0.2,0.4-0.4,0.6-0.5
		c0.2-0.1,0.4-0.2,0.6-0.2c0.2,0,0.3,0,0.5,0.1c0.2,0.1,0.4,0.2,0.6,0.3l2.9,2.1c0.2,0.2,0.4,0.3,0.5,0.6
		C18.4,14.8,18.4,15,18.4,15.2z"/>
</g>
</svg>
