<svg xmlns="http://www.w3.org/2000/svg" width="45" height="45" viewBox="0 0 45 45" fill="none"><g clip-path="url(#clip0_173_5868)"><path d="M33.7912 41.9238H24.3457V41.3965C24.3457 41.0324 24.0506 40.7373 23.6865 40.7373H21.3135C20.9494 40.7373 20.6543 41.0324 20.6543 41.3965V41.9238H4.83398V40.8252C4.83398 40.4611 4.53885 40.166 4.1748 40.166H3.07617V24.3457H3.60352C3.96756 24.3457 4.2627 24.0507 4.2627 23.6865V21.3135C4.2627 20.9493 3.96756 20.6543 3.60352 20.6543H3.07617V4.83398H4.1748C4.53885 4.83398 4.83398 4.53894 4.83398 4.1748V3.07617H8.48435C8.84839 3.07617 9.14353 2.78112 9.14353 2.41699C9.14353 2.05286 8.84839 1.75781 8.48435 1.75781H4.83398V0.65918C4.83398 0.295049 4.53885 0 4.1748 0H0.65918C0.295137 0 0 0.295049 0 0.65918V4.1748C0 4.53894 0.295137 4.83398 0.65918 4.83398H1.75781V20.6543H1.23047C0.866426 20.6543 0.571289 20.9493 0.571289 21.3135V23.6865C0.571289 24.0507 0.866426 24.3457 1.23047 24.3457H1.75781V40.166H0.65918C0.295137 40.166 0 40.4611 0 40.8252V44.3408C0 44.705 0.295137 45 0.65918 45H4.1748C4.53885 45 4.83398 44.705 4.83398 44.3408V43.2422H20.6543V43.7695C20.6543 44.1337 20.9494 44.4287 21.3135 44.4287H23.6865C24.0506 44.4287 24.3457 44.1337 24.3457 43.7695V43.2422H33.7912C34.1553 43.2422 34.4504 42.9471 34.4504 42.583C34.4504 42.2189 34.1553 41.9238 33.7912 41.9238ZM1.31836 1.31836H3.51562V3.51562H1.31836V1.31836ZM1.88965 21.9727H2.94434V23.0273H1.88965V21.9727ZM3.51562 43.6816H1.31836V41.4844H3.51562V43.6816ZM23.0273 43.1104H21.9727V42.0557H23.0273V43.1104Z" fill="white"></path><path d="M44.3409 4.83398C44.7049 4.83398 45 4.53894 45 4.1748V0.65918C45 0.295049 44.7049 0 44.3409 0H40.8252C40.4612 0 40.1661 0.295049 40.1661 0.65918V1.75781H24.3457V1.23047C24.3457 0.866338 24.0506 0.571289 23.6866 0.571289H21.3135C20.9495 0.571289 20.6543 0.866338 20.6543 1.23047V1.75781H11.6538C11.2898 1.75781 10.9946 2.05286 10.9946 2.41699C10.9946 2.78112 11.2898 3.07617 11.6538 3.07617H20.6543V3.60352C20.6543 3.96765 20.9495 4.2627 21.3135 4.2627H23.6866C24.0506 4.2627 24.3457 3.96765 24.3457 3.60352V3.07617H40.1661V4.1748C40.1661 4.53894 40.4612 4.83398 40.8252 4.83398H41.9239V20.6543H41.3965C41.0325 20.6543 40.7373 20.9493 40.7373 21.3135V23.6865C40.7373 24.0507 41.0325 24.3457 41.3965 24.3457H41.9239V40.166H40.8252C40.4612 40.166 40.1661 40.4611 40.1661 40.8252V41.9238H36.8724C36.5084 41.9238 36.2133 42.2189 36.2133 42.583C36.2133 42.9471 36.5084 43.2422 36.8724 43.2422H40.1661V44.3408C40.1661 44.705 40.4612 45 40.8252 45H44.3409C44.7049 45 45 44.705 45 44.3408V40.8252C45 40.4611 44.7049 40.166 44.3409 40.166H43.2422V24.3457H43.7696C44.1336 24.3457 44.4287 24.0507 44.4287 23.6865V21.3135C44.4287 20.9493 44.1336 20.6543 43.7696 20.6543H43.2422V4.83398H44.3409ZM23.0274 2.94434H21.9727V1.88965H23.0274V2.94434ZM43.6817 43.6816H41.4844V41.4844H43.6817V43.6816ZM43.1104 23.0273H42.0557V21.9727H43.1104V23.0273ZM41.4844 1.31836H43.6817V3.51562H41.4844V1.31836Z" fill="white"></path><path d="M6.96853 37.4586C7.17261 37.7465 7.50492 37.9184 7.85763 37.9184H15.4036C16.1244 37.9184 16.7783 37.4642 17.0307 36.7874L18.9494 31.6244H26.0638L27.9616 36.7813C28.2106 37.4614 28.8655 37.9185 29.591 37.9185H37.1423C37.4952 37.9185 37.8276 37.7467 38.0315 37.459C38.2354 37.1713 38.2875 36.8008 38.1706 36.468L28.269 8.24096C28.0246 7.54733 27.3665 7.08142 26.6316 7.08142C24.5649 7.08142 20.4074 7.08142 18.3683 7.08142C17.6333 7.08142 16.9752 7.54751 16.7306 8.24193L6.82939 36.4678C6.71259 36.8005 6.76462 37.171 6.96853 37.4586ZM17.9743 8.6791C18.0332 8.51202 18.1915 8.39969 18.3682 8.39969H22.3549C22.4941 8.40576 22.6233 8.46051 22.7486 8.67822L25.233 15.7604C25.3535 16.1039 25.7297 16.2848 26.0732 16.1643C26.4168 16.0438 26.5976 15.6676 26.4771 15.3241L24.048 8.39969H26.6315C26.8083 8.39969 26.9665 8.51193 27.0252 8.67822L36.8196 36.6H33.9301C33.9206 36.5556 27.4992 18.238 27.4992 18.238C27.3787 17.8944 27.0023 17.7135 26.6589 17.8341C26.3154 17.9546 26.1346 18.3308 26.2551 18.6744L32.543 36.6H29.5908C29.4163 36.6 29.259 36.4907 29.1991 36.327L27.1421 30.7376C27.0467 30.4783 26.7996 30.3061 26.5234 30.3061H14.2147C13.9392 30.3061 13.6928 30.4774 13.5968 30.7357L13.0572 32.1876C12.9304 32.5289 13.1043 32.9083 13.4454 33.0352C13.7866 33.1621 14.1662 32.9881 14.293 32.6469L14.6729 31.6245H17.543L15.7952 36.3276C15.7344 36.4906 15.577 36.6002 15.4036 36.6002H12.8238L13.2146 35.5488C13.3414 35.2076 13.1675 34.8281 12.8263 34.7012C12.4852 34.5744 12.1056 34.7482 11.9788 35.0895L11.5185 36.3279C11.4901 36.4045 11.4403 36.4705 11.3753 36.5184C11.3023 36.5718 11.2165 36.6002 11.1271 36.6002H8.1801L17.9743 8.6791Z" fill="white"></path><path d="M15.6494 27.2293H25.1048C25.3186 27.2293 25.519 27.1257 25.6425 26.9514C25.7661 26.7771 25.7976 26.5537 25.7268 26.352L20.9842 12.8296C20.8914 12.5654 20.642 12.3886 20.3621 12.3886C20.3619 12.3886 20.3616 12.3886 20.3615 12.3886C20.0813 12.3889 19.8318 12.5662 19.7396 12.8309L15.0269 26.3532C14.9567 26.5547 14.9884 26.7779 15.112 26.9519C15.2357 27.1259 15.4359 27.2293 15.6494 27.2293ZM20.8536 25.9109L22.5089 21.1605L24.175 25.9109H20.8536ZM20.364 15.0451L21.8085 19.1637L19.4575 25.9109H16.5772L20.364 15.0451Z" fill="white"></path></g><defs><clipPath id="clip0_173_5868"><rect width="45" height="45" fill="white"></rect></clipPath></defs></svg>