<svg xmlns="http://www.w3.org/2000/svg" width="176" height="58" viewBox="0 0 176 58" fill="none"><rect x="0.5" y="0.5" width="175" height="57" rx="28.5" stroke="url(#paint0_linear_4334_36097)"></rect><path d="M54 23C54 21.9 53.1 21 52 21H36C34.9 21 34 21.9 34 23V35C34 36.1 34.9 37 36 37H52C53.1 37 54 36.1 54 35V23ZM52 23L44 28L36 23H52ZM52 35H36V25L44 30L52 25V35Z" fill="url(#paint1_linear_4334_36097)"></path><path d="M68.996 15.568C69.32 14.92 69.788 14.428 70.4 14.068C71 13.708 71.708 13.528 72.512 13.528C73.436 13.528 74.216 13.78 74.84 14.284C75.464 14.788 75.86 15.484 76.028 16.348H74.984C74.828 15.772 74.528 15.316 74.084 14.98C73.64 14.656 73.1 14.488 72.464 14.488C71.888 14.488 71.372 14.632 70.94 14.908C70.496 15.196 70.16 15.58 69.92 16.084C69.68 16.588 69.572 17.152 69.572 17.8C69.572 18.448 69.68 19.012 69.92 19.516C70.16 20.02 70.496 20.416 70.94 20.692C71.372 20.98 71.888 21.112 72.464 21.112C73.112 21.112 73.652 20.956 74.084 20.632C74.516 20.308 74.804 19.852 74.972 19.252H76.016C75.848 20.128 75.464 20.812 74.84 21.316C74.216 21.82 73.448 22.072 72.512 22.072C71.708 22.072 71 21.904 70.4 21.544C69.788 21.184 69.32 20.692 68.996 20.044C68.66 19.396 68.504 18.652 68.504 17.8C68.504 16.96 68.66 16.216 68.996 15.568ZM78.4275 21.676C77.9715 21.412 77.6115 21.052 77.3595 20.572C77.0955 20.104 76.9755 19.564 76.9755 18.94C76.9755 18.328 77.0955 17.788 77.3595 17.308C77.6115 16.84 77.9715 16.468 78.4275 16.204C78.8835 15.94 79.4115 15.808 80.0115 15.808C80.5995 15.808 81.1275 15.94 81.5835 16.204C82.0395 16.468 82.3995 16.84 82.6635 17.308C82.9155 17.788 83.0475 18.328 83.0475 18.94C83.0475 19.564 82.9155 20.104 82.6635 20.572C82.3995 21.052 82.0395 21.412 81.5835 21.676C81.1275 21.94 80.5995 22.072 80.0115 22.072C79.4115 22.072 78.8835 21.94 78.4275 21.676ZM81.0675 20.908C81.3795 20.716 81.6195 20.452 81.7875 20.104C81.9555 19.768 82.0395 19.372 82.0395 18.94C82.0395 18.508 81.9555 18.124 81.7875 17.776C81.6195 17.44 81.3795 17.164 81.0675 16.972C80.7555 16.78 80.4075 16.684 80.0115 16.684C79.6035 16.684 79.2555 16.78 78.9435 16.972C78.6315 17.164 78.4035 17.44 78.2355 17.776C78.0675 18.124 77.9835 18.508 77.9835 18.94C77.9835 19.372 78.0675 19.768 78.2355 20.104C78.4035 20.452 78.6315 20.716 78.9435 20.908C79.2555 21.1 79.6035 21.196 80.0115 21.196C80.4075 21.196 80.7555 21.1 81.0675 20.908ZM88.9639 16.48C89.4199 16.936 89.6479 17.632 89.6479 18.592V22H88.6639V18.652C88.6639 18.028 88.5199 17.548 88.2319 17.212C87.9439 16.876 87.5359 16.708 87.0079 16.708C86.4319 16.708 85.9759 16.912 85.6519 17.308C85.3159 17.716 85.1599 18.256 85.1599 18.94V22H84.1759V15.88H85.0279L85.1599 16.708C85.6159 16.108 86.2879 15.808 87.1759 15.808C87.9199 15.808 88.5079 16.036 88.9639 16.48ZM91.3105 16.78H90.2065V15.88H91.3105V14.164H92.2945V15.88H93.8425V16.78H92.2945V20.392C92.2945 20.656 92.3425 20.836 92.4385 20.944C92.5345 21.052 92.7145 21.1 92.9665 21.1H94.0345V22H92.9065C92.3305 22 91.9105 21.88 91.6705 21.616C91.4305 21.364 91.3105 20.956 91.3105 20.404V16.78ZM100.365 21.1V22H99.8248C99.4288 22 99.1528 21.928 98.9848 21.76C98.8168 21.604 98.7208 21.364 98.7208 21.052C98.2408 21.736 97.5568 22.072 96.6688 22.072C95.9848 22.072 95.4328 21.916 95.0248 21.592C94.6168 21.28 94.4128 20.836 94.4128 20.284C94.4128 19.672 94.6168 19.204 95.0368 18.868C95.4568 18.544 96.0688 18.376 96.8728 18.376H98.6728V17.956C98.6728 17.56 98.5288 17.248 98.2648 17.02C98.0008 16.804 97.6288 16.684 97.1488 16.684C96.7168 16.684 96.3688 16.78 96.0928 16.972C95.8168 17.164 95.6488 17.404 95.5888 17.716H94.6048C94.6768 17.116 94.9408 16.648 95.3968 16.312C95.8528 15.976 96.4528 15.808 97.1968 15.808C97.9768 15.808 98.5768 16 99.0088 16.384C99.4408 16.768 99.6568 17.308 99.6568 18.016V20.656C99.6568 20.956 99.7888 21.1 100.065 21.1H100.365ZM98.6728 19.204H96.7768C95.8648 19.204 95.4088 19.552 95.4088 20.224C95.4088 20.536 95.5288 20.776 95.7688 20.956C96.0088 21.148 96.3328 21.232 96.7408 21.232C97.3408 21.232 97.8088 21.076 98.1568 20.764C98.4928 20.452 98.6728 20.032 98.6728 19.504V19.204ZM105.681 21.496C105.201 21.88 104.601 22.072 103.881 22.072C103.281 22.072 102.765 21.94 102.321 21.676C101.865 21.412 101.517 21.052 101.277 20.572C101.025 20.092 100.905 19.552 100.905 18.928C100.905 18.316 101.025 17.776 101.277 17.296C101.529 16.828 101.889 16.468 102.345 16.204C102.801 15.94 103.317 15.808 103.917 15.808C104.637 15.808 105.225 16 105.693 16.384C106.161 16.768 106.461 17.296 106.581 17.968H105.585C105.489 17.584 105.285 17.272 104.985 17.032C104.673 16.804 104.313 16.684 103.881 16.684C103.293 16.684 102.813 16.9 102.453 17.308C102.093 17.728 101.913 18.268 101.913 18.928C101.913 19.6 102.093 20.152 102.453 20.572C102.813 20.992 103.293 21.196 103.881 21.196C104.325 21.196 104.697 21.088 105.009 20.848C105.309 20.62 105.501 20.296 105.597 19.888H106.581C106.449 20.572 106.149 21.112 105.681 21.496ZM108.127 16.78H107.023V15.88H108.127V14.164H109.111V15.88H110.659V16.78H109.111V20.392C109.111 20.656 109.159 20.836 109.255 20.944C109.351 21.052 109.531 21.1 109.783 21.1H110.851V22H109.723C109.147 22 108.727 21.88 108.487 21.616C108.247 21.364 108.127 20.956 108.127 20.404V16.78ZM119.96 15.88V22H119.108L118.976 21.184C118.508 21.784 117.86 22.072 117.02 22.072C116.288 22.072 115.7 21.856 115.268 21.4C114.824 20.956 114.608 20.248 114.608 19.288V15.88H115.592V19.228C115.592 19.864 115.724 20.344 116 20.68C116.276 21.016 116.672 21.172 117.188 21.172C117.74 21.172 118.184 20.98 118.496 20.572C118.808 20.176 118.976 19.636 118.976 18.94V15.88H119.96ZM122.069 19.984C122.081 20.356 122.237 20.656 122.549 20.884C122.861 21.124 123.257 21.232 123.749 21.232C124.181 21.232 124.529 21.148 124.793 20.98C125.057 20.812 125.201 20.584 125.201 20.296C125.201 20.056 125.129 19.876 125.009 19.744C124.877 19.624 124.709 19.528 124.505 19.48C124.301 19.432 124.013 19.384 123.641 19.336C123.113 19.276 122.681 19.192 122.345 19.084C122.009 18.988 121.733 18.82 121.529 18.592C121.313 18.364 121.217 18.052 121.217 17.644C121.217 17.284 121.313 16.972 121.517 16.684C121.721 16.408 121.997 16.192 122.357 16.036C122.705 15.88 123.101 15.796 123.545 15.796C124.265 15.796 124.841 15.964 125.297 16.3C125.753 16.636 126.005 17.116 126.053 17.74H125.069C125.021 17.428 124.865 17.164 124.601 16.948C124.325 16.744 123.989 16.636 123.581 16.636C123.161 16.636 122.825 16.732 122.573 16.9C122.309 17.068 122.189 17.296 122.189 17.572C122.189 17.788 122.249 17.944 122.369 18.052C122.489 18.172 122.633 18.244 122.825 18.28C123.017 18.328 123.305 18.364 123.689 18.412C124.217 18.484 124.661 18.568 125.009 18.676C125.357 18.796 125.633 18.976 125.849 19.216C126.065 19.468 126.173 19.804 126.173 20.224C126.173 20.596 126.065 20.92 125.849 21.196C125.633 21.484 125.333 21.7 124.973 21.844C124.601 22 124.193 22.072 123.749 22.072C122.945 22.072 122.297 21.892 121.817 21.52C121.337 21.16 121.085 20.644 121.085 19.984H122.069ZM131.666 21.676C131.21 21.412 130.85 21.052 130.598 20.572C130.334 20.104 130.214 19.564 130.214 18.94C130.214 18.328 130.334 17.788 130.598 17.308C130.85 16.84 131.21 16.468 131.666 16.204C132.122 15.94 132.65 15.808 133.25 15.808C133.838 15.808 134.366 15.94 134.822 16.204C135.278 16.468 135.638 16.84 135.902 17.308C136.154 17.788 136.286 18.328 136.286 18.94C136.286 19.564 136.154 20.104 135.902 20.572C135.638 21.052 135.278 21.412 134.822 21.676C134.366 21.94 133.838 22.072 133.25 22.072C132.65 22.072 132.122 21.94 131.666 21.676ZM134.306 20.908C134.618 20.716 134.858 20.452 135.026 20.104C135.194 19.768 135.278 19.372 135.278 18.94C135.278 18.508 135.194 18.124 135.026 17.776C134.858 17.44 134.618 17.164 134.306 16.972C133.994 16.78 133.646 16.684 133.25 16.684C132.842 16.684 132.494 16.78 132.182 16.972C131.87 17.164 131.642 17.44 131.474 17.776C131.306 18.124 131.222 18.508 131.222 18.94C131.222 19.372 131.306 19.768 131.474 20.104C131.642 20.452 131.87 20.716 132.182 20.908C132.494 21.1 132.842 21.196 133.25 21.196C133.646 21.196 133.994 21.1 134.306 20.908ZM142.202 16.48C142.658 16.936 142.886 17.632 142.886 18.592V22H141.902V18.652C141.902 18.028 141.758 17.548 141.47 17.212C141.182 16.876 140.774 16.708 140.246 16.708C139.67 16.708 139.214 16.912 138.89 17.308C138.554 17.716 138.398 18.256 138.398 18.94V22H137.414V15.88H138.266L138.398 16.708C138.854 16.108 139.526 15.808 140.414 15.808C141.158 15.808 141.746 16.036 142.202 16.48Z" fill="#ABB3B8"></path><path d="M69.152 31.4H77.378V33.236H71.222V36.728H76.298V38.51H71.222V42.164H77.594V44H69.152V31.4ZM92.2006 35.666C92.8306 36.314 93.1546 37.358 93.1546 38.798V44H91.2106V38.816C91.2106 38.024 91.0486 37.412 90.7246 36.98C90.4006 36.566 89.9146 36.35 89.2846 36.35C88.6006 36.35 88.0786 36.602 87.6826 37.07C87.2866 37.538 87.1066 38.186 87.1066 39.014V44H85.1446V38.816C85.1446 38.006 84.9646 37.394 84.6406 36.98C84.3166 36.566 83.8306 36.35 83.2006 36.35C82.5346 36.35 82.0126 36.602 81.6166 37.088C81.2206 37.592 81.0406 38.24 81.0406 39.068V44H79.0966V34.784H80.7886L81.0046 35.99C81.6526 35.126 82.5526 34.694 83.7046 34.676C84.3526 34.676 84.9106 34.82 85.4146 35.09C85.9006 35.378 86.2786 35.792 86.5486 36.35C86.8726 35.828 87.2866 35.414 87.8266 35.126C88.3486 34.838 88.9786 34.676 89.7346 34.676C90.7426 34.676 91.5526 35.018 92.2006 35.666ZM103.737 42.308V44H102.711C102.099 44 101.667 43.874 101.415 43.622C101.145 43.37 101.019 43.01 101.019 42.524C100.317 43.586 99.3089 44.108 97.9769 44.108C96.9329 44.108 96.1049 43.874 95.4929 43.388C94.8629 42.92 94.5569 42.254 94.5569 41.408C94.5569 40.472 94.8809 39.734 95.5649 39.23C96.2309 38.726 97.2029 38.456 98.4989 38.456H100.821V37.898C100.821 37.394 100.641 36.98 100.281 36.692C99.9209 36.404 99.4169 36.242 98.7869 36.242C98.2109 36.242 97.7429 36.368 97.3829 36.62C97.0229 36.872 96.8069 37.196 96.7349 37.592H94.8269C94.9169 36.674 95.3309 35.954 96.0509 35.45C96.7709 34.946 97.7069 34.676 98.8769 34.676C100.101 34.676 101.055 34.964 101.739 35.54C102.405 36.116 102.747 36.944 102.747 38.024V41.66C102.747 42.092 102.945 42.308 103.359 42.308H103.737ZM100.821 39.896H98.4089C97.7969 39.896 97.3469 40.022 97.0229 40.256C96.6989 40.49 96.5369 40.832 96.5369 41.282C96.5369 41.678 96.6809 42.002 96.9869 42.236C97.2929 42.488 97.7069 42.596 98.2469 42.596C99.0389 42.596 99.6689 42.38 100.119 41.948C100.569 41.516 100.803 40.94 100.821 40.22V39.896ZM106.614 31.436C106.83 31.652 106.956 31.94 106.956 32.264C106.956 32.606 106.83 32.894 106.614 33.11C106.38 33.326 106.092 33.434 105.768 33.434C105.426 33.434 105.138 33.326 104.922 33.11C104.688 32.894 104.58 32.606 104.58 32.264C104.58 31.94 104.688 31.652 104.922 31.436C105.138 31.22 105.426 31.094 105.768 31.094C106.092 31.094 106.38 31.22 106.614 31.436ZM104.796 34.784H106.74V44H104.796V34.784ZM108.645 31.4H110.589V44H108.645V31.4Z" fill="white"></path><defs><linearGradient id="paint0_linear_4334_36097" x1="109.923" y1="23.0389" x2="-10.9846" y2="28.6617" gradientUnits="userSpaceOnUse"><stop stop-color="#B675FF"></stop><stop offset="1" stop-color="#FF2377"></stop></linearGradient><linearGradient id="paint1_linear_4334_36097" x1="46.4912" y1="27.3556" x2="32.7271" y2="27.6192" gradientUnits="userSpaceOnUse"><stop stop-color="#B675FF"></stop><stop offset="1" stop-color="#FF2377"></stop></linearGradient></defs></svg>