<svg xmlns="http://www.w3.org/2000/svg" width="188" height="58" viewBox="0 0 188 58" fill="none"><rect x="0.5" y="0.5" width="187" height="57" rx="28.5" stroke="url(#paint0_linear_4333_35936)"></rect><path d="M51.0508 21.9101C50.134 20.984 49.042 20.2497 47.8384 19.7501C46.6349 19.2505 45.3439 18.9955 44.0408 19.0001C38.5808 19.0001 34.1308 23.4501 34.1308 28.9101C34.1308 30.6601 34.5908 32.3601 35.4508 33.8601L34.0508 39.0001L39.3008 37.6201C40.7508 38.4101 42.3808 38.8301 44.0408 38.8301C49.5008 38.8301 53.9508 34.3801 53.9508 28.9201C53.9508 26.2701 52.9208 23.7801 51.0508 21.9101ZM44.0408 37.1501C42.5608 37.1501 41.1108 36.7501 39.8408 36.0001L39.5408 35.8201L36.4208 36.6401L37.2508 33.6001L37.0508 33.2901C36.2285 31.977 35.7919 30.4593 35.7908 28.9101C35.7908 24.3701 39.4908 20.6701 44.0308 20.6701C46.2308 20.6701 48.3008 21.5301 49.8508 23.0901C50.6183 23.854 51.2265 24.7627 51.6402 25.7635C52.0539 26.7642 52.2648 27.8372 52.2608 28.9201C52.2808 33.4601 48.5808 37.1501 44.0408 37.1501ZM48.5608 30.9901C48.3108 30.8701 47.0908 30.2701 46.8708 30.1801C46.6408 30.1001 46.4808 30.0601 46.3108 30.3001C46.1408 30.5501 45.6708 31.1101 45.5308 31.2701C45.3908 31.4401 45.2408 31.4601 44.9908 31.3301C44.7408 31.2101 43.9408 30.9401 43.0008 30.1001C42.2608 29.4401 41.7708 28.6301 41.6208 28.3801C41.4808 28.1301 41.6008 28.0001 41.7308 27.8701C41.8408 27.7601 41.9808 27.5801 42.1008 27.4401C42.2208 27.3001 42.2708 27.1901 42.3508 27.0301C42.4308 26.8601 42.3908 26.7201 42.3308 26.6001C42.2708 26.4801 41.7708 25.2601 41.5708 24.7601C41.3708 24.2801 41.1608 24.3401 41.0108 24.3301H40.5308C40.3608 24.3301 40.1008 24.3901 39.8708 24.6401C39.6508 24.8901 39.0108 25.4901 39.0108 26.7101C39.0108 27.9301 39.9008 29.1101 40.0208 29.2701C40.1408 29.4401 41.7708 31.9401 44.2508 33.0101C44.8408 33.2701 45.3008 33.4201 45.6608 33.5301C46.2508 33.7201 46.7908 33.6901 47.2208 33.6301C47.7008 33.5601 48.6908 33.0301 48.8908 32.4501C49.1008 31.8701 49.1008 31.3801 49.0308 31.2701C48.9608 31.1601 48.8108 31.1101 48.5608 30.9901Z" fill="url(#paint1_linear_4333_35936)"></path><path d="M72.032 13.6C72.584 13.6 73.064 13.708 73.496 13.924C73.916 14.14 74.24 14.44 74.48 14.824C74.708 15.208 74.828 15.664 74.828 16.18C74.828 16.768 74.66 17.272 74.336 17.704C74.012 18.136 73.58 18.424 73.04 18.568L74.924 22H73.748L72.008 18.772H69.86V22H68.816V13.6H72.032ZM69.86 17.812H71.948C72.5 17.812 72.932 17.668 73.268 17.368C73.592 17.08 73.76 16.684 73.76 16.18C73.76 15.7 73.592 15.304 73.268 15.004C72.932 14.716 72.5 14.56 71.96 14.56H69.86V17.812ZM75.8355 17.296C76.0755 16.828 76.4235 16.468 76.8675 16.204C77.2995 15.94 77.8035 15.808 78.3795 15.808C78.9315 15.808 79.4355 15.928 79.8675 16.156C80.2995 16.396 80.6355 16.732 80.8875 17.164C81.1275 17.608 81.2595 18.124 81.2835 18.712C81.2835 18.808 81.2715 18.94 81.2595 19.132H76.5075V19.216C76.5195 19.816 76.6995 20.296 77.0595 20.656C77.4075 21.016 77.8635 21.196 78.4395 21.196C78.8715 21.196 79.2435 21.088 79.5555 20.872C79.8675 20.656 80.0715 20.344 80.1795 19.948H81.1755C81.0555 20.572 80.7555 21.088 80.2755 21.484C79.7955 21.88 79.2075 22.072 78.5115 22.072C77.8995 22.072 77.3715 21.952 76.9155 21.688C76.4595 21.424 76.0995 21.064 75.8475 20.584C75.5955 20.104 75.4755 19.564 75.4755 18.94C75.4755 18.316 75.5955 17.776 75.8355 17.296ZM80.2635 18.316C80.2155 17.8 80.0115 17.392 79.6755 17.104C79.3395 16.816 78.9075 16.672 78.3915 16.672C77.9235 16.672 77.5155 16.828 77.1675 17.128C76.8075 17.44 76.6155 17.836 76.5675 18.316H80.2635ZM88.1304 21.1V22H87.5904C87.1944 22 86.9184 21.928 86.7504 21.76C86.5824 21.604 86.4864 21.364 86.4864 21.052C86.0064 21.736 85.3224 22.072 84.4344 22.072C83.7504 22.072 83.1984 21.916 82.7904 21.592C82.3824 21.28 82.1784 20.836 82.1784 20.284C82.1784 19.672 82.3824 19.204 82.8024 18.868C83.2224 18.544 83.8344 18.376 84.6384 18.376H86.4384V17.956C86.4384 17.56 86.2944 17.248 86.0304 17.02C85.7664 16.804 85.3944 16.684 84.9144 16.684C84.4824 16.684 84.1344 16.78 83.8584 16.972C83.5824 17.164 83.4144 17.404 83.3544 17.716H82.3704C82.4424 17.116 82.7064 16.648 83.1624 16.312C83.6184 15.976 84.2184 15.808 84.9624 15.808C85.7424 15.808 86.3424 16 86.7744 16.384C87.2064 16.768 87.4224 17.308 87.4224 18.016V20.656C87.4224 20.956 87.5544 21.1 87.8304 21.1H88.1304ZM86.4384 19.204H84.5424C83.6304 19.204 83.1744 19.552 83.1744 20.224C83.1744 20.536 83.2944 20.776 83.5344 20.956C83.7744 21.148 84.0984 21.232 84.5064 21.232C85.1064 21.232 85.5744 21.076 85.9224 20.764C86.2584 20.452 86.4384 20.032 86.4384 19.504V19.204ZM93.4468 21.496C92.9668 21.88 92.3668 22.072 91.6468 22.072C91.0468 22.072 90.5308 21.94 90.0868 21.676C89.6308 21.412 89.2828 21.052 89.0428 20.572C88.7908 20.092 88.6708 19.552 88.6708 18.928C88.6708 18.316 88.7908 17.776 89.0428 17.296C89.2948 16.828 89.6548 16.468 90.1108 16.204C90.5668 15.94 91.0828 15.808 91.6828 15.808C92.4028 15.808 92.9908 16 93.4588 16.384C93.9268 16.768 94.2268 17.296 94.3468 17.968H93.3508C93.2548 17.584 93.0508 17.272 92.7508 17.032C92.4388 16.804 92.0788 16.684 91.6468 16.684C91.0588 16.684 90.5788 16.9 90.2188 17.308C89.8588 17.728 89.6788 18.268 89.6788 18.928C89.6788 19.6 89.8588 20.152 90.2188 20.572C90.5788 20.992 91.0588 21.196 91.6468 21.196C92.0908 21.196 92.4628 21.088 92.7748 20.848C93.0748 20.62 93.2668 20.296 93.3628 19.888H94.3468C94.2148 20.572 93.9148 21.112 93.4468 21.496ZM100.285 16.48C100.741 16.936 100.969 17.632 100.969 18.592V22H99.9845V18.652C99.9845 18.028 99.8405 17.548 99.5525 17.212C99.2645 16.876 98.8445 16.708 98.3165 16.708C97.7405 16.708 97.2965 16.912 96.9605 17.308C96.6245 17.716 96.4685 18.256 96.4685 18.94V22H95.4845V13.6H96.4685V16.888C96.6605 16.576 96.9245 16.312 97.2605 16.108C97.5965 15.916 98.0045 15.808 98.4845 15.808C99.2285 15.808 99.8285 16.036 100.285 16.48ZM110.631 15.88V22H109.779L109.647 21.184C109.179 21.784 108.531 22.072 107.691 22.072C106.959 22.072 106.371 21.856 105.939 21.4C105.495 20.956 105.279 20.248 105.279 19.288V15.88H106.263V19.228C106.263 19.864 106.395 20.344 106.671 20.68C106.947 21.016 107.343 21.172 107.859 21.172C108.411 21.172 108.855 20.98 109.167 20.572C109.479 20.176 109.647 19.636 109.647 18.94V15.88H110.631ZM112.741 19.984C112.753 20.356 112.909 20.656 113.221 20.884C113.533 21.124 113.929 21.232 114.421 21.232C114.853 21.232 115.201 21.148 115.465 20.98C115.729 20.812 115.873 20.584 115.873 20.296C115.873 20.056 115.801 19.876 115.681 19.744C115.549 19.624 115.381 19.528 115.177 19.48C114.973 19.432 114.685 19.384 114.313 19.336C113.785 19.276 113.353 19.192 113.017 19.084C112.681 18.988 112.405 18.82 112.201 18.592C111.985 18.364 111.889 18.052 111.889 17.644C111.889 17.284 111.985 16.972 112.189 16.684C112.393 16.408 112.669 16.192 113.029 16.036C113.377 15.88 113.773 15.796 114.217 15.796C114.937 15.796 115.513 15.964 115.969 16.3C116.425 16.636 116.677 17.116 116.725 17.74H115.741C115.693 17.428 115.537 17.164 115.273 16.948C114.997 16.744 114.661 16.636 114.253 16.636C113.833 16.636 113.497 16.732 113.245 16.9C112.981 17.068 112.861 17.296 112.861 17.572C112.861 17.788 112.921 17.944 113.041 18.052C113.161 18.172 113.305 18.244 113.497 18.28C113.689 18.328 113.977 18.364 114.361 18.412C114.889 18.484 115.333 18.568 115.681 18.676C116.029 18.796 116.305 18.976 116.521 19.216C116.737 19.468 116.845 19.804 116.845 20.224C116.845 20.596 116.737 20.92 116.521 21.196C116.305 21.484 116.005 21.7 115.645 21.844C115.273 22 114.865 22.072 114.421 22.072C113.617 22.072 112.969 21.892 112.489 21.52C112.009 21.16 111.757 20.644 111.757 19.984H112.741ZM122.338 21.676C121.882 21.412 121.522 21.052 121.27 20.572C121.006 20.104 120.886 19.564 120.886 18.94C120.886 18.328 121.006 17.788 121.27 17.308C121.522 16.84 121.882 16.468 122.338 16.204C122.794 15.94 123.322 15.808 123.922 15.808C124.51 15.808 125.038 15.94 125.494 16.204C125.95 16.468 126.31 16.84 126.574 17.308C126.826 17.788 126.958 18.328 126.958 18.94C126.958 19.564 126.826 20.104 126.574 20.572C126.31 21.052 125.95 21.412 125.494 21.676C125.038 21.94 124.51 22.072 123.922 22.072C123.322 22.072 122.794 21.94 122.338 21.676ZM124.978 20.908C125.29 20.716 125.53 20.452 125.698 20.104C125.866 19.768 125.95 19.372 125.95 18.94C125.95 18.508 125.866 18.124 125.698 17.776C125.53 17.44 125.29 17.164 124.978 16.972C124.666 16.78 124.318 16.684 123.922 16.684C123.514 16.684 123.166 16.78 122.854 16.972C122.542 17.164 122.314 17.44 122.146 17.776C121.978 18.124 121.894 18.508 121.894 18.94C121.894 19.372 121.978 19.768 122.146 20.104C122.314 20.452 122.542 20.716 122.854 20.908C123.166 21.1 123.514 21.196 123.922 21.196C124.318 21.196 124.666 21.1 124.978 20.908ZM132.874 16.48C133.33 16.936 133.558 17.632 133.558 18.592V22H132.574V18.652C132.574 18.028 132.43 17.548 132.142 17.212C131.854 16.876 131.446 16.708 130.918 16.708C130.342 16.708 129.886 16.912 129.562 17.308C129.226 17.716 129.07 18.256 129.07 18.94V22H128.086V15.88H128.938L129.07 16.708C129.526 16.108 130.198 15.808 131.086 15.808C131.83 15.808 132.418 16.036 132.874 16.48Z" fill="#ABB3B8"></path><path d="M68.342 31.4L70.502 31.382L73.184 41.372L75.992 31.4H77.954L80.672 41.372L83.39 31.4H85.496L81.896 44H79.466L76.892 34.73L74.372 44H71.942L68.342 31.4ZM94.3198 35.684C95.0038 36.368 95.3638 37.448 95.3638 38.924V44H93.4198V39.032C93.4198 38.168 93.2218 37.502 92.8438 37.034C92.4658 36.584 91.9258 36.35 91.2058 36.35C90.4318 36.35 89.8198 36.62 89.3878 37.16C88.9558 37.7 88.7398 38.42 88.7398 39.338V44H86.7958V31.4H88.7398V36.116C89.4238 35.162 90.3958 34.676 91.6378 34.676C92.7358 34.676 93.6358 35.018 94.3198 35.684ZM105.952 42.308V44H104.926C104.314 44 103.882 43.874 103.63 43.622C103.36 43.37 103.234 43.01 103.234 42.524C102.532 43.586 101.524 44.108 100.192 44.108C99.1477 44.108 98.3197 43.874 97.7077 43.388C97.0777 42.92 96.7717 42.254 96.7717 41.408C96.7717 40.472 97.0957 39.734 97.7797 39.23C98.4457 38.726 99.4177 38.456 100.714 38.456H103.036V37.898C103.036 37.394 102.856 36.98 102.496 36.692C102.136 36.404 101.632 36.242 101.002 36.242C100.426 36.242 99.9577 36.368 99.5977 36.62C99.2377 36.872 99.0217 37.196 98.9497 37.592H97.0417C97.1317 36.674 97.5457 35.954 98.2657 35.45C98.9857 34.946 99.9217 34.676 101.092 34.676C102.316 34.676 103.27 34.964 103.954 35.54C104.62 36.116 104.962 36.944 104.962 38.024V41.66C104.962 42.092 105.16 42.308 105.574 42.308H105.952ZM103.036 39.896H100.624C100.012 39.896 99.5617 40.022 99.2377 40.256C98.9137 40.49 98.7517 40.832 98.7517 41.282C98.7517 41.678 98.8957 42.002 99.2017 42.236C99.5077 42.488 99.9217 42.596 100.462 42.596C101.254 42.596 101.884 42.38 102.334 41.948C102.784 41.516 103.018 40.94 103.036 40.22V39.896ZM107.605 36.494H106.003V34.784H107.605V32.21H109.567V34.784H111.781V36.494H109.567V41.3C109.567 41.66 109.639 41.93 109.783 42.074C109.927 42.218 110.161 42.29 110.521 42.29H111.997V44H110.125C109.243 44 108.595 43.802 108.199 43.388C107.803 42.992 107.605 42.362 107.605 41.498V36.494ZM114.588 40.958C114.624 41.444 114.84 41.84 115.254 42.146C115.668 42.452 116.208 42.596 116.874 42.596C117.45 42.596 117.936 42.488 118.296 42.272C118.656 42.056 118.854 41.75 118.854 41.372C118.854 41.066 118.764 40.832 118.602 40.67C118.422 40.526 118.206 40.418 117.918 40.346C117.63 40.274 117.198 40.202 116.622 40.13C115.812 40.04 115.146 39.914 114.624 39.752C114.102 39.59 113.688 39.338 113.364 38.978C113.04 38.618 112.896 38.15 112.896 37.538C112.896 36.98 113.04 36.476 113.364 36.044C113.688 35.612 114.12 35.27 114.678 35.018C115.236 34.784 115.866 34.658 116.586 34.658C117.738 34.658 118.692 34.928 119.412 35.432C120.132 35.954 120.528 36.674 120.6 37.61H118.71C118.656 37.196 118.44 36.854 118.08 36.584C117.702 36.314 117.234 36.17 116.676 36.17C116.1 36.17 115.65 36.278 115.308 36.494C114.948 36.71 114.786 37.016 114.786 37.376C114.786 37.664 114.858 37.862 115.038 38.006C115.218 38.15 115.434 38.24 115.704 38.294C115.956 38.348 116.388 38.402 116.982 38.474C117.774 38.564 118.44 38.69 118.98 38.87C119.52 39.05 119.952 39.32 120.276 39.698C120.6 40.076 120.762 40.58 120.762 41.228C120.762 41.804 120.582 42.326 120.258 42.758C119.916 43.19 119.448 43.532 118.872 43.766C118.278 44 117.612 44.108 116.892 44.108C115.65 44.108 114.642 43.838 113.886 43.28C113.13 42.722 112.734 41.948 112.716 40.958H114.588ZM121.529 44L126.245 31.4H128.711L133.409 44H131.195L130.007 40.886H124.841L123.671 44H121.529ZM125.417 39.122H129.431L127.415 33.632L125.417 39.122ZM141.685 35.252C142.333 35.63 142.855 36.17 143.233 36.89C143.593 37.61 143.791 38.438 143.791 39.392C143.791 40.328 143.593 41.156 143.233 41.876C142.855 42.596 142.333 43.136 141.685 43.532C141.019 43.928 140.263 44.108 139.435 44.108C138.751 44.108 138.157 43.982 137.653 43.73C137.149 43.478 136.735 43.136 136.447 42.704V47.6H134.503V34.784H136.195L136.429 36.152C137.167 35.18 138.175 34.676 139.435 34.676C140.263 34.676 141.019 34.874 141.685 35.252ZM141.055 41.606C141.559 41.03 141.811 40.292 141.811 39.392C141.811 38.492 141.559 37.754 141.055 37.178C140.551 36.62 139.903 36.332 139.111 36.332C138.301 36.332 137.653 36.62 137.167 37.178C136.663 37.736 136.429 38.456 136.429 39.356C136.429 40.292 136.663 41.03 137.167 41.606C137.653 42.182 138.301 42.47 139.111 42.47C139.903 42.47 140.551 42.182 141.055 41.606ZM152.531 35.252C153.179 35.63 153.701 36.17 154.079 36.89C154.439 37.61 154.637 38.438 154.637 39.392C154.637 40.328 154.439 41.156 154.079 41.876C153.701 42.596 153.179 43.136 152.531 43.532C151.865 43.928 151.109 44.108 150.281 44.108C149.597 44.108 149.003 43.982 148.499 43.73C147.995 43.478 147.581 43.136 147.293 42.704V47.6H145.349V34.784H147.041L147.275 36.152C148.013 35.18 149.021 34.676 150.281 34.676C151.109 34.676 151.865 34.874 152.531 35.252ZM151.901 41.606C152.405 41.03 152.657 40.292 152.657 39.392C152.657 38.492 152.405 37.754 151.901 37.178C151.397 36.62 150.749 36.332 149.957 36.332C149.147 36.332 148.499 36.62 148.013 37.178C147.509 37.736 147.275 38.456 147.275 39.356C147.275 40.292 147.509 41.03 148.013 41.606C148.499 42.182 149.147 42.47 149.957 42.47C150.749 42.47 151.397 42.182 151.901 41.606Z" fill="white"></path><defs><linearGradient id="paint0_linear_4333_35936" x1="117.418" y1="23.0389" x2="-11.6943" y2="29.4527" gradientUnits="userSpaceOnUse"><stop stop-color="#B675FF"></stop><stop offset="1" stop-color="#FF2377"></stop></linearGradient><linearGradient id="paint1_linear_4333_35936" x1="46.4796" y1="26.9445" x2="32.7824" y2="27.1533" gradientUnits="userSpaceOnUse"><stop stop-color="#B675FF"></stop><stop offset="1" stop-color="#FF2377"></stop></linearGradient></defs></svg>