<svg xmlns="http://www.w3.org/2000/svg" xmlns:xlink="http://www.w3.org/1999/xlink" x="0px" y="0px" viewBox="0 0 410.4 149" style="enable-background:new 0 0 410.4 149;" xml:space="preserve"><style type="text/css">	.st0{clip-path:url(#SVGID_2_);}	.st1{fill:#071689;}	.st2{fill-rule:evenodd;clip-rule:evenodd;fill:#6BABE5;}	.st3{clip-path:url(#SVGID_4_);fill-rule:evenodd;clip-rule:evenodd;fill:#071689;}	.st4{fill:none;}	.st5{font-family:'BrandonGrotesque-Regular';}	.st6{font-size:11px;}</style>	<g id="Stacked"></g><g id="Horiz">	<g>		<defs>			<rect id="SVGID_1_" y="0" width="410.4" height="149"></rect>		</defs>		<clipPath id="SVGID_2_">			<use xlink:href="#SVGID_1_" style="overflow:visible;"></use>		</clipPath>		<g class="st0">			<g id="Brandon_4_">				<g>					<path class="st1" d="M157.7,82.4c-0.2-0.2-0.6-0.3-1,0c-1.5,1.2-3.2,1.9-5,1.9c-4.1,0-7.3-3.3-7.3-7.5c0-4.3,3.2-7.6,7.3-7.6      c1.8,0,3.6,0.7,5,1.9c0.2,0.2,0.3,0.2,0.5,0.2c0.2,0,0.3-0.1,0.5-0.2l2-2.1c0.1-0.1,0.2-0.3,0.2-0.5c0-0.2-0.1-0.4-0.3-0.5      c-2.4-2.1-4.9-3.1-8.1-3.1c-6.6,0-12,5.4-12,12c0,3.2,1.2,6.2,3.5,8.5c2.3,2.2,5.3,3.5,8.5,3.5c3.1,0,5.9-1.1,8.1-3.2      c0.2-0.2,0.2-0.4,0.2-0.6c0-0.2-0.1-0.3-0.2-0.4L157.7,82.4z"></path>					<path class="st1" d="M203.5,74.5h-8c-0.4,0-0.7,0.3-0.7,0.7v2.7c0,0.4,0.3,0.7,0.7,0.7h4.2v4.8c-0.6,0.3-2,0.8-3.8,0.8      c-4,0-7.3-3.3-7.3-7.5c0-4.2,3.3-7.6,7.3-7.6c1.8,0,3.5,0.7,4.9,1.9c0.3,0.3,0.7,0.3,1,0l2-2.1c0.1-0.1,0.2-0.3,0.2-0.5      c0-0.2-0.1-0.4-0.2-0.5c-2.3-2-5.2-3.1-8.1-3.1c-6.6,0-11.9,5.4-11.9,12c0,3.2,1.2,6.2,3.5,8.5c2.2,2.2,5.2,3.5,8.5,3.5      c4.8,0,8.2-2.1,8.2-2.2c0.2-0.1,0.3-0.4,0.3-0.6V75.2C204.2,74.8,203.9,74.5,203.5,74.5z"></path>					<path class="st1" d="M220,65.1h-13.4c-0.4,0-0.7,0.3-0.7,0.7v21.8c0,0.4,0.3,0.7,0.7,0.7H220c0.4,0,0.7-0.3,0.7-0.7V85      c0-0.4-0.3-0.7-0.7-0.7h-9.7v-5.6h8.1c0.4,0,0.7-0.3,0.7-0.7v-2.7c0-0.4-0.3-0.7-0.7-0.7h-8.1v-5.2h9.7c0.4,0,0.7-0.3,0.7-0.7      v-2.7C220.7,65.4,220.4,65.1,220,65.1z"></path>					<path class="st1" d="M241.1,65.1h-3c-0.4,0-0.7,0.3-0.7,0.7v13.4l-13.6-14.4l0,0h-0.9c-0.4,0-0.7,0.3-0.7,0.7v22.2      c0,0.4,0.3,0.7,0.7,0.7h3c0.4,0,0.7-0.3,0.7-0.7v-14l13.7,15l0,0h0.8c0.4,0,0.7-0.3,0.7-0.7V65.8      C241.8,65.4,241.5,65.1,241.1,65.1z"></path>					<path class="st1" d="M261.2,82.4c-0.2-0.2-0.6-0.3-1,0c-1.5,1.2-3.2,1.9-5,1.9c-4.1,0-7.3-3.3-7.3-7.5c0-4.3,3.2-7.6,7.3-7.6      c1.8,0,3.6,0.7,5,1.9c0.2,0.2,0.3,0.2,0.5,0.2c0.2,0,0.3-0.1,0.5-0.2l2-2.1c0.1-0.1,0.2-0.3,0.2-0.5c0-0.2-0.1-0.4-0.3-0.5      c-2.4-2.1-4.9-3.1-8.1-3.1c-6.6,0-12,5.4-12,12c0,3.2,1.2,6.2,3.5,8.5c2.3,2.2,5.3,3.5,8.5,3.5c3.1,0,5.9-1.1,8.1-3.2      c0.2-0.2,0.2-0.4,0.2-0.6c0-0.2-0.1-0.3-0.2-0.4L261.2,82.4z"></path>					<path class="st1" d="M282.8,65.5c-0.1-0.2-0.4-0.4-0.6-0.4h-3.4c-0.2,0-0.4,0.1-0.6,0.3l-5.2,7.5l-5.2-7.5      c-0.2-0.2-0.4-0.3-0.6-0.3h-3.4c-0.3,0-0.5,0.1-0.6,0.4c-0.1,0.2-0.1,0.5,0,0.8l7.5,11v10.5c0,0.4,0.3,0.7,0.7,0.7h3      c0.4,0,0.7-0.3,0.7-0.7V77.2l7.6-11C282.9,66,282.9,65.7,282.8,65.5z"></path>					<path class="st1" d="M299.7,75.5H294c-0.4,0-0.7,0.3-0.7,0.7v1.2c0,0.4,0.3,0.7,0.7,0.7h3.7l0,6.7c-0.3,0.2-2.6,1.3-5.8,1.3      c-5,0-9.1-4.2-9.1-9.4c0-5.2,4.1-9.4,9.1-9.4c2,0,4.4,1,6.2,2.5c0.2,0.2,0.4,0.3,0.5,0.3c0,0,0,0,0,0c0.1,0,0.3-0.1,0.4-0.3      c0.2-0.2,0.4-0.4,0.6-0.6c0.1-0.1,0.2-0.2,0.3-0.3c0.3-0.3,0.3-0.8,0-1.1c-2.5-2.1-5-3.1-8.1-3.1c-6.6,0-12,5.4-12,12      c0,3.2,1.2,6.2,3.5,8.5c2.3,2.2,5.3,3.5,8.5,3.5c4.8,0,8.2-2.2,8.2-2.2c0.2-0.1,0.3-0.4,0.3-0.6l0-9.8      C300.4,75.8,300,75.5,299.7,75.5z"></path>					<path class="st1" d="M313.8,86h-9.4V65.8c0-0.4-0.3-0.7-0.7-0.7h-1.3c-0.4,0-0.7,0.3-0.7,0.7v21.8c0,0.4,0.3,0.7,0.7,0.7h11.4      c0.4,0,0.7-0.3,0.7-0.7v-1C314.5,86.3,314.2,86,313.8,86z"></path>					<path class="st1" d="M324.1,64.8c-3.2,0-6.2,1.2-8.5,3.5c-2.2,2.3-3.5,5.3-3.5,8.5c0,6.7,5.2,11.9,11.9,11.9      c3.2,0,6.2-1.2,8.5-3.5c2.3-2.2,3.5-5.3,3.5-8.5C336,70.2,330.7,64.8,324.1,64.8z M333.5,76.8c0,5.2-4.2,9.4-9.5,9.4      c-5.2,0-9.4-4.2-9.4-9.4c0-5.2,4.2-9.5,9.4-9.5C329.3,67.3,333.5,71.6,333.5,76.8z"></path>					<path class="st1" d="M348.7,76.5c1.5-0.9,3.1-2.8,3.1-5.3c0-3.6-2.9-6.2-6.9-6.2h-7.2c-0.4,0-0.7,0.3-0.7,0.7v21.8      c0,0.4,0.3,0.7,0.7,0.7h7.5c4.3,0,7.3-2.7,7.3-6.5C352.5,78.7,350,77.1,348.7,76.5z M344.9,75.5h-5.3v-7.9h5.3      c2.4,0,3.9,1.4,3.9,3.9C348.8,73.9,347.3,75.5,344.9,75.5z M345.5,86h-5.9v-8.1h5.3c2.6,0,4.6,1.7,4.6,4      C349.6,84.2,347.8,86,345.5,86z"></path>					<path class="st1" d="M362.9,65.2c-0.1-0.3-0.4-0.4-0.6-0.4H362c-0.3,0-0.5,0.1-0.7,0.4l-10,22.2c-0.1,0.2-0.1,0.5,0,0.7      c0.1,0.2,0.4,0.3,0.6,0.3h1.3c0.3,0,0.6-0.2,0.7-0.4l2.4-5.4h11.6l2.4,5.4c0.1,0.2,0.3,0.4,0.7,0.4h1.3c0.3,0,0.5-0.1,0.6-0.3      c0.1-0.2,0.1-0.4,0-0.7L362.9,65.2z M366.9,80.4h-9.6l4.7-10.6h0.1c0.8,1.8,1.6,3.6,2.4,5.4C365.3,76.9,366.1,78.6,366.9,80.4z      "></path>					<path class="st1" d="M385.8,86h-9.4V65.8c0-0.4-0.3-0.7-0.7-0.7h-1.3c-0.4,0-0.7,0.3-0.7,0.7v21.8c0,0.4,0.3,0.7,0.7,0.7h11.4      c0.4,0,0.7-0.3,0.7-0.7v-1C386.5,86.3,386.2,86,385.8,86z"></path>					<path class="st1" d="M171,64.8c-3.2,0-6.2,1.2-8.5,3.5c-2.2,2.3-3.5,5.3-3.5,8.5c0,6.7,5.2,11.9,11.9,11.9      c3.2,0,6.2-1.2,8.5-3.5c2.2-2.2,3.5-5.2,3.5-8.5C183,70.2,177.6,64.8,171,64.8z M171,69.3c4.1,0,7.5,3.4,7.5,7.5      c0,4.1-3.4,7.4-7.5,7.4c-4.1,0-7.4-3.3-7.4-7.4C163.6,72.6,166.9,69.3,171,69.3z"></path>				</g>			</g>			<g>				<path class="st2" d="M116.2,54c3.7-0.1,5,1.7,6,3.6c0.9,1.6,2.1,5.1,0,11.7c2.5-3,2.6-7,2.6-7s-0.2-1.2-0.6-3.2     c-0.4-2-1-4.5-5.1-10.4c-2.4-3.2-7.9-9.3-18.1-8.2c-9.1,1-10.6,9.8-10.2,12.9c0.7,6.2,6.1,11.6,12.4,11.5     c4.9-0.1,6.6-2.4,6.9-5.8C110.1,56.2,112.7,54.1,116.2,54z"></path>				<g>					<defs>						<path id="SVGID_3_" d="M126.4,76.5c-1.1,28.1-24.9,49.9-53.2,48.8s-50.3-24.7-49.2-52.8c1.1-28.1,24.9-49.9,53.2-48.8       S127.5,48.5,126.4,76.5z"></path>					</defs>					<clipPath id="SVGID_4_">						<use xlink:href="#SVGID_3_" style="overflow:visible;"></use>					</clipPath>					<path class="st3" d="M136.8,37.4C116.1,3.7,75.5-9.1,46.1,8.7C16.8,26.5,9.7,68.2,30.4,101.8c20.7,33.6,61.3,46.5,90.7,28.7      C150.5,112.7,157.6,71,136.8,37.4z M110.3,107.5c-18.8,11.4-44.7,3.2-57.9-18.3c-13.2-21.5-8.7-48.1,10-59.4      c18.8-11.4,44.7-3.2,57.9,18.3C133.6,69.6,129.1,96.2,110.3,107.5z M111.8,94.4c-14.8,8.9-35.4,2.1-46.1-15.3      C54.9,61.7,58.2,40.3,73,31.4c8.6-5.2,19.1-5,28.6-0.6c-5.2-1-10.4-0.2-15,2.5c-10.8,6.6-13.4,21.9-5.8,34.3      c7.6,12.4,22.6,17.1,33.4,10.6c6.5-4,10.5-11.7,10-19C127.5,73.3,123.1,87.6,111.8,94.4z"></path>				</g>			</g>		</g>	</g>	<rect x="381.9" y="65.2" class="st4" width="9.1" height="9.9"></rect>	<text transform="matrix(1 0 0 1 381.9024 72.9302)" class="st1 st5 st6">®</text></g></svg>