<?xml version="1.0" encoding="utf-8"?>
<!-- Generator: Adobe Illustrator 25.2.1, SVG Export Plug-In . SVG Version: 6.00 Build 0)  -->
<svg version="1.1" id="Layer_1" xmlns="http://www.w3.org/2000/svg" xmlns:xlink="http://www.w3.org/1999/xlink" x="0px" y="0px"
	 viewBox="0 0 133.08 139.77" style="enable-background:new 0 0 133.08 139.77;" xml:space="preserve">
<style type="text/css">
	.st0{fill:#FFB020;}
	.st1{fill:#2DB493;}
	.st2{fill:#363B64;}
</style>
<g>
	<circle class="st0" cx="116.83" cy="110.81" r="11.72"/>
	<g>
		<polygon class="st1" points="107.36,103.18 38.66,103.18 38.66,45.25 67.46,45.25 67.46,49.29 42.7,49.29 42.7,99.14 
			103.32,99.14 103.32,49.29 82.7,49.29 82.7,45.25 107.36,45.25 		"/>
		<g>
			<path class="st2" d="M31.02,114.85H4.53V33.58h26.49V114.85z M8.57,110.81h18.41V37.62H8.57V110.81z"/>
			<path class="st2" d="M23.84,100.93H11.72V83.42h12.12V100.93z M15.76,96.89h4.04v-9.43h-4.04V96.89z"/>
			<path class="st2" d="M23.84,65.01H11.72V47.5h12.12V65.01z M15.76,60.97h4.04v-9.43h-4.04V60.97z"/>
			<path class="st2" d="M17.78,80.28c-3.34,0-6.06-2.72-6.06-6.06c0-3.34,2.72-6.06,6.06-6.06c3.34,0,6.06,2.72,6.06,6.06
				C23.84,77.56,21.12,80.28,17.78,80.28z M17.78,72.19c-1.11,0-2.02,0.91-2.02,2.02s0.91,2.02,2.02,2.02
				c1.11,0,2.02-0.91,2.02-2.02S18.89,72.19,17.78,72.19z"/>
			<path class="st2" d="M110.73,114.85H26.98V33.58h52.16v4.04H31.02v73.19h79.7c1.14,0,2.21-0.44,3.02-1.25
				c0.8-0.81,1.25-1.88,1.25-3.02V41.88c0-1.14-0.44-2.21-1.25-3.02c-0.81-0.8-1.88-1.25-3.02-1.25H94.38v-4.04h16.35
				c2.22,0,4.3,0.86,5.87,2.43c1.57,1.57,2.43,3.66,2.43,5.88v64.66c0,2.22-0.86,4.3-2.43,5.87
				C115.03,113.99,112.95,114.85,110.73,114.85z"/>
		</g>
		<g>
			<path class="st1" d="M57.19,72.57L57.19,72.57c-1.98,0-3.84-0.77-5.24-2.17c-1.4-1.4-2.17-3.26-2.17-5.24
				c0-1.98,0.77-3.84,2.17-5.24l40.51-40.51c1.4-1.4,3.26-2.17,5.24-2.17c1.98,0,3.84,0.77,5.24,2.17c1.4,1.4,2.17,3.26,2.17,5.24
				c0,1.98-0.77,3.84-2.17,5.24L62.43,70.4C61.03,71.8,59.17,72.57,57.19,72.57z M97.7,21.28c-0.9,0-1.74,0.35-2.38,0.99
				L54.81,62.78c-0.64,0.64-0.99,1.48-0.99,2.38c0,0.9,0.35,1.75,0.99,2.38c0.64,0.63,1.48,0.98,2.37,0.98v2.02l0-2.02
				c0.9,0,1.75-0.35,2.38-0.98l40.52-40.52c0.63-0.63,0.98-1.48,0.98-2.38c0-0.9-0.35-1.74-0.98-2.38
				C99.45,21.63,98.61,21.28,97.7,21.28z"/>
			
				<rect x="92.16" y="22.78" transform="matrix(0.7071 -0.7071 0.7071 0.7071 7.6641 74.849)" class="st1" width="4.04" height="10.78"/>
			
				<rect x="47.06" y="69.57" transform="matrix(0.7072 -0.7071 0.7071 0.7072 -35.7563 56.8579)" class="st1" width="7.41" height="4.04"/>
		</g>
	</g>
</g>
</svg>
