<?xml version="1.0" encoding="utf-8"?>
<!-- Generator: Adobe Illustrator 25.2.1, SVG Export Plug-In . SVG Version: 6.00 Build 0)  -->
<svg version="1.1" id="Layer_1" xmlns="http://www.w3.org/2000/svg" xmlns:xlink="http://www.w3.org/1999/xlink" x="0px" y="0px"
	 viewBox="0 0 133.08 139.77" style="enable-background:new 0 0 133.08 139.77;" xml:space="preserve">
<style type="text/css">
	.st0{fill:#FFB020;}
	.st1{fill:#2DB493;}
	.st2{fill:#363B64;}
</style>
<g>
	<circle class="st0" cx="116.91" cy="37.62" r="11.72"/>
</g>
<g>
	<g>
		<path class="st2" d="M118.14,130.48H40.85V48.7h77.29V130.48z M44.73,126.59h69.52V52.58H44.73V126.59z"/>
		<path class="st2" d="M118.14,52.58H40.85V35.2h77.29V52.58z M44.73,48.7h69.52v-9.61H44.73V48.7z"/>
		<g>
			<rect x="67.4" y="41.95" class="st2" width="3.89" height="3.89"/>
			<rect x="59.63" y="41.95" class="st2" width="3.89" height="3.89"/>
			<rect x="51.86" y="41.95" class="st2" width="3.89" height="3.89"/>
		</g>
	</g>
	<g>
		<rect x="51.86" y="59.57" class="st1" width="12.09" height="3.89"/>
		<rect x="63.95" y="75.62" class="st1" width="13" height="3.89"/>
		<rect x="63.95" y="83.63" class="st1" width="13" height="3.89"/>
		<rect x="63.95" y="107.69" class="st1" width="13" height="3.89"/>
		<rect x="63.95" y="115.71" class="st1" width="13" height="3.89"/>
		<rect x="51.86" y="67.59" class="st1" width="25.09" height="3.89"/>
		<rect x="51.86" y="91.65" class="st1" width="12.09" height="3.89"/>
		<rect x="51.86" y="99.67" class="st1" width="25.09" height="3.89"/>
		<rect x="82.04" y="75.62" class="st1" width="13" height="3.89"/>
		<rect x="82.04" y="83.63" class="st1" width="25.09" height="3.89"/>
		<rect x="82.04" y="67.59" class="st1" width="13" height="3.89"/>
		<rect x="82.04" y="107.69" class="st1" width="13" height="3.89"/>
		<rect x="82.04" y="115.71" class="st1" width="25.09" height="3.89"/>
		<rect x="82.04" y="99.67" class="st1" width="13" height="3.89"/>
	</g>
	<polygon class="st1" points="36.31,117.52 27.89,117.52 27.89,22.25 105.19,22.25 105.19,30.67 101.3,30.67 101.3,26.13 
		31.78,26.13 31.78,113.64 36.31,113.64 	"/>
	<polygon class="st2" points="23.36,104.57 14.94,104.57 14.94,9.29 92.23,9.29 92.23,17.71 88.35,17.71 88.35,13.18 18.82,13.18 
		18.82,100.68 23.36,100.68 	"/>
	<g>
		<polygon class="st1" points="118.14,19.87 114.26,19.87 114.26,13.18 107.56,13.18 107.56,9.29 118.14,9.29 		"/>
		<polygon class="st1" points="25.52,130.48 14.94,130.48 14.94,119.9 18.82,119.9 18.82,126.59 25.52,126.59 		"/>
	</g>
</g>
</svg>
