<?xml version="1.0" encoding="utf-8"?>
<!-- Generator: Adobe Illustrator 25.2.1, SVG Export Plug-In . SVG Version: 6.00 Build 0)  -->
<svg version="1.1" id="Layer_1" xmlns="http://www.w3.org/2000/svg" xmlns:xlink="http://www.w3.org/1999/xlink" x="0px" y="0px"
	 viewBox="0 0 133.08 139.77" style="enable-background:new 0 0 133.08 139.77;" xml:space="preserve">
<style type="text/css">
	.st0{fill:#FFB020;}
	.st1{fill:#2DB493;}
	.st2{fill:#363B64;}
</style>
<g>
	<circle class="st0" cx="117.59" cy="81.66" r="12.79"/>
	<g>
		<path class="st1" d="M62.36,104.82c0.61-0.33,1-0.96,1-1.66c0-0.7-0.38-1.33-1-1.66L42.62,90.98c-0.59-0.31-1.29-0.29-1.85,0.05
			c-0.57,0.34-0.91,0.95-0.91,1.61v21.04c0,0.66,0.35,1.27,0.91,1.61c0.57,0.34,1.28,0.35,1.85,0.05L62.36,104.82z M43.61,95.78
			l13.86,7.39l-13.86,7.39V95.78z"/>
	</g>
	<g>
		<path class="st1" d="M19.36,43.53l1.79-1.96V57.8c0,1.04,0.84,1.88,1.88,1.88c1.04,0,1.88-0.84,1.88-1.88V37.46l6.56-7.18
			l6.55,7.17V57.8c0,1.04,0.84,1.88,1.88,1.88c1.04,0,1.88-0.84,1.88-1.88V41.57l1.79,1.96c0.69,0.76,1.88,0.83,2.66,0.12
			c0.77-0.7,0.82-1.89,0.12-2.66l-13.5-14.77c-0.71-0.78-2.06-0.78-2.78,0l-13.5,14.77c-0.7,0.77-0.65,1.96,0.12,2.66
			C17.47,44.35,18.66,44.3,19.36,43.53z"/>
	</g>
	<g>
		<path class="st1" d="M33.35,40.3c0-1.04-0.84-1.88-1.88-1.88c-1.04,0-1.88,0.84-1.88,1.88v7.07c0,1.04,0.84,1.88,1.88,1.88
			c1.04,0,1.88-0.84,1.88-1.88V40.3z"/>
	</g>
	<g>
		<path class="st1" d="M31.47,50.03c-1.04,0-1.88,0.84-1.88,1.88v1.65c0,1.04,0.84,1.88,1.88,1.88c1.04,0,1.88-0.84,1.88-1.88v-1.65
			C33.35,50.87,32.51,50.03,31.47,50.03z"/>
	</g>
	<g>
		<path class="st1" d="M84.4,43.53l1.79-1.96V57.8c0,1.04,0.84,1.88,1.88,1.88c1.04,0,1.88-0.84,1.88-1.88V37.46l6.56-7.17
			l6.55,7.17V57.8c0,1.04,0.84,1.88,1.88,1.88c1.04,0,1.88-0.84,1.88-1.88V41.57l1.79,1.96c0.69,0.76,1.88,0.83,2.66,0.12
			c0.77-0.7,0.82-1.89,0.12-2.66L97.9,26.23c-0.71-0.78-2.06-0.78-2.78,0l-13.5,14.77c-0.7,0.77-0.65,1.96,0.12,2.66
			C82.51,44.35,83.7,44.3,84.4,43.53z"/>
	</g>
	<g>
		<path class="st1" d="M98.39,47.36V40.3c0-1.04-0.84-1.88-1.88-1.88c-1.04,0-1.88,0.84-1.88,1.88v7.07c0,1.04,0.84,1.88,1.88,1.88
			C97.55,49.24,98.39,48.4,98.39,47.36z"/>
	</g>
	<g>
		<path class="st1" d="M97.51,55.44c1.04,0,1.88-0.84,1.88-1.88v-1.65c0-1.04-0.84-1.88-1.88-1.88c-1.04,0-1.88,0.84-1.88,1.88v1.65
			C95.63,54.6,96.47,55.44,97.51,55.44z"/>
	</g>
	<g>
		<path class="st1" d="M51.88,28.38l1.79-1.96v16.22c0,1.04,0.84,1.88,1.88,1.88c1.04,0,1.88-0.84,1.88-1.88V22.31l6.56-7.17
			l6.55,7.17v20.34c0,1.04,0.84,1.88,1.88,1.88c1.04,0,1.88-0.84,1.88-1.88V26.42l1.79,1.96c0.69,0.76,1.88,0.83,2.66,0.12
			c0.77-0.7,0.82-1.89,0.12-2.66l-13.5-14.77c-0.71-0.78-2.06-0.78-2.78,0L49.1,25.84c-0.7,0.77-0.65,1.96,0.12,2.66
			C49.99,29.2,51.18,29.15,51.88,28.38z"/>
	</g>
	<g>
		<path class="st1" d="M65.87,25.15c0-1.04-0.84-1.88-1.88-1.88c-1.04,0-1.88,0.84-1.88,1.88v7.07c0,1.04,0.84,1.88,1.88,1.88
			c1.04,0,1.88-0.84,1.88-1.88V25.15z"/>
	</g>
	<g>
		<path class="st1" d="M63.99,34.88c-1.04,0-1.88,0.84-1.88,1.88v1.65c0,1.04,0.84,1.88,1.88,1.88c1.04,0,1.88-0.84,1.88-1.88v-1.65
			C65.87,35.72,65.03,34.88,63.99,34.88z"/>
	</g>
	<g>
		<path class="st2" d="M121.18,112.77h-9.48V85.42h9.16c0.67,0,1.3-0.36,1.63-0.95c0.34-0.58,0.33-1.3-0.01-1.89l-11.04-18.88
			c-0.36-0.61-1.07-0.93-1.62-0.93c-28.17,0-66.02,0-94.21,0c-0.57,0-1.27,0.33-1.62,0.93L2.96,82.54c-0.34,0.58-0.35,1.3-0.01,1.89
			c0.34,0.58,0.96,0.95,1.63,0.95h9.16v42.02c0,1.04,0.84,1.88,1.88,1.88c20.92,0,67.49-0.01,105.56-0.01
			c1.04,0,1.88-0.84,1.88-1.88v-12.74C123.06,113.61,122.22,112.77,121.18,112.77z M108.75,66.54l8.84,15.12
			c-6.97,0-11.85,0-18.85,0L87.71,66.54H108.75z M96.27,84.65c0.35,0.49,0.92,0.77,1.52,0.77h10.16v27.35H85.89V70.43L96.27,84.65z
			 M7.86,81.61l8.84-15.07h64.02l-8.83,15.07H7.86z M17.5,85.37h55.47c0.67,0,1.29-0.35,1.62-0.93l7.54-12.87v41.2H63.98
			c-1.04,0-1.88,0.84-1.88,1.88v10.87H17.5V85.37z M119.3,125.5H65.86v-8.98h53.44V125.5z"/>
	</g>
	<g>
		<path class="st2" d="M70.81,122.9h18.21c0.12,0.92,0.88,1.64,1.83,1.64c0.96,0,1.71-0.72,1.83-1.64h2.9
			c1.04,0,1.88-0.84,1.88-1.88c0-1.04-0.84-1.88-1.88-1.88h-2.9c-0.12-0.92-0.88-1.64-1.83-1.64c-0.96,0-1.71,0.72-1.83,1.64H70.81
			c-1.04,0-1.88,0.84-1.88,1.88C68.93,122.05,69.77,122.9,70.81,122.9z"/>
	</g>
	<g>
		<path class="st2" d="M104.4,122.9h0.8c1.04,0,1.88-0.84,1.88-1.88c0-1.04-0.84-1.88-1.88-1.88h-0.8c-1.04,0-1.88,0.84-1.88,1.88
			C102.52,122.05,103.36,122.9,104.4,122.9z"/>
	</g>
	<g>
		<path class="st2" d="M112.9,122.9h0.8c1.04,0,1.88-0.84,1.88-1.88c0-1.04-0.84-1.88-1.88-1.88h-0.8c-1.04,0-1.88,0.84-1.88,1.88
			C111.02,122.05,111.86,122.9,112.9,122.9z"/>
	</g>
</g>
</svg>
