<?xml version="1.0" encoding="utf-8"?>
<!-- Generator: Adobe Illustrator 25.2.1, SVG Export Plug-In . SVG Version: 6.00 Build 0)  -->
<svg version="1.1" id="Layer_1" xmlns="http://www.w3.org/2000/svg" xmlns:xlink="http://www.w3.org/1999/xlink" x="0px" y="0px"
	 viewBox="0 0 133.08 139.77" style="enable-background:new 0 0 133.08 139.77;" xml:space="preserve">
<style type="text/css">
	.st0{fill:#FFB020;}
	.st1{fill:#2DB493;}
	.st2{fill:#363B64;}
</style>
<g>
	<circle class="st0" cx="96.23" cy="24.84" r="14.95"/>
	<g>
		<path class="st2" d="M108.26,125.61H23.57V23.2h84.69V125.61z M28.11,121.07h75.6V27.75h-75.6V121.07z"/>
		<path class="st1" d="M65.91,96.16c-12,0-21.75-9.76-21.75-21.75c0-12,9.76-21.75,21.75-21.75c12,0,21.75,9.76,21.75,21.75
			C87.67,86.4,77.91,96.16,65.91,96.16z M65.91,57.2c-9.49,0-17.21,7.72-17.21,17.21s7.72,17.21,17.21,17.21s17.21-7.72,17.21-17.21
			S75.41,57.2,65.91,57.2z"/>
		<polygon class="st1" points="62.72,68.35 73.21,74.41 62.72,80.46 		"/>
		<g>
			<g>
				<polygon class="st2" points="28.11,125.61 23.57,125.61 23.57,107.4 7.63,107.4 7.63,125.61 3.09,125.61 3.09,102.86 
					28.11,102.86 				"/>
				<path class="st2" d="M28.11,107.4H3.09V82.38h25.02V107.4z M7.63,102.86h15.94V86.92H7.63V102.86z"/>
				<path class="st2" d="M28.11,86.92H3.09V61.9h25.02V86.92z M7.63,82.38h15.94V66.44H7.63V82.38z"/>
				<path class="st2" d="M28.11,66.44H3.09V41.42h25.02V66.44z M7.63,61.9h15.94V45.96H7.63V61.9z"/>
				<polygon class="st2" points="28.11,45.96 3.09,45.96 3.09,23.2 7.63,23.2 7.63,41.42 23.57,41.42 23.57,23.2 28.11,23.2 				"/>
			</g>
			<g>
				<polygon class="st2" points="128.74,125.61 124.2,125.61 124.2,107.4 108.26,107.4 108.26,125.61 103.72,125.61 103.72,102.86 
					128.74,102.86 				"/>
				<path class="st2" d="M128.74,107.4h-25.02V82.38h25.02V107.4z M108.26,102.86h15.94V86.92h-15.94V102.86z"/>
				<path class="st2" d="M128.74,86.92h-25.02V61.9h25.02V86.92z M108.26,82.38h15.94V66.44h-15.94V82.38z"/>
				<path class="st2" d="M128.74,66.44h-25.02V41.42h25.02V66.44z M108.26,61.9h15.94V45.96h-15.94V61.9z"/>
				<polygon class="st2" points="128.74,45.96 103.72,45.96 103.72,23.2 108.26,23.2 108.26,41.42 124.2,41.42 124.2,23.2 
					128.74,23.2 				"/>
			</g>
		</g>
	</g>
</g>
</svg>
