<?xml version="1.0" encoding="utf-8"?>
<!-- Generator: Adobe Illustrator 25.2.1, SVG Export Plug-In . SVG Version: 6.00 Build 0)  -->
<svg version="1.1" id="Layer_1" xmlns="http://www.w3.org/2000/svg" xmlns:xlink="http://www.w3.org/1999/xlink" x="0px" y="0px"
	 viewBox="0 0 133.08 139.77" style="enable-background:new 0 0 133.08 139.77;" xml:space="preserve">
<style type="text/css">
	.st0{fill:#FFB020;}
	.st1{fill:#2DB493;}
	.st2{fill:#363B64;}
</style>
<circle class="st0" cx="112.98" cy="104.57" r="14.95"/>
<g>
	<g>
		<polygon class="st2" points="85.23,125.41 47.85,125.41 47.85,113.05 51.92,113.05 51.92,121.33 81.16,121.33 81.16,113.05 
			85.23,113.05 		"/>
		<rect x="40.38" y="121.33" class="st2" width="52.32" height="4.08"/>
		<path class="st2" d="M125.2,95.16H7.88V20.4c0-1.61,0.62-3.12,1.76-4.26c1.15-1.15,2.67-1.77,4.27-1.77h105.26
			c1.62,0,3.13,0.63,4.27,1.77c1.14,1.14,1.77,2.66,1.77,4.26V95.16z M11.95,91.08h109.17V20.4c0-0.52-0.2-1.01-0.58-1.39
			c-0.37-0.37-0.86-0.57-1.38-0.57H13.91c-0.52,0-1.02,0.2-1.39,0.58c-0.36,0.37-0.57,0.86-0.57,1.38V91.08z"/>
		<path class="st2" d="M119.17,108.48H13.91c-1.62,0-3.14-0.63-4.27-1.77c-1.13-1.12-1.76-2.64-1.76-4.26V91.08H125.2v11.36
			c0,1.62-0.63,3.14-1.77,4.27C122.31,107.85,120.79,108.48,119.17,108.48z M11.95,95.16v7.29c0,0.53,0.2,1.01,0.57,1.38
			c0.37,0.38,0.86,0.58,1.39,0.58h105.26c0.53,0,1.01-0.2,1.37-0.57c0.38-0.38,0.58-0.87,0.58-1.39v-7.29H11.95z"/>
	</g>
	<g>
		<g>
			<g>
				<polygon class="st1" points="103.58,65.41 88.03,65.41 88.03,44.12 103.58,44.12 103.58,48.19 92.1,48.19 92.1,61.33 
					103.58,61.33 				"/>
				<rect x="88.03" y="52.72" class="st1" width="9.81" height="4.08"/>
			</g>
			<path class="st1" d="M58.22,65.41h-2.87c-1.69,0-3.29-0.66-4.49-1.86c-1.2-1.2-1.86-2.79-1.86-4.48v-8.61
				c0-1.69,0.66-3.29,1.86-4.48s2.79-1.86,4.49-1.86h2.87c1.69,0,3.29,0.66,4.49,1.86c1.2,1.2,1.86,2.79,1.86,4.48v8.61
				c0,1.69-0.66,3.29-1.86,4.48C61.51,64.75,59.91,65.41,58.22,65.41z M55.35,48.19c-0.61,0-1.17,0.24-1.6,0.66
				c-0.43,0.43-0.66,1-0.66,1.6v8.61c0,0.6,0.23,1.17,0.66,1.6c0.43,0.43,1,0.66,1.6,0.66h2.87c0.6,0,1.17-0.24,1.6-0.66
				c0.43-0.43,0.66-1,0.66-1.6v-8.61c0-0.6-0.24-1.17-0.66-1.6c-0.43-0.43-1-0.66-1.6-0.66H55.35z"/>
			<path class="st1" d="M38.71,65.41h-2.87c-1.69,0-3.29-0.66-4.49-1.86c-1.2-1.2-1.86-2.79-1.86-4.48v-8.61
				c0-1.69,0.66-3.29,1.86-4.48c1.2-1.2,2.79-1.86,4.49-1.86h2.87c1.69,0,3.29,0.66,4.48,1.86c1.2,1.2,1.86,2.79,1.86,4.48v2.04
				h-4.08v-2.04c0-0.6-0.24-1.17-0.66-1.6c-0.43-0.43-1-0.66-1.6-0.66h-2.87c-0.6,0-1.17,0.24-1.6,0.66c-0.43,0.43-0.66,1-0.66,1.6
				v8.61c0,0.6,0.24,1.17,0.66,1.6c0.43,0.43,1,0.66,1.6,0.66h2.87c0.6,0,1.17-0.24,1.6-0.66c0.43-0.43,0.66-1,0.66-1.6v-2.04h4.08
				v2.04c0,1.69-0.66,3.29-1.86,4.48C42,64.75,40.4,65.41,38.71,65.41z"/>
			<path class="st1" d="M77.73,65.41h-9.21V44.12h9.21c1.69,0,3.29,0.66,4.48,1.86c1.2,1.2,1.86,2.79,1.86,4.48v8.61
				c0,1.69-0.66,3.29-1.86,4.48C81.01,64.75,79.42,65.41,77.73,65.41z M72.6,61.33h5.13c0.6,0,1.17-0.24,1.6-0.66
				c0.43-0.43,0.66-1,0.66-1.6v-8.61c0-0.6-0.24-1.17-0.66-1.6c-0.43-0.43-1-0.66-1.6-0.66H72.6V61.33z"/>
		</g>
		<g>
			<rect x="72.66" y="24.33" class="st1" width="4.08" height="4.08"/>
			<rect x="64.5" y="24.33" class="st1" width="4.08" height="4.08"/>
			<rect x="56.35" y="24.33" class="st1" width="4.08" height="4.08"/>
		</g>
		<g>
			<rect x="72.66" y="81.12" class="st1" width="4.08" height="4.08"/>
			<rect x="64.5" y="81.12" class="st1" width="4.08" height="4.08"/>
			<rect x="56.35" y="81.12" class="st1" width="4.08" height="4.08"/>
		</g>
		<g>
			<polygon class="st1" points="115.24,39.05 111.16,39.05 111.16,28.41 80.81,28.41 80.81,24.33 115.24,24.33 			"/>
			<polygon class="st1" points="21.92,39.05 17.84,39.05 17.84,24.33 52.27,24.33 52.27,28.41 21.92,28.41 			"/>
			<polygon class="st1" points="115.24,85.19 80.81,85.19 80.81,81.12 111.16,81.12 111.16,70.47 115.24,70.47 			"/>
			<polygon class="st1" points="52.27,85.19 17.84,85.19 17.84,70.47 21.92,70.47 21.92,81.12 52.27,81.12 			"/>
		</g>
	</g>
</g>
</svg>
