<?xml version="1.0" encoding="utf-8"?>
<!-- Generator: Adobe Illustrator 25.2.1, SVG Export Plug-In . SVG Version: 6.00 Build 0)  -->
<svg version="1.1" id="Layer_1" xmlns="http://www.w3.org/2000/svg" xmlns:xlink="http://www.w3.org/1999/xlink" x="0px" y="0px"
	 viewBox="0 0 133.08 139.77" style="enable-background:new 0 0 133.08 139.77;" xml:space="preserve">
<style type="text/css">
	.st0{fill:#FFB020;}
	.st1{fill:#2DB493;}
	.st2{fill:#363B64;}
</style>
<g>
	<circle class="st0" cx="116.09" cy="68.7" r="14.73"/>
	<g>
		<g>
			<polygon class="st2" points="90.35,127.11 5.89,127.11 5.89,25.95 90.35,25.95 90.35,29.78 9.72,29.78 9.72,123.28 90.35,123.28 
							"/>
			<polygon class="st2" points="90.35,29.78 5.89,29.78 5.89,12.65 90.35,12.65 90.35,16.48 9.72,16.48 9.72,25.95 90.35,25.95 			
				"/>
			<g>
				<rect x="29.15" y="19.3" class="st2" width="3.83" height="3.83"/>
				<rect x="21.49" y="19.3" class="st2" width="3.83" height="3.83"/>
				<rect x="13.83" y="19.3" class="st2" width="3.83" height="3.83"/>
			</g>
			<polygon class="st2" points="90.35,119.17 13.83,119.17 13.83,33.89 90.35,33.89 90.35,37.72 17.66,37.72 17.66,115.34 
				90.35,115.34 			"/>
		</g>
		<g>
			<g>
				<g>
					<rect x="41.58" y="44.83" class="st1" width="39.11" height="3.83"/>
					<rect x="41.58" y="53.34" class="st1" width="19.56" height="3.83"/>
					<polygon class="st1" points="29.55,57.6 23.21,51.26 25.91,48.55 29.55,52.18 35.97,45.76 38.68,48.47 					"/>
				</g>
			</g>
			<g>
				<g>
					<rect x="41.58" y="61.85" class="st1" width="39.11" height="3.83"/>
					<rect x="41.58" y="70.36" class="st1" width="19.56" height="3.83"/>
					<polygon class="st1" points="29.55,74.62 23.21,68.28 25.91,65.57 29.55,69.2 35.97,62.78 38.68,65.49 					"/>
				</g>
			</g>
			<g>
				<g>
					<rect x="41.58" y="78.87" class="st1" width="39.11" height="3.83"/>
					<rect x="41.58" y="87.38" class="st1" width="19.56" height="3.83"/>
					<path class="st1" d="M37.11,91.21H24.77V78.87h12.34V91.21z M28.6,87.38h4.68V82.7H28.6V87.38z"/>
				</g>
			</g>
			<g>
				<g>
					<rect x="41.58" y="95.89" class="st1" width="39.11" height="3.83"/>
					<rect x="41.58" y="104.4" class="st1" width="19.56" height="3.83"/>
					<path class="st1" d="M37.11,108.23H24.77V95.89h12.34V108.23z M28.6,104.4h4.68v-4.68H28.6V104.4z"/>
				</g>
			</g>
		</g>
		<g>
			<rect x="104.61" y="27.87" class="st1" width="3.83" height="74.11"/>
			<polygon class="st1" points="106.52,126.9 96.95,110.14 96.95,27.87 100.78,27.87 100.78,109.13 106.52,119.18 112.27,109.13 
				112.27,27.87 116.09,27.87 116.09,110.14 			"/>
			<polygon class="st1" points="112.83,110.99 106.52,104.68 100.22,110.99 97.51,108.28 106.52,99.27 115.53,108.28 			"/>
			<path class="st1" d="M116.09,29.78H96.95V18.4c0-1.53,0.6-2.98,1.68-4.06c1.09-1.09,2.53-1.68,4.06-1.68h7.66
				c1.54,0,2.98,0.6,4.06,1.68c1.09,1.08,1.68,2.53,1.68,4.06V29.78z M100.78,25.95h11.49V18.4c0-0.51-0.2-0.99-0.56-1.35
				c-0.36-0.36-0.84-0.56-1.35-0.56h-7.66c-0.51,0-0.99,0.2-1.35,0.56c-0.36,0.36-0.56,0.84-0.56,1.35V25.95z"/>
		</g>
	</g>
</g>
</svg>
