<?xml version="1.0" encoding="utf-8"?>
<!-- Generator: Adobe Illustrator 25.2.1, SVG Export Plug-In . SVG Version: 6.00 Build 0)  -->
<svg version="1.1" id="Layer_1" xmlns="http://www.w3.org/2000/svg" xmlns:xlink="http://www.w3.org/1999/xlink" x="0px" y="0px"
	 viewBox="0 0 133.08 139.77" style="enable-background:new 0 0 133.08 139.77;" xml:space="preserve">
<style type="text/css">
	.st0{fill:#FFB020;}
	.st1{fill:#2DB493;}
	.st2{fill:#363B64;}
</style>
<circle class="st0" cx="110.2" cy="19.52" r="16.76"/>
<g>
	<path class="st2" d="M114.55,65.07H18.51v-50.2h96.04V65.07z M22.86,60.72h87.33V19.23H22.86V60.72z"/>
	<path class="st2" d="M106.81,57.33H26.25V22.62h80.56V57.33z M30.61,52.98h71.85V26.97H30.61V52.98z"/>
	<g>
		<rect x="64.35" y="69.67" class="st1" width="4.36" height="23.13"/>
		<polygon class="st1" points="114.55,92.8 110.2,92.8 110.2,83.41 22.86,83.41 22.86,92.8 18.51,92.8 18.51,79.06 114.55,79.06 		
			"/>
	</g>
	<g>
		<path class="st1" d="M20.69,126.2c-7.94,0-14.4-6.46-14.4-14.4c0-7.94,6.46-14.4,14.4-14.4s14.4,6.46,14.4,14.4
			C35.09,119.74,28.63,126.2,20.69,126.2z M20.69,101.75c-5.54,0-10.05,4.51-10.05,10.05c0,5.54,4.51,10.05,10.05,10.05
			c5.54,0,10.05-4.51,10.05-10.05C30.73,106.26,26.23,101.75,20.69,101.75z"/>
		<path class="st1" d="M66.53,126.2c-7.94,0-14.4-6.46-14.4-14.4c0-7.94,6.46-14.4,14.4-14.4c7.94,0,14.4,6.46,14.4,14.4
			C80.93,119.74,74.47,126.2,66.53,126.2z M66.53,101.75c-5.54,0-10.05,4.51-10.05,10.05c0,5.54,4.51,10.05,10.05,10.05
			c5.54,0,10.05-4.51,10.05-10.05C76.58,106.26,72.07,101.75,66.53,101.75z"/>
		<path class="st1" d="M112.38,126.2c-7.94,0-14.4-6.46-14.4-14.4c0-7.94,6.46-14.4,14.4-14.4c7.94,0,14.4,6.46,14.4,14.4
			C126.78,119.74,120.32,126.2,112.38,126.2z M112.38,101.75c-5.54,0-10.05,4.51-10.05,10.05c0,5.54,4.51,10.05,10.05,10.05
			c5.54,0,10.05-4.51,10.05-10.05C122.42,106.26,117.92,101.75,112.38,101.75z"/>
	</g>
	<g>
		<rect x="64.35" y="37.8" class="st2" width="4.36" height="4.36"/>
		<rect x="55.64" y="37.8" class="st2" width="4.35" height="4.36"/>
		<rect x="73.06" y="37.8" class="st2" width="4.36" height="4.36"/>
	</g>
</g>
</svg>
