<?xml version="1.0" encoding="utf-8"?>
<!-- Generator: Adobe Illustrator 25.2.1, SVG Export Plug-In . SVG Version: 6.00 Build 0)  -->
<svg version="1.1" id="Layer_1" xmlns="http://www.w3.org/2000/svg" xmlns:xlink="http://www.w3.org/1999/xlink" x="0px" y="0px"
	 viewBox="0 0 133.08 139.77" style="enable-background:new 0 0 133.08 139.77;" xml:space="preserve">
<style type="text/css">
	.st0{fill:#FFB020;}
	.st1{fill:#2DB493;}
	.st2{fill:#363B64;}
</style>
<g>
	<circle class="st0" cx="59.85" cy="95.67" r="17.52"/>
	<g>
		<path class="st1" d="M92.71,81.17c-9.15,0-17.58-4.18-23.13-11.47l3.24-2.47c4.78,6.27,12.03,9.87,19.9,9.87
			c13.79,0,25-11.22,25-25c0-13.79-11.22-25-25-25c-7.87,0-15.12,3.6-19.9,9.87l-3.24-2.47c5.56-7.29,13.99-11.47,23.14-11.47
			c16.03,0,29.07,13.04,29.07,29.07C121.78,68.12,108.74,81.17,92.71,81.17z"/>
		<g>
			<path class="st1" d="M94.47,64.72h-3.53c-1.95,0-3.79-0.76-5.18-2.14c-1.39-1.39-2.15-3.23-2.15-5.19h4.07
				c0,0.87,0.34,1.69,0.96,2.31c0.61,0.61,1.43,0.95,2.3,0.95h3.53c0.87,0,1.69-0.34,2.31-0.96c0.61-0.61,0.95-1.43,0.95-2.31
				c0-0.87-0.34-1.69-0.95-2.3c-0.62-0.62-1.43-0.96-2.31-0.96h-3.53c-1.96,0-3.8-0.76-5.18-2.15c-1.38-1.38-2.14-3.22-2.14-5.18
				c0-1.96,0.76-3.8,2.14-5.18c1.39-1.39,3.23-2.15,5.18-2.15h3.53c1.95,0,3.79,0.76,5.18,2.14c1.39,1.39,2.15,3.23,2.15,5.19h-4.07
				c0-0.87-0.34-1.69-0.95-2.31c-0.62-0.61-1.43-0.95-2.3-0.95h-3.53c-0.87,0-1.69,0.34-2.31,0.96c-0.61,0.61-0.95,1.43-0.95,2.31
				c0,0.87,0.34,1.69,0.95,2.31c0.61,0.62,1.43,0.95,2.3,0.95h3.53c1.96,0,3.81,0.76,5.19,2.15c1.38,1.38,2.14,3.22,2.14,5.17
				c0,1.96-0.76,3.8-2.14,5.18C98.26,63.96,96.43,64.72,94.47,64.72z"/>
			<rect x="90.67" y="37.27" class="st1" width="4.07" height="4.23"/>
			<rect x="90.67" y="62.69" class="st1" width="4.07" height="4.24"/>
		</g>
		<path class="st1" d="M92.7,89.02c-10.59,0-20.68-4.56-27.68-12.51l3.05-2.69c6.23,7.07,15.21,11.13,24.63,11.13
			c18.11,0,32.85-14.74,32.85-32.86c0-18.11-14.74-32.85-32.85-32.85c-9.42,0-18.4,4.05-24.63,11.13l-3.05-2.69
			c7-7.95,17.09-12.51,27.68-12.51c20.36,0,36.92,16.56,36.92,36.92C129.62,72.45,113.06,89.02,92.7,89.02z"/>
	</g>
	<g>
		<path class="st2" d="M40.38,89.02c-20.36,0-36.92-16.56-36.92-36.92c0-20.36,16.56-36.92,36.92-36.92
			c20.36,0,36.92,16.56,36.92,36.92C77.3,72.45,60.74,89.02,40.38,89.02z M40.38,19.24c-18.11,0-32.85,14.74-32.85,32.85
			c0,18.11,14.74,32.85,32.85,32.85c18.11,0,32.85-14.74,32.85-32.85C73.23,33.98,58.49,19.24,40.38,19.24z"/>
		<path class="st2" d="M40.38,89.02C29.46,89.02,20.9,72.8,20.9,52.1c0-20.7,8.56-36.92,19.48-36.92v4.07
			c-8.35,0-15.41,15.04-15.41,32.85c0,17.81,7.06,32.85,15.41,32.85V89.02z"/>
		<path class="st2" d="M40.38,89.02v-4.07c8.35,0,15.41-15.04,15.41-32.85c0-17.81-7.05-32.85-15.41-32.85v-4.07
			c10.92,0,19.48,16.22,19.48,36.92C59.85,72.8,51.3,89.02,40.38,89.02z"/>
		<rect x="38.34" y="17.21" class="st2" width="4.07" height="69.77"/>
		<rect x="5.49" y="50.06" class="st2" width="69.77" height="4.07"/>
		<path class="st2" d="M40.38,36.69c-9.5,0-18.87-1.5-27.86-4.45l1.27-3.87c8.58,2.82,17.52,4.24,26.59,4.24
			c9.08,0,18.03-1.43,26.6-4.24l1.27,3.87C59.26,35.19,49.89,36.69,40.38,36.69z"/>
		<path class="st2" d="M13.79,75.82l-1.27-3.87C21.51,69,30.88,67.5,40.38,67.5c9.51,0,18.88,1.5,27.87,4.45l-1.27,3.87
			c-8.57-2.82-17.52-4.25-26.6-4.25C31.31,71.57,22.37,73,13.79,75.82z"/>
	</g>
	<g>
		<g>
			
				<rect x="79.98" y="113.8" transform="matrix(0.7072 -0.707 0.707 0.7072 -60.3206 92.914)" class="st1" width="4.07" height="10.96"/>
			<path class="st1" d="M71.88,124.54l-8.73-24.12l24.11,8.74L71.88,124.54z M69.94,107.21l3.59,9.93l6.33-6.33L69.94,107.21z"/>
		</g>
		<g>
			
				<rect x="54.96" y="90.77" transform="matrix(0.7071 -0.7071 0.7071 0.7071 -49.9579 67.9066)" class="st1" width="4.07" height="6.98"/>
			<rect x="64.51" y="86.81" class="st1" width="4.07" height="6.98"/>
			
				<rect x="72.62" y="92.22" transform="matrix(0.7071 -0.7071 0.7071 0.7071 -44.3594 81.4209)" class="st1" width="6.98" height="4.07"/>
			<rect x="49.54" y="101.78" class="st1" width="6.98" height="4.07"/>
			
				<rect x="53.5" y="111.34" transform="matrix(0.7071 -0.7071 0.7071 0.7071 -63.4743 73.5044)" class="st1" width="6.98" height="4.07"/>
		</g>
	</g>
</g>
</svg>
