<?xml version="1.0" encoding="utf-8"?>
<!-- Generator: Adobe Illustrator 25.2.1, SVG Export Plug-In . SVG Version: 6.00 Build 0)  -->
<svg version="1.1" id="Layer_1" xmlns="http://www.w3.org/2000/svg" xmlns:xlink="http://www.w3.org/1999/xlink" x="0px" y="0px"
	 viewBox="0 0 69 68.9" style="enable-background:new 0 0 69 68.9;" xml:space="preserve">
<style type="text/css">
	.st0{fill:url(#SVGID_1_);}
	.st1{fill:url(#SVGID_2_);}
	.st2{fill:url(#SVGID_3_);}
	.st3{fill:url(#SVGID_4_);}
	.st4{fill:url(#SVGID_5_);}
	.st5{fill:url(#SVGID_6_);}
	.st6{fill:url(#SVGID_7_);}
	.st7{fill:url(#SVGID_8_);}
	.st8{fill:url(#SVGID_9_);}
	.st9{fill:url(#SVGID_10_);}
	.st10{fill:url(#SVGID_11_);}
	.st11{fill:#363B64;}
</style>
<g>
	<g>
		<linearGradient id="SVGID_1_" gradientUnits="userSpaceOnUse" x1="27.5715" y1="24.1748" x2="38.3919" y2="46.5182">
			<stop  offset="0" style="stop-color:#1CA4A6"/>
			<stop  offset="1" style="stop-color:#90DBC1"/>
		</linearGradient>
		<path class="st0" d="M26.7,24c-0.2,0.2-0.3,0.4-0.4,0.7c-0.1,0.3-0.2,0.5-0.2,0.8c0,1.2,0.9,2.1,2.1,2.1c1.2,0,2.1-0.9,2.1-2.1
			c0-1.2-0.9-2.1-2.1-2.1C27.7,23.4,27.1,23.6,26.7,24z"/>
		<linearGradient id="SVGID_2_" gradientUnits="userSpaceOnUse" x1="23.8416" y1="25.981" x2="34.662" y2="48.3245">
			<stop  offset="0" style="stop-color:#1CA4A6"/>
			<stop  offset="1" style="stop-color:#90DBC1"/>
		</linearGradient>
		<circle class="st1" cx="28.2" cy="35" r="2.1"/>
		<linearGradient id="SVGID_3_" gradientUnits="userSpaceOnUse" x1="20.1868" y1="27.751" x2="31.0073" y2="50.0944">
			<stop  offset="0" style="stop-color:#1CA4A6"/>
			<stop  offset="1" style="stop-color:#90DBC1"/>
		</linearGradient>
		<path class="st2" d="M26.7,42.9c-0.8,0.8-0.8,2.1,0,3c0.8,0.8,2.1,0.8,3,0c0.8-0.8,0.8-2.1,0-2.9C28.9,42.1,27.6,42.1,26.7,42.9z"
			/>
		<linearGradient id="SVGID_4_" gradientUnits="userSpaceOnUse" x1="37.7374" y1="19.2516" x2="48.5579" y2="41.5951">
			<stop  offset="0" style="stop-color:#1CA4A6"/>
			<stop  offset="1" style="stop-color:#90DBC1"/>
		</linearGradient>
		<path class="st3" d="M39.3,24c-0.8,0.8-0.8,2.1,0,3c0.8,0.8,2.1,0.8,3,0c0.8-0.8,0.8-2.1,0-2.9C41.4,23.3,40.1,23.3,39.3,24z"/>
		<linearGradient id="SVGID_5_" gradientUnits="userSpaceOnUse" x1="34.0075" y1="21.0579" x2="44.8279" y2="43.4014">
			<stop  offset="0" style="stop-color:#1CA4A6"/>
			<stop  offset="1" style="stop-color:#90DBC1"/>
		</linearGradient>
		<circle class="st4" cx="40.8" cy="35" r="2.1"/>
		<linearGradient id="SVGID_6_" gradientUnits="userSpaceOnUse" x1="30.3528" y1="22.8279" x2="41.1732" y2="45.1713">
			<stop  offset="0" style="stop-color:#1CA4A6"/>
			<stop  offset="1" style="stop-color:#90DBC1"/>
		</linearGradient>
		<path class="st5" d="M39.3,42.9c-0.8,0.8-0.8,2.1,0,3s2.1,0.8,3,0c0.8-0.8,0.8-2.1,0-2.9C41.4,42.1,40.1,42.1,39.3,42.9z"/>
	</g>
	<linearGradient id="SVGID_7_" gradientUnits="userSpaceOnUse" x1="36.6843" y1="-4.1604" x2="33.5928" y2="6.0979">
		<stop  offset="0" style="stop-color:#1CA4A6"/>
		<stop  offset="1" style="stop-color:#90DBC1"/>
	</linearGradient>
	<path class="st6" d="M34.5,6.2c-0.6,0-1-0.5-1-1V1c0-0.6,0.5-1,1-1s1,0.5,1,1v4.2C35.5,5.8,35.1,6.2,34.5,6.2z"/>
	<linearGradient id="SVGID_8_" gradientUnits="userSpaceOnUse" x1="59.8998" y1="5.5829" x2="54.8931" y2="15.8049">
		<stop  offset="0" style="stop-color:#1CA4A6"/>
		<stop  offset="1" style="stop-color:#90DBC1"/>
	</linearGradient>
	<path class="st7" d="M55.2,14.9c-0.3,0-0.5-0.1-0.7-0.3c-0.2-0.2-0.3-0.5-0.3-0.7c0-0.3,0.1-0.5,0.3-0.7l2.9-2.9
		c0.2-0.1,0.3-0.1,0.5-0.1c0.2,0,0.4,0.1,0.6,0.2c0.2,0.2,0.4,0.4,0.4,0.7c0,0.2,0,0.5-0.1,0.7l-2.8,2.9
		C55.7,14.8,55.5,14.9,55.2,14.9z"/>
	<linearGradient id="SVGID_9_" gradientUnits="userSpaceOnUse" x1="71.3739" y1="34.4913" x2="56.9554" y2="34.4913">
		<stop  offset="0" style="stop-color:#1CA4A6"/>
		<stop  offset="1" style="stop-color:#90DBC1"/>
	</linearGradient>
	<path class="st8" d="M63.8,35.5c-0.6,0-1-0.5-1-1s0.5-1,1-1H68c0.6,0,1,0.5,1,1s-0.5,1-1,1H63.8z"/>
	<linearGradient id="SVGID_10_" gradientUnits="userSpaceOnUse" x1="-0.3626" y1="34.3433" x2="6.242" y2="34.6243">
		<stop  offset="0" style="stop-color:#1CA4A6"/>
		<stop  offset="1" style="stop-color:#90DBC1"/>
	</linearGradient>
	<path class="st9" d="M1,35.5c-0.6,0-1-0.5-1-1s0.5-1,1-1h4.2c0.6,0,1,0.5,1,1s-0.5,1-1,1H1z"/>
	<linearGradient id="SVGID_11_" gradientUnits="userSpaceOnUse" x1="3.3307" y1="6.2352" x2="13.1355" y2="12.9108">
		<stop  offset="0" style="stop-color:#1CA4A6"/>
		<stop  offset="1" style="stop-color:#90DBC1"/>
	</linearGradient>
	<path class="st10" d="M13.8,14.8c-0.3,0-0.5-0.1-0.7-0.3l-2.9-2.9c-0.2-0.3-0.2-0.8,0-1.1c0.2-0.3,0.5-0.4,0.8-0.4
		c0.2,0,0.4,0,0.5,0.1l2.9,2.8c0.4,0.4,0.4,1,0,1.4C14.4,14.7,14.1,14.8,13.8,14.8z"/>
	<path class="st11" d="M34.5,68.9c-3.4,0-6.4-2.4-7.1-5.8l-0.1-0.6l-0.5-0.2c-1.6-0.6-2.6-2.1-2.6-3.9v-5.2H23
		c-2.9,0-5.2-2.3-5.2-5.2V21.9c0-2.9,2.3-5.2,5.2-5.2h23c2.9,0,5.2,2.3,5.2,5.2v26.1c0,2.9-2.3,5.2-5.2,5.2h-1.1v5.3
		c0,1.7-1,3.2-2.6,3.9l-0.5,0.2l-0.1,0.6c-0.6,2.8-2.8,5-5.6,5.6C35.5,68.9,35,68.9,34.5,68.9z M29.9,64.3c0.9,1.6,2.7,2.6,4.5,2.6
		c1.9,0,3.6-1,4.5-2.6l0.9-1.6H29L29.9,64.3z M26.1,58.5c0,1.2,0.9,2.1,2.1,2.1h12.6c1.2,0,2.1-0.9,2.1-2.1v-5.3H26.1V58.5z
		 M23,18.8c-1.7,0-3.2,1.4-3.2,3.2v26.1c0,1.7,1.4,3.2,3.2,3.2h23c1.7,0,3.2-1.4,3.2-3.2V21.9c0-1.7-1.4-3.2-3.2-3.2H23z"/>
</g>
</svg>
