<?xml version="1.0" encoding="utf-8"?>
<!-- Generator: Adobe Illustrator 25.2.1, SVG Export Plug-In . SVG Version: 6.00 Build 0)  -->
<svg version="1.1" id="Layer_1" xmlns="http://www.w3.org/2000/svg" xmlns:xlink="http://www.w3.org/1999/xlink" x="0px" y="0px"
	 viewBox="0 0 37.6 81.5" style="enable-background:new 0 0 37.6 81.5;" xml:space="preserve">
<style type="text/css">
	.st0{fill:#363B64;}
	.st1{fill:url(#SVGID_1_);}
</style>
<g>
	<path class="st0" d="M36.4,81.5c-0.7,0-1.2-0.5-1.2-1.2v-22c0-6.6-5.4-12-12-12l-8,0l-0.8,0c-6.6,0-12,5.3-12,11.9v22
		c0,0.7-0.5,1.2-1.2,1.2C0.5,81.5,0,81,0,80.3v-22c0-7.9,6.5-14.4,14.4-14.4h8.8c7.9,0,14.4,6.5,14.4,14.4v22
		C37.6,81,37,81.5,36.4,81.5z M18.8,37.6C8.5,37.6,0,29.1,0,18.8C0,8.4,8.4,0,18.8,0c10.4,0,18.8,8.4,18.8,18.8
		C37.6,29.2,29.2,37.6,18.8,37.6L18.8,37.6z M18.8,2.4c-9,0-16.4,7.3-16.4,16.4s7.3,16.4,16.4,16.4s16.4-7.3,16.4-16.4
		S27.8,2.4,18.8,2.4z"/>
	<linearGradient id="SVGID_1_" gradientUnits="userSpaceOnUse" x1="7.1768" y1="48.6314" x2="26.9487" y2="76.5495">
		<stop  offset="0" style="stop-color:#1CA4A6"/>
		<stop  offset="1" style="stop-color:#90DBC1"/>
	</linearGradient>
	<path class="st1" d="M18.7,81.1c-0.3,0-0.6-0.1-0.8-0.3l-4.5-4.5c-0.3-0.3-0.4-0.6-0.4-0.9l2.4-28.9l2.3,0V50h3
		c0.7,0,1.2,0.5,1.2,1.2c0,0.7-0.6,1.2-1.2,1.2h-3.3L15.6,75l3.1,3.1l3.2-3.1l-1.2-17c-0.1-0.7,0.4-1.3,1.1-1.3c0.1,0,0.2,0,0.2,0
		c0.6,0,1.1,0.4,1.1,1l1.2,17.7c0,0.4-0.1,0.7-0.3,0.9l-4.4,4.4C19.3,80.9,19,81.1,18.7,81.1z"/>
</g>
</svg>
