<?xml version="1.0" encoding="utf-8"?>
<!-- Generator: Adobe Illustrator 25.2.1, SVG Export Plug-In . SVG Version: 6.00 Build 0)  -->
<svg version="1.1" id="Isolation_Mode" xmlns="http://www.w3.org/2000/svg" xmlns:xlink="http://www.w3.org/1999/xlink" x="0px"
	 y="0px" viewBox="0 0 51.5 65.7" style="enable-background:new 0 0 51.5 65.7;" xml:space="preserve">
<style type="text/css">
	.st0{fill:#363B64;}
	.st1{fill:url(#SVGID_1_);}
	.st2{fill:url(#SVGID_2_);}
	.st3{fill:url(#SVGID_3_);}
</style>
<g>
	<g>
		<path class="st0" d="M4.6,65.7c-2.5,0-4.6-2.1-4.6-4.6V4.6C0,2.1,2.1,0,4.6,0h42.3c2.5,0,4.6,2.1,4.6,4.6v56.5
			c0,2.5-2.1,4.6-4.6,4.6H4.6z M4.6,2.1c-1.4,0-2.5,1.1-2.5,2.5v56.5c0,1.4,1.1,2.5,2.5,2.5h42.3c1.4,0,2.5-1.1,2.5-2.5V4.6
			c0-1.4-1.1-2.5-2.5-2.5H4.6z"/>
		<linearGradient id="SVGID_1_" gradientUnits="userSpaceOnUse" x1="10.284" y1="51.0594" x2="41.2544" y2="51.0594">
			<stop  offset="0" style="stop-color:#1CA4A6"/>
			<stop  offset="1" style="stop-color:#90DBC1"/>
		</linearGradient>
		<path class="st1" d="M10.3,51.1L10.3,51.1c0-0.5,0.4-0.9,0.9-0.9h29.2c0.5,0,0.9,0.4,0.9,0.9l0,0c0,0.5-0.4,0.9-0.9,0.9H11.2
			C10.7,51.9,10.3,51.5,10.3,51.1z"/>
		<linearGradient id="SVGID_2_" gradientUnits="userSpaceOnUse" x1="10.284" y1="43.9172" x2="41.2544" y2="43.9172">
			<stop  offset="0" style="stop-color:#1CA4A6"/>
			<stop  offset="1" style="stop-color:#90DBC1"/>
		</linearGradient>
		<path class="st2" d="M10.3,43.9L10.3,43.9c0-0.5,0.4-0.9,0.9-0.9h29.2c0.5,0,0.9,0.4,0.9,0.9v0c0,0.5-0.4,0.9-0.9,0.9H11.2
			C10.7,44.8,10.3,44.4,10.3,43.9z"/>
	</g>
</g>
<linearGradient id="SVGID_3_" gradientUnits="userSpaceOnUse" x1="14.1386" y1="14.2354" x2="39.6896" y2="39.7864">
	<stop  offset="0" style="stop-color:#1CA4A6"/>
	<stop  offset="1" style="stop-color:#90DBC1"/>
</linearGradient>
<path class="st3" d="M23.9,35.7c-3.7,0-6.7-3-6.7-6.7v-5.9c0-0.4,0.4-0.8,0.8-0.8h1.8v-3.1c0-2.6,2.1-4.7,4.7-4.7H27
	c2.6,0,4.7,2.1,4.7,4.7v3.1h1.8c0.4,0,0.8,0.4,0.8,0.8V29c0,3.7-3,6.7-6.7,6.7H23.9z M18.8,29c0,2.8,2.3,5.1,5.1,5.1h3.8
	c2.8,0,5.1-2.3,5.1-5.1V24h-14V29z M30.1,22.4v-3.1c0-1.7-1.4-3.1-3.1-3.1h-2.5c-1.7,0-3.1,1.4-3.1,3.1v3.1H30.1z"/>
<path class="st0" d="M25.8,30.6c-0.4,0-0.8-0.4-0.8-0.8v-2.2c0-0.4,0.4-0.8,0.8-0.8c0.4,0,0.8,0.4,0.8,0.8v2.2
	C26.6,30.3,26.2,30.6,25.8,30.6z"/>
</svg>
