<?xml version="1.0" encoding="utf-8"?>
<!-- Generator: Adobe Illustrator 25.2.1, SVG Export Plug-In . SVG Version: 6.00 Build 0)  -->
<svg version="1.1" id="Layer_1" xmlns="http://www.w3.org/2000/svg" xmlns:xlink="http://www.w3.org/1999/xlink" x="0px" y="0px"
	 viewBox="0 0 103.5 87.2" style="enable-background:new 0 0 103.5 87.2;" xml:space="preserve">
<style type="text/css">
	.st0{fill:#363B64;}
	.st1{fill:url(#SVGID_1_);}
	.st2{fill:url(#SVGID_2_);}
	.st3{fill:url(#SVGID_3_);}
	.st4{fill:url(#SVGID_4_);}
	.st5{fill:url(#SVGID_5_);}
	.st6{fill:url(#SVGID_6_);}
	.st7{fill:url(#SVGID_7_);}
	.st8{fill:url(#SVGID_8_);}
</style>
<path class="st0" d="M12.9,35.6c0,0.9,0.7,1.6,1.6,1.6h16.2c0.9,0,1.6-0.7,1.6-1.6c0-0.9-0.7-1.6-1.6-1.6c0,0,0,0,0,0H14.6
	C13.7,33.9,12.9,34.7,12.9,35.6z"/>
<linearGradient id="SVGID_1_" gradientUnits="userSpaceOnUse" x1="4.8537" y1="35.5557" x2="9.7202" y2="35.5557">
	<stop  offset="0" style="stop-color:#1CA4A6"/>
	<stop  offset="1" style="stop-color:#90DBC1"/>
</linearGradient>
<path class="st1" d="M8.1,37.2c0.9,0,1.6-0.7,1.6-1.6c0-0.9-0.7-1.6-1.6-1.6c0,0,0,0,0,0H6.5c-0.9,0-1.6,0.7-1.6,1.6
	c0,0.9,0.7,1.6,1.6,1.6c0,0,0,0,0,0H8.1z"/>
<path class="st0" d="M32.3,51.7c0-0.9-0.7-1.6-1.6-1.6H14.6c-0.9,0-1.6,0.7-1.6,1.6c0,0.9,0.7,1.6,1.6,1.6h16.2
	C31.6,53.3,32.3,52.6,32.3,51.7z"/>
<linearGradient id="SVGID_2_" gradientUnits="userSpaceOnUse" x1="4.8627" y1="51.7175" x2="9.7113" y2="51.7175">
	<stop  offset="0" style="stop-color:#1CA4A6"/>
	<stop  offset="1" style="stop-color:#90DBC1"/>
</linearGradient>
<path class="st2" d="M8.1,50.1H6.5c-0.9,0-1.6,0.7-1.6,1.6c0,0.9,0.7,1.6,1.6,1.6h1.6c0.9,0,1.6-0.7,1.6-1.6
	C9.7,50.8,9,50.1,8.1,50.1z"/>
<linearGradient id="SVGID_3_" gradientUnits="userSpaceOnUse" x1="0" y1="43.6366" x2="32.333" y2="43.6366">
	<stop  offset="0" style="stop-color:#1CA4A6"/>
	<stop  offset="1" style="stop-color:#90DBC1"/>
</linearGradient>
<path class="st3" d="M32.3,43.6c0-0.9-0.7-1.6-1.6-1.6H1.6C0.7,42,0,42.7,0,43.6s0.7,1.6,1.6,1.6c0,0,0,0,0,0h29.1
	C31.6,45.3,32.3,44.5,32.3,43.6z"/>
<linearGradient id="SVGID_4_" gradientUnits="userSpaceOnUse" x1="50.9143" y1="12.879" x2="100.224" y2="57.9534">
	<stop  offset="0" style="stop-color:#1CA4A6"/>
	<stop  offset="1" style="stop-color:#90DBC1"/>
</linearGradient>
<path class="st4" d="M69.9,40.4L80.2,32c0.7-0.6,0.8-1.6,0.2-2.3c-0.6-0.7-1.6-0.8-2.3-0.2l-10.4,8.5C68.7,38.7,69.3,39.5,69.9,40.4
	z"/>
<linearGradient id="SVGID_5_" gradientUnits="userSpaceOnUse" x1="39.609" y1="25.2466" x2="88.9186" y2="70.321">
	<stop  offset="0" style="stop-color:#1CA4A6"/>
	<stop  offset="1" style="stop-color:#90DBC1"/>
</linearGradient>
<ellipse class="st5" cx="61.4" cy="45.2" rx="6.5" ry="6.5"/>
<path class="st0" d="M90.7,17.2c-0.7,0.6-0.7,1.6-0.1,2.3c14.2,16,12.7,40.6-3.3,54.8S46.7,87,32.5,71c-3.7-4.2-6.5-9.1-8.1-14.4H21
	c6.3,22.3,29.5,35.3,51.8,29s35.3-29.5,29-51.8c-1.7-6.1-4.8-11.7-8.9-16.4C92.3,16.7,91.3,16.6,90.7,17.2
	C90.7,17.2,90.7,17.2,90.7,17.2z"/>
<path class="st0" d="M25.5,30.7C31,17.1,43.7,7.7,58.3,6.5l-0.5,0.3c-0.8,0.4-1,1.4-0.6,2.2c0.4,0.8,1.4,1,2.2,0.6l0,0l5.7-3.3
	c0.8-0.4,1-1.4,0.6-2.2c-0.1-0.2-0.3-0.4-0.6-0.6l-5.7-3.3c-0.8-0.4-1.8-0.2-2.2,0.6C56.8,1.6,57,2.6,57.8,3l0,0l0.4,0.3
	C41.8,4.6,27.7,15.3,22,30.7H25.5z"/>
<linearGradient id="SVGID_6_" gradientUnits="userSpaceOnUse" x1="23.8933" y1="42.4389" x2="73.2029" y2="87.5134">
	<stop  offset="0" style="stop-color:#1CA4A6"/>
	<stop  offset="1" style="stop-color:#90DBC1"/>
</linearGradient>
<path class="st6" d="M59.8,74.3v4.8c0,0.9,0.7,1.6,1.6,1.6c0.9,0,1.6-0.7,1.6-1.6v-4.8c0-0.9-0.7-1.6-1.6-1.6
	C60.6,72.7,59.8,73.5,59.8,74.3z"/>
<linearGradient id="SVGID_7_" gradientUnits="userSpaceOnUse" x1="53.9261" y1="9.5842" x2="103.2357" y2="54.6587">
	<stop  offset="0" style="stop-color:#1CA4A6"/>
	<stop  offset="1" style="stop-color:#90DBC1"/>
</linearGradient>
<path class="st7" d="M90.5,46.9h4.8c0.9,0,1.6-0.7,1.6-1.6c0-0.9-0.7-1.6-1.6-1.6h-4.8c-0.9,0-1.6,0.7-1.6,1.6
	C88.9,46.1,89.6,46.9,90.5,46.9z"/>
<linearGradient id="SVGID_8_" gradientUnits="userSpaceOnUse" x1="38.4328" y1="26.5333" x2="87.7424" y2="71.6077">
	<stop  offset="0" style="stop-color:#1CA4A6"/>
	<stop  offset="1" style="stop-color:#90DBC1"/>
</linearGradient>
<path class="st8" d="M84.2,70.7c0.6,0.6,1.7,0.6,2.3,0s0.6-1.7,0-2.3c0,0,0,0,0,0L83,65c-0.6-0.6-1.7-0.6-2.3,0s-0.6,1.7,0,2.3
	L84.2,70.7z"/>
</svg>
