<?xml version="1.0" encoding="utf-8"?>
<!-- Generator: Adobe Illustrator 25.2.1, SVG Export Plug-In . SVG Version: 6.00 Build 0)  -->
<svg version="1.1" id="Layer_1" xmlns="http://www.w3.org/2000/svg" xmlns:xlink="http://www.w3.org/1999/xlink" x="0px" y="0px"
	 viewBox="0 0 97.9 52" style="enable-background:new 0 0 97.9 52;" xml:space="preserve">
<style type="text/css">
	.st0{fill:url(#SVGID_1_);}
	.st1{fill:#363B64;}
	.st2{fill:url(#SVGID_2_);}
</style>
<linearGradient id="SVGID_1_" gradientUnits="userSpaceOnUse" x1="17.5199" y1="-4.0762" x2="54.9195" y2="32.9865">
	<stop  offset="0" style="stop-color:#1CA4A6"/>
	<stop  offset="1" style="stop-color:#90DBC1"/>
</linearGradient>
<path class="st0" d="M53.9,32c-0.4,0-0.7-0.1-0.9-0.3c-0.5-0.5-0.5-1.2,0-1.7l2.6-2.6H36.9c-0.7,0-1.2-0.6-1.2-1.2s0.6-1.2,1.2-1.2
	h18.7L53,22.1c-0.3-0.2-0.3-0.5-0.3-0.7c0-0.4,0.1-0.8,0.4-1.1c0.2-0.2,0.6-0.4,0.9-0.4c0.3,0,0.6,0.1,0.9,0.4l5.6,5.6l-5.6,5.6
	C54.7,31.8,54.3,32,53.9,32z"/>
<path class="st1" d="M51.4,47.3c-0.7,0-1.2-0.6-1.2-1.2s0.6-1.2,1.2-1.2h3.1c4.8,0,8.8-3.9,8.8-8.8c0-6.2,5-11.2,11.2-11.2h2.8
	l-0.5-0.4c-2.4-2.2-3.7-5.1-3.7-8.3c0-4.8-3.9-8.8-8.8-8.8h-2.8c-0.7,0-1.2-0.6-1.2-1.2s0.6-1.2,1.2-1.2h2.8c6.2,0,11.2,5,11.2,11.2
	c0,4.8,3.9,8.8,8.8,8.8h8.6l-2.6-2.6c-0.2-0.2-0.4-0.6-0.4-0.9c0-0.3,0.1-0.6,0.4-0.9c0.2-0.2,0.6-0.4,0.9-0.4s0.6,0.1,0.9,0.4
	l5.7,5.6l-5.6,5.6c-0.2,0.2-0.5,0.3-0.9,0.3c-0.4,0-0.7-0.1-0.9-0.3c-0.2-0.2-0.4-0.6-0.4-0.9c0-0.3,0.1-0.6,0.4-0.9l2.6-2.6H74.5
	c-4.8,0-8.8,3.9-8.8,8.8c0,6.2-5,11.2-11.2,11.2H51.4z"/>
<linearGradient id="SVGID_2_" gradientUnits="userSpaceOnUse" x1="15.4727" y1="-2.306" x2="52.5177" y2="34.4052">
	<stop  offset="0" style="stop-color:#1CA4A6"/>
	<stop  offset="1" style="stop-color:#90DBC1"/>
</linearGradient>
<path class="st2" d="M16.3,27.3c-0.6,0-1.1-0.6-1.1-1.2c0-0.7,0.6-1.2,1.2-1.2h5.2c4.8,0,8.8-3.9,8.8-8.8c0-6.2,5-11.2,11.2-11.2
	h6.8l-2.6-2.6c-0.5-0.5-0.5-1.2,0-1.7C46.1,0.1,46.4,0,46.7,0c0.3,0,0.6,0.1,0.9,0.4L53.2,6l-5.6,5.6C47.4,11.8,47,12,46.6,12
	c-0.4,0-0.7-0.1-0.9-0.3c-0.5-0.5-0.5-1.2,0-1.7l2.6-2.6h-6.8c-4.8,0-8.8,3.9-8.8,8.8c0,6.2-5,11.2-11.2,11.2H16.3z"/>
<path class="st1" d="M36.9,52c-0.4,0-0.7-0.1-0.9-0.3c-0.5-0.5-0.5-1.2,0-1.7l2.6-2.6H21.5c-6.2,0-11.2-5-11.2-11.2
	c0-4.8-3.9-8.8-8.8-8.8H1.2C0.6,27.3,0,26.7,0,26s0.6-1.2,1.2-1.2h0.3c6.2,0,11.2,5,11.2,11.2c0,4.8,3.9,8.8,8.8,8.8h17.1L36,42.1
	c-0.5-0.5-0.5-1.2,0-1.7c0.2-0.2,0.6-0.4,0.9-0.4c0.3,0,0.6,0.1,0.9,0.4l5.7,5.6l-5.6,5.6C37.7,51.8,37.3,52,36.9,52z"/>
</svg>
