<?xml version="1.0" encoding="utf-8"?>
<!-- Generator: Adobe Illustrator 25.2.1, SVG Export Plug-In . SVG Version: 6.00 Build 0)  -->
<svg version="1.1" id="Layer_1" xmlns="http://www.w3.org/2000/svg" xmlns:xlink="http://www.w3.org/1999/xlink" x="0px" y="0px"
	 viewBox="0 0 66 66" style="enable-background:new 0 0 66 66;" xml:space="preserve">
<style type="text/css">
	.st0{fill:url(#SVGID_1_);}
	.st1{fill:url(#SVGID_2_);}
	.st2{fill:url(#SVGID_3_);}
	.st3{fill:url(#SVGID_4_);}
	.st4{fill:url(#SVGID_5_);}
	.st5{fill:url(#SVGID_6_);}
	.st6{fill:url(#SVGID_7_);}
	.st7{fill:url(#SVGID_8_);}
	.st8{fill:url(#SVGID_9_);}
	.st9{fill:#363B64;}
</style>
<g>
	<linearGradient id="SVGID_1_" gradientUnits="userSpaceOnUse" x1="22.3981" y1="-7.3085" x2="74.154" y2="55.1852">
		<stop  offset="0" style="stop-color:#1CA4A6"/>
		<stop  offset="1" style="stop-color:#90DBC1"/>
	</linearGradient>
	<path class="st0" d="M33,11c-3,0-5.5-2.5-5.5-5.5C27.5,2.5,30,0,33,0s5.5,2.5,5.5,5.5C38.5,8.5,36,11,33,11z M33,2.3
		c-1.8,0-3.3,1.5-3.3,3.2c0,1.8,1.5,3.2,3.3,3.2c1.8,0,3.3-1.5,3.3-3.2C36.3,3.7,34.8,2.3,33,2.3z"/>
	<linearGradient id="SVGID_2_" gradientUnits="userSpaceOnUse" x1="6.8319" y1="5.4398" x2="58.5849" y2="67.9299">
		<stop  offset="0" style="stop-color:#1CA4A6"/>
		<stop  offset="1" style="stop-color:#90DBC1"/>
	</linearGradient>
	<path class="st1" d="M13.5,19c-1.5,0-2.8-0.6-3.9-1.6c-1-1-1.6-2.4-1.6-3.9c0-1.5,0.6-2.8,1.6-3.9c1-1,2.4-1.6,3.9-1.6
		c1.5,0,2.9,0.6,3.9,1.6c1,1,1.6,2.4,1.6,3.9c0,1.5-0.6,2.8-1.6,3.9C16.4,18.5,15,19,13.5,19L13.5,19z M13.6,10.3
		c-0.9,0-1.7,0.3-2.3,1c-0.6,0.6-1,1.4-1,2.3c0,0.9,0.3,1.7,0.9,2.3c0.6,0.6,1.4,0.9,2.3,0.9c0.9,0,1.7-0.3,2.3-1
		c0.6-0.6,1-1.4,1-2.3c0-0.9-0.3-1.7-0.9-2.3C15.2,10.6,14.4,10.3,13.6,10.3z"/>
	<linearGradient id="SVGID_3_" gradientUnits="userSpaceOnUse" x1="-7.3902" y1="17.4464" x2="44.3648" y2="79.939">
		<stop  offset="0" style="stop-color:#1CA4A6"/>
		<stop  offset="1" style="stop-color:#90DBC1"/>
	</linearGradient>
	<path class="st2" d="M5.5,38.5C2.5,38.5,0,36,0,33c0-3,2.5-5.5,5.5-5.5c3,0,5.5,2.5,5.5,5.5C11,36,8.5,38.5,5.5,38.5z M5.5,29.7
		c-1.8,0-3.2,1.5-3.2,3.3c0,1.8,1.5,3.3,3.2,3.3c1.8,0,3.2-1.5,3.2-3.3C8.7,31.2,7.3,29.7,5.5,29.7z"/>
	<linearGradient id="SVGID_4_" gradientUnits="userSpaceOnUse" x1="-11.9388" y1="21.6766" x2="39.8208" y2="84.1747">
		<stop  offset="0" style="stop-color:#1CA4A6"/>
		<stop  offset="1" style="stop-color:#90DBC1"/>
	</linearGradient>
	<path class="st3" d="M13.6,57.9c-1.5,0-2.8-0.6-3.9-1.6c-1-1-1.6-2.4-1.6-3.9c0-1.5,0.6-2.9,1.6-3.9c1-1,2.4-1.6,3.9-1.6
		c1.5,0,2.9,0.6,3.9,1.6c1,1,1.6,2.4,1.6,3.9c0,1.5-0.6,2.9-1.6,3.9C16.4,57.4,15,57.9,13.6,57.9L13.6,57.9z M13.5,49.2
		c-0.9,0-1.7,0.3-2.3,0.9c-0.6,0.6-0.9,1.4-0.9,2.3c0,0.9,0.3,1.7,1,2.3c0.6,0.6,1.4,1,2.3,1c0.9,0,1.7-0.3,2.3-0.9
		c0.6-0.6,0.9-1.4,0.9-2.3c0-0.9-0.3-1.7-1-2.3C15.2,49.5,14.4,49.2,13.5,49.2z"/>
	<linearGradient id="SVGID_5_" gradientUnits="userSpaceOnUse" x1="-4.1473" y1="15.655" x2="47.6118" y2="78.1524">
		<stop  offset="0" style="stop-color:#1CA4A6"/>
		<stop  offset="1" style="stop-color:#90DBC1"/>
	</linearGradient>
	<path class="st4" d="M33,66c-3,0-5.5-2.5-5.5-5.5S30,55,33,55s5.5,2.5,5.5,5.5S36,66,33,66z M33,57.3c-1.8,0-3.3,1.5-3.3,3.2
		s1.5,3.2,3.3,3.2c1.8,0,3.3-1.5,3.3-3.2S34.8,57.3,33,57.3z"/>
	<linearGradient id="SVGID_6_" gradientUnits="userSpaceOnUse" x1="11.4215" y1="2.9106" x2="63.1767" y2="65.4034">
		<stop  offset="0" style="stop-color:#1CA4A6"/>
		<stop  offset="1" style="stop-color:#90DBC1"/>
	</linearGradient>
	<path class="st5" d="M52.4,57.9c-1.5,0-2.8-0.6-3.9-1.6c-1-1-1.6-2.4-1.6-3.9c0-1.5,0.6-2.8,1.6-3.9c1-1,2.4-1.6,3.9-1.6
		c1.5,0,2.9,0.6,3.9,1.6c1,1,1.6,2.4,1.6,3.9c0,1.5-0.6,2.8-1.6,3.9C55.3,57.4,53.9,57.9,52.4,57.9L52.4,57.9z M52.5,49.2
		c-0.9,0-1.7,0.3-2.3,1c-0.6,0.6-1,1.4-1,2.3c0,0.9,0.3,1.7,0.9,2.3c0.6,0.6,1.4,0.9,2.3,0.9c0.9,0,1.7-0.3,2.3-1
		c0.6-0.6,1-1.4,1-2.3c0-0.9-0.3-1.7-0.9-2.3C54.1,49.5,53.3,49.2,52.5,49.2z"/>
	<linearGradient id="SVGID_7_" gradientUnits="userSpaceOnUse" x1="25.6439" y1="-9.0965" x2="77.3989" y2="53.3961">
		<stop  offset="0" style="stop-color:#1CA4A6"/>
		<stop  offset="1" style="stop-color:#90DBC1"/>
	</linearGradient>
	<path class="st6" d="M60.5,38.5c-3,0-5.5-2.5-5.5-5.5c0-3,2.5-5.5,5.5-5.5c3,0,5.5,2.5,5.5,5.5C66,36,63.5,38.5,60.5,38.5z
		 M60.5,29.7c-1.8,0-3.2,1.5-3.2,3.3c0,1.8,1.5,3.3,3.2,3.3s3.2-1.5,3.2-3.3C63.7,31.2,62.3,29.7,60.5,29.7z"/>
	<linearGradient id="SVGID_8_" gradientUnits="userSpaceOnUse" x1="30.1896" y1="-13.3305" x2="81.9468" y2="49.1647">
		<stop  offset="0" style="stop-color:#1CA4A6"/>
		<stop  offset="1" style="stop-color:#90DBC1"/>
	</linearGradient>
	<path class="st7" d="M52.5,19c-1.5,0-2.8-0.6-3.9-1.6c-1-1-1.6-2.4-1.6-3.9c0-1.5,0.6-2.9,1.6-3.9c1-1,2.4-1.6,3.9-1.6
		c1.5,0,2.9,0.6,3.9,1.6c1,1,1.6,2.4,1.6,3.9c0,1.5-0.6,2.9-1.6,3.9C55.3,18.5,53.9,19,52.5,19L52.5,19z M52.4,10.3
		c-0.9,0-1.7,0.3-2.3,0.9c-0.6,0.6-0.9,1.4-0.9,2.3c0,0.9,0.3,1.7,1,2.3c0.6,0.6,1.4,1,2.3,1c0.9,0,1.7-0.3,2.3-0.9
		c0.6-0.6,0.9-1.4,0.9-2.3c0-0.9-0.3-1.7-1-2.3C54.1,10.6,53.3,10.3,52.4,10.3z"/>
	<linearGradient id="SVGID_9_" gradientUnits="userSpaceOnUse" x1="22.4639" y1="23.4385" x2="39.0897" y2="38.6788">
		<stop  offset="0" style="stop-color:#1CA4A6"/>
		<stop  offset="1" style="stop-color:#90DBC1"/>
	</linearGradient>
	<path class="st8" d="M33,41.9c-4.8,0-8.8-3.9-8.8-8.8c0-4.8,3.9-8.8,8.8-8.8c4.8,0,8.8,3.9,8.8,8.8S37.8,41.9,33,41.9z M33,26.6
		c-3.6,0-6.5,2.9-6.5,6.5s2.9,6.5,6.5,6.5c3.6,0,6.5-2.9,6.5-6.5S36.6,26.6,33,26.6z"/>
	<path class="st9" d="M36.5,50.6c-0.2,0-0.5-0.1-0.7-0.2c-0.3-0.2-0.4-0.5-0.5-0.8c-0.1-1.2-1.2-2.2-2.4-2.2s-2.3,0.9-2.4,2.2
		c0,0.3-0.2,0.6-0.5,0.8c-0.2,0.1-0.4,0.2-0.7,0.2c-0.1,0-0.2,0-0.2,0c-2.1-0.5-4.1-1.3-5.9-2.5c-0.3-0.2-0.4-0.5-0.5-0.8
		c-0.1-0.3,0-0.6,0.2-0.9c0.8-1,0.7-2.4-0.2-3.2c-0.5-0.5-1.1-0.7-1.7-0.7c-0.6,0-1.1,0.2-1.5,0.5c-0.2,0.2-0.5,0.3-0.7,0.3
		c-0.1,0-0.1,0-0.2,0c-0.3-0.1-0.6-0.2-0.8-0.5c-1.2-1.8-2-3.8-2.5-5.9c-0.1-0.3,0-0.6,0.2-0.9c0.2-0.3,0.5-0.4,0.8-0.5
		c1.2-0.1,2.2-1.2,2.2-2.4s-0.9-2.3-2.2-2.4c-0.3,0-0.6-0.2-0.8-0.5c-0.2-0.3-0.3-0.6-0.2-0.9c0.5-2.1,1.3-4.1,2.5-5.9
		c0.2-0.3,0.5-0.5,0.8-0.5c0.1,0,0.1,0,0.2,0c0.3,0,0.5,0.1,0.7,0.2c0.4,0.3,1,0.5,1.5,0.5c0.6,0,1.3-0.3,1.7-0.7
		c0.9-0.9,1-2.3,0.2-3.2c-0.2-0.2-0.3-0.6-0.2-0.9c0.1-0.3,0.2-0.6,0.5-0.8c1.8-1.2,3.8-2,5.9-2.5c0.1,0,0.2,0,0.2,0
		c0.2,0,0.5,0.1,0.7,0.2c0.3,0.2,0.4,0.5,0.5,0.8c0.1,1.2,1.2,2.2,2.4,2.2c1.2,0,2.3-0.9,2.4-2.2c0-0.3,0.2-0.6,0.5-0.8
		c0.2-0.1,0.4-0.2,0.7-0.2c0.1,0,0.2,0,0.2,0c2.1,0.5,4.1,1.3,5.9,2.5c0.3,0.2,0.5,0.5,0.5,0.8c0.1,0.3,0,0.6-0.2,0.9
		c-0.8,1-0.7,2.4,0.2,3.2c0.5,0.5,1.1,0.7,1.7,0.7c0.6,0,1.1-0.2,1.5-0.5c0.2-0.2,0.5-0.2,0.7-0.2c0.1,0,0.1,0,0.2,0
		c0.3,0.1,0.6,0.2,0.8,0.5c1.2,1.8,2,3.8,2.5,5.9c0.1,0.3,0,0.6-0.2,0.9c-0.2,0.3-0.5,0.4-0.8,0.5c-1.2,0.1-2.2,1.2-2.2,2.4
		s0.9,2.3,2.2,2.4c0.3,0,0.6,0.2,0.8,0.5c0.2,0.3,0.3,0.6,0.2,0.9C50,39,49.2,41,48,42.8c-0.2,0.3-0.5,0.4-0.8,0.5
		c-0.1,0-0.1,0-0.2,0c-0.3,0-0.5-0.1-0.7-0.3c-0.4-0.3-1-0.5-1.5-0.5c-0.6,0-1.3,0.3-1.7,0.7c-0.9,0.9-1,2.3-0.2,3.2
		c0.2,0.2,0.3,0.6,0.2,0.9c0,0.3-0.2,0.6-0.5,0.8c-1.8,1.2-3.8,2-5.9,2.5C36.7,50.6,36.6,50.6,36.5,50.6z M21.1,40.3
		c1.2,0,2.4,0.5,3.3,1.4c1.3,1.3,1.7,3.3,1,5.1l0,0.1l0.1,0c1,0.5,2,0.9,3,1.3l0.1,0l0-0.1c0.7-1.7,2.4-2.9,4.3-2.9
		c1.9,0,3.6,1.1,4.3,2.9l0,0.1l0.1,0c1-0.3,2.1-0.7,3-1.3l0.1,0l0-0.1c-0.7-1.7-0.3-3.7,1-5.1c0.9-0.9,2.1-1.4,3.3-1.4
		c0.6,0,1.2,0.1,1.8,0.3l0.1,0l0-0.1c0.5-1,0.9-2,1.3-3l0-0.1l-0.1,0c-1.7-0.7-2.9-2.4-2.9-4.3c0-1.9,1.1-3.6,2.9-4.3l0.1,0l0-0.1
		c-0.3-1-0.7-2.1-1.3-3l0-0.1l-0.1,0c-0.6,0.2-1.2,0.3-1.8,0.3c-1.2,0-2.4-0.5-3.3-1.4c-1.3-1.3-1.7-3.3-1-5.1l0-0.1l-0.1,0
		c-1-0.5-2-0.9-3-1.3l-0.1,0l0,0.1C36.6,19.9,34.9,21,33,21s-3.6-1.1-4.3-2.9l0-0.1l-0.1,0c-1.1,0.3-2.1,0.7-3,1.3l-0.1,0l0,0.1
		c0.7,1.7,0.3,3.7-1,5.1c-0.9,0.9-2.1,1.4-3.3,1.4c-0.6,0-1.2-0.1-1.8-0.3l-0.1,0l0,0.1c-0.5,1-0.9,2-1.3,3l0,0.1l0.1,0
		c1.7,0.7,2.9,2.4,2.9,4.3c0,1.9-1.1,3.6-2.9,4.3l-0.1,0l0,0.1c0.3,1,0.7,2.1,1.3,3l0,0.1l0.1,0C19.9,40.4,20.6,40.3,21.1,40.3z"/>
	<path class="st9" d="M46.4,10.1c-0.2,0-0.4,0-0.5-0.1c-1.7-0.9-3.5-1.7-5.3-2.2c-0.3-0.1-0.5-0.3-0.7-0.5s-0.2-0.6-0.1-0.9
		c0.1-0.5,0.6-0.8,1.1-0.8c0.1,0,0.2,0,0.3,0c2,0.6,3.9,1.4,5.7,2.4c0.3,0.1,0.5,0.4,0.5,0.7c0.1,0.3,0,0.6-0.1,0.9
		C47.2,9.9,46.8,10.1,46.4,10.1z"/>
	<path class="st9" d="M20,9.9c-0.4,0-0.8-0.2-1-0.6c-0.3-0.5-0.1-1.2,0.5-1.5c1.8-1,3.8-1.8,5.8-2.4c0.1,0,0.2,0,0.3,0
		c0.5,0,0.9,0.3,1.1,0.8c0.1,0.3,0,0.6-0.1,0.9c-0.1,0.3-0.4,0.5-0.7,0.5c-1.8,0.5-3.6,1.3-5.3,2.2C20.4,9.8,20.2,9.9,20,9.9z"/>
	<path class="st9" d="M6.7,26.2c-0.1,0-0.2,0-0.3,0c-0.3-0.1-0.5-0.3-0.7-0.5c-0.1-0.3-0.2-0.6-0.1-0.9c0.6-2,1.4-3.9,2.4-5.7
		c0.2-0.4,0.6-0.6,1-0.6c0.2,0,0.4,0,0.5,0.1c0.3,0.1,0.5,0.4,0.5,0.7c0.1,0.3,0,0.6-0.1,0.9c-0.9,1.7-1.7,3.5-2.2,5.3
		C7.7,25.8,7.2,26.2,6.7,26.2z"/>
	<path class="st9" d="M8.9,47c-0.4,0-0.8-0.2-1-0.6c-1-1.8-1.8-3.8-2.4-5.8c-0.1-0.3,0-0.6,0.1-0.9c0.1-0.3,0.4-0.5,0.7-0.5
		c0.1,0,0.2,0,0.3,0c0.5,0,0.9,0.3,1.1,0.8c0.5,1.8,1.3,3.6,2.2,5.3c0.1,0.3,0.2,0.6,0.1,0.9c-0.1,0.3-0.3,0.5-0.5,0.7
		C9.2,47,9,47,8.9,47z"/>
	<path class="st9" d="M25.1,60.3c-0.1,0-0.2,0-0.3,0c-2-0.6-3.9-1.4-5.7-2.4c-0.3-0.1-0.5-0.4-0.5-0.7c-0.1-0.3,0-0.6,0.1-0.9
		c0.2-0.4,0.6-0.6,1-0.6c0.2,0,0.4,0,0.5,0.1c1.7,0.9,3.5,1.7,5.3,2.2c0.3,0.1,0.5,0.3,0.7,0.5c0.1,0.3,0.2,0.6,0.1,0.9
		C26.1,60,25.6,60.3,25.1,60.3z"/>
	<path class="st9" d="M40.5,60.4c-0.5,0-0.9-0.3-1.1-0.8c-0.1-0.3,0-0.6,0.1-0.9s0.4-0.5,0.7-0.5c1.8-0.5,3.6-1.3,5.3-2.2
		c0.2-0.1,0.4-0.1,0.5-0.1c0.4,0,0.8,0.2,1,0.6c0.3,0.5,0.1,1.2-0.5,1.5c-1.8,1-3.8,1.8-5.8,2.3C40.7,60.4,40.6,60.4,40.5,60.4z"/>
	<path class="st9" d="M56.9,47.4c-0.2,0-0.4,0-0.5-0.1c-0.3-0.1-0.5-0.4-0.5-0.7c-0.1-0.3,0-0.6,0.1-0.9c0.9-1.7,1.7-3.5,2.2-5.3
		c0.1-0.5,0.6-0.8,1.1-0.8c0.1,0,0.2,0,0.3,0c0.3,0.1,0.5,0.3,0.7,0.5c0.1,0.3,0.2,0.6,0.1,0.9c-0.6,2-1.4,3.9-2.4,5.7
		C57.7,47.2,57.3,47.4,56.9,47.4z"/>
	<path class="st9" d="M59.4,26.6c-0.5,0-0.9-0.3-1.1-0.8c-0.5-1.8-1.3-3.6-2.2-5.3C56,20.1,56,19.8,56,19.6c0.1-0.3,0.3-0.5,0.5-0.7
		c0.2-0.1,0.3-0.1,0.5-0.1c0.4,0,0.8,0.2,1,0.6c1,1.8,1.8,3.8,2.4,5.8c0.1,0.3,0,0.6-0.1,0.9c-0.1,0.3-0.4,0.5-0.7,0.5
		C59.6,26.5,59.5,26.6,59.4,26.6z"/>
</g>
</svg>
