<?xml version="1.0" encoding="utf-8"?>
<!-- Generator: Adobe Illustrator 25.2.1, SVG Export Plug-In . SVG Version: 6.00 Build 0)  -->
<svg version="1.1" id="Layer_1" xmlns="http://www.w3.org/2000/svg" xmlns:xlink="http://www.w3.org/1999/xlink" x="0px" y="0px"
	 viewBox="0 0 88.2 92.2" style="enable-background:new 0 0 88.2 92.2;" xml:space="preserve">
<style type="text/css">
	.st0{fill:#363B64;}
	.st1{fill:url(#SVGID_1_);}
</style>
<path class="st0" d="M44.1,92.2c-1.2,0-2.4-0.5-3.3-1.3l-8.1-8.1c-0.2-0.2-0.5-0.4-0.8-0.4c-0.1,0-0.1,0-0.2,0l-11.3,1.8
	c-0.3,0.1-0.6,0.1-0.8,0.1c-2.3,0-4.3-1.7-4.6-3.9l-1.8-11.3c-0.1-0.3-0.2-0.7-0.6-0.8L2.5,63c-1.1-0.6-1.9-1.6-2.3-2.7
	c-0.4-1.1-0.3-2.3,0.2-3.5l5.2-10.3c0.1-0.3,0.1-0.7,0-1.1L0.5,35.3c-0.5-0.9-0.6-2.2-0.2-3.5c0.3-1.2,1.1-2.1,2.3-2.7L12.6,24
	c0.4-0.2,0.6-0.5,0.6-0.9l1.8-11.3c0.5-2.3,2.4-3.9,4.6-3.9c0.2,0,0.4,0,0.5,0.1c0.1,0,0.1,0,0.2,0l11.4,1.8c0.4,0,0.7-0.1,1-0.4
	l8-8.1c0.9-0.9,2-1.3,3.3-1.3s2.4,0.5,3.3,1.3l8.1,8.1c0.2,0.2,0.5,0.4,0.8,0.4c0.1,0,0.1,0,0.2,0L67.6,8c0.3-0.1,0.6-0.1,0.8-0.1
	c2.3,0,4.3,1.7,4.6,3.9l1.8,11.3c0.1,0.3,0.2,0.7,0.6,0.8l10.2,5.2c1.1,0.6,1.9,1.6,2.3,2.7c0.4,1.1,0.3,2.3-0.2,3.5l-5.1,10.3
	c-0.1,0.3-0.1,0.7,0,1.1l5.2,10.2c0.5,0.9,0.6,2.2,0.2,3.5c-0.3,1.2-1.1,2.1-2.3,2.7l-10.2,5.2c-0.4,0.2-0.6,0.5-0.6,0.9L73,80.4
	c-0.5,2.3-2.4,3.9-4.6,3.9c-0.2,0-0.4,0-0.5-0.1c-0.1,0-0.1,0-0.2,0l-11.4-1.8c-0.1,0-0.1,0-0.2,0c-0.3,0-0.5,0.1-0.8,0.4l-8.1,8.1
	C46.4,91.7,45.3,92.2,44.1,92.2z M31.8,79c1.2,0,2.4,0.5,3.3,1.3l8.1,8.1c0.2,0.2,0.5,0.3,0.8,0.3c0.3,0,0.6-0.1,0.8-0.3l8.1-8.1
	c0.9-0.9,2.1-1.4,3.3-1.4c0.2,0,0.5,0,0.7,0.1l11.3,1.8c0,0,0.1,0,0.1,0c0.5,0,1.1-0.4,1.2-1l1.8-11.3c0.2-1.5,1.1-2.7,2.5-3.4
	l10.3-5.1c0.3-0.1,0.5-0.4,0.5-0.7c0.1-0.4,0.1-0.7-0.1-1l-5.2-10.2c-0.7-1.2-0.7-2.8,0-4.2l5.2-10.2c0.1-0.2,0.1-0.6,0.1-1
	c-0.1-0.3-0.2-0.5-0.5-0.7L73.9,27c-1.3-0.7-2.2-1.9-2.5-3.4l-1.8-11.3c-0.1-0.6-0.7-1-1.2-1c0,0-0.1,0-0.1,0L57,13.2
	c-0.2,0-0.4,0-0.7,0c-1.2,0-2.5-0.5-3.4-1.4l-8.1-8.1c-0.2-0.2-0.5-0.3-0.8-0.3c-0.3,0-0.6,0.1-0.8,0.3l-8.1,8.1
	c-0.9,0.9-2.1,1.4-3.3,1.4c-0.2,0-0.5,0-0.7-0.1l-11.3-1.8c0,0-0.1,0-0.1,0c-0.5,0-1.1,0.4-1.2,1l-1.8,11.3
	c-0.2,1.5-1.1,2.7-2.5,3.4L4.1,32.1c-0.3,0.1-0.5,0.4-0.5,0.7c-0.1,0.4-0.1,0.7,0.1,1L8.8,44c0.7,1.2,0.7,2.8,0,4.2L3.6,58.3
	c-0.1,0.2-0.1,0.6-0.1,1c0.1,0.3,0.2,0.5,0.5,0.7l10.2,5.3c1.3,0.7,2.2,1.9,2.5,3.4l1.8,11.3c0.1,0.6,0.7,1,1.2,1c0,0,0.1,0,0.1,0
	l11.2-1.8C31.4,79,31.6,79,31.8,79z"/>
<linearGradient id="SVGID_1_" gradientUnits="userSpaceOnUse" x1="21.6496" y1="42.3933" x2="65.3493" y2="42.3933">
	<stop  offset="0" style="stop-color:#1CA4A6"/>
	<stop  offset="1" style="stop-color:#90DBC1"/>
</linearGradient>
<path class="st1" d="M58.7,34.9h-8.5V29c0-3-0.9-5.2-2.7-6.5c-1.1-0.8-2.4-1.2-4-1.2c-1.2,0-2.2,0.2-2.5,0.3H41l-0.1,0
	c-0.8,0.3-1.2,0.9-1.2,1.7v7.4c0,5.4-6.4,7.2-6.4,7.2h-0.1L33,38c-0.1,0.1-0.2,0.1-0.4,0.2c-0.6-0.5-1.4-0.8-2.2-0.8h-5.2
	c-2,0-3.6,1.6-3.6,3.6v18.3c0,2,1.6,3.6,3.6,3.6h5.2c0.9,0,1.8-0.4,2.4-1c1.2,1,2.7,1.6,4.3,1.6h18.1c0,0,0.3,0,0.3,0
	c4.2,0,7-2.3,7.4-6.2l2.4-15.6v-0.2C65.3,37.8,62.5,34.9,58.7,34.9z M30.5,59.3c0,0.1-0.1,0.2-0.2,0.2h-5.2c-0.1,0-0.2-0.1-0.2-0.2
	V41c0-0.1,0.1-0.2,0.2-0.2h5.2c0.1,0,0.2,0.1,0.2,0.2V59.3z M59.6,56.8c-0.3,2.3-1.7,3.4-4.3,3.4H37.1c-1.7,0-3.1-1.4-3.1-3.2V41.3
	l0,0c0.1,0,9.1-2.5,9.1-10.6v-5.9c0.2,0,0.3,0,0.5,0c0.8,0,1.5,0.2,2,0.6c0.9,0.6,1.3,1.8,1.3,3.7v7.7c0,1,0.7,1.7,1.7,1.7h10.2
	c1.7,0,3.1,1.3,3.1,2.9L59.6,56.8z"/>
</svg>
