<?xml version="1.0" encoding="utf-8"?>
<!-- Generator: Adobe Illustrator 25.2.1, SVG Export Plug-In . SVG Version: 6.00 Build 0)  -->
<svg version="1.1" id="Layer_1" xmlns="http://www.w3.org/2000/svg" xmlns:xlink="http://www.w3.org/1999/xlink" x="0px" y="0px"
	 viewBox="0 0 82 89" style="enable-background:new 0 0 82 89;" xml:space="preserve">
<style type="text/css">
	.st0{fill:url(#SVGID_1_);}
	.st1{fill:url(#SVGID_2_);}
	.st2{fill:url(#SVGID_3_);}
	.st3{fill:url(#SVGID_4_);}
	.st4{fill:url(#SVGID_5_);}
	.st5{fill:#363B64;}
	.st6{fill:url(#SVGID_6_);}
	.st7{fill:url(#SVGID_7_);}
</style>
<g>
	<g>
		<linearGradient id="SVGID_1_" gradientUnits="userSpaceOnUse" x1="43.2626" y1="46.3838" x2="69.1633" y2="79.7989">
			<stop  offset="0" style="stop-color:#1CA4A6"/>
			<stop  offset="1" style="stop-color:#90DBC1"/>
		</linearGradient>
		<path class="st0" d="M55.5,86.1c-7.2,0-13.1-10.7-13.1-24s5.9-24,13.1-24s13.1,10.7,13.1,24S62.7,86.1,55.5,86.1z M55.5,39.7
			c-6.4,0-11.6,10.1-11.6,22.5s5.2,22.5,11.6,22.5s11.6-10.1,11.6-22.5S61.9,39.7,55.5,39.7z"/>
	</g>
	<g>
		<linearGradient id="SVGID_2_" gradientUnits="userSpaceOnUse" x1="43.3967" y1="46.2798" x2="69.2974" y2="79.6949">
			<stop  offset="0" style="stop-color:#1CA4A6"/>
			<stop  offset="1" style="stop-color:#90DBC1"/>
		</linearGradient>
		<path class="st1" d="M55.5,85.6c-0.4,0-0.7-0.3-0.7-0.7V38.9c0-0.4,0.3-0.7,0.7-0.7s0.7,0.3,0.7,0.7v45.9
			C56.2,85.2,55.9,85.6,55.5,85.6z"/>
	</g>
	<g>
		<g>
			<linearGradient id="SVGID_3_" gradientUnits="userSpaceOnUse" x1="38.037" y1="50.4343" x2="63.9377" y2="83.8494">
				<stop  offset="0" style="stop-color:#1CA4A6"/>
				<stop  offset="1" style="stop-color:#90DBC1"/>
			</linearGradient>
			<path class="st2" d="M76.1,73.7H34.9c-0.4,0-0.7-0.3-0.7-0.7s0.3-0.7,0.7-0.7h41.1c0.4,0,0.7,0.3,0.7,0.7S76.5,73.7,76.1,73.7z"
				/>
		</g>
		<g>
			<linearGradient id="SVGID_4_" gradientUnits="userSpaceOnUse" x1="43.2626" y1="46.3838" x2="69.1633" y2="79.7989">
				<stop  offset="0" style="stop-color:#1CA4A6"/>
				<stop  offset="1" style="stop-color:#90DBC1"/>
			</linearGradient>
			<path class="st3" d="M78.7,62.9H32.3c-0.4,0-0.7-0.3-0.7-0.7c0-0.4,0.3-0.7,0.7-0.7h46.4c0.4,0,0.7,0.3,0.7,0.7
				C79.5,62.6,79.1,62.9,78.7,62.9z"/>
		</g>
		<g>
			<linearGradient id="SVGID_5_" gradientUnits="userSpaceOnUse" x1="48.4882" y1="42.3333" x2="74.3889" y2="75.7484">
				<stop  offset="0" style="stop-color:#1CA4A6"/>
				<stop  offset="1" style="stop-color:#90DBC1"/>
			</linearGradient>
			<path class="st4" d="M76.1,52.1H34.9c-0.4,0-0.7-0.3-0.7-0.7c0-0.4,0.3-0.7,0.7-0.7h41.1c0.4,0,0.7,0.3,0.7,0.7
				C76.8,51.8,76.5,52.1,76.1,52.1z"/>
		</g>
	</g>
</g>
<path class="st5" d="M1.5,89C0.7,89,0,88.3,0,87.5v-15c0-11.9,7.5-22.6,18.6-26.7l1.1-0.4l-1.1-0.5C10.4,41,5,32.6,5,23.5
	C5,10.5,15.5,0,28.5,0S52,10.5,52,23.5c0,4.5-1.3,8.8-3.7,12.6l-0.7,1.1l1.2-0.3c2.2-0.6,4.4-0.8,6.6-0.8C70.1,36,82,47.9,82,62.5
	S70.1,89,55.5,89H1.5z M55.5,39C42.5,39,32,49.5,32,62.5S42.5,86,55.5,86S79,75.5,79,62.5S68.5,39,55.5,39z M28.5,47
	C14.4,47,3,58.4,3,72.5V86h40.1l-1.5-0.9C33.7,80.2,29,71.8,29,62.5c0-5.1,1.5-10.1,4.2-14.3l0.4-0.6l-0.7-0.1
	C31.4,47.1,29.9,47,28.5,47z M28.5,3C17.2,3,8,12.2,8,23.5S17.2,44,28.5,44S49,34.8,49,23.5S39.8,3,28.5,3z"/>
<linearGradient id="SVGID_6_" gradientUnits="userSpaceOnUse" x1="13.1461" y1="19.4074" x2="40.7347" y2="42.0748">
	<stop  offset="0" style="stop-color:#1CA4A6"/>
	<stop  offset="1" style="stop-color:#90DBC1"/>
</linearGradient>
<path class="st6" d="M28.5,37c-3.6,0-7-1.4-9.5-3.9c-0.6-0.6-0.6-1.5,0-2.1c0.3-0.3,0.7-0.4,1.1-0.4c0.4,0,0.8,0.2,1.1,0.4
	c0.5,0.5,1.2,1,1.9,1.5c1.7,1,3.6,1.6,5.5,1.6c2,0,3.9-0.5,5.5-1.6c0.7-0.4,1.3-1,1.9-1.5c0.3-0.3,0.7-0.4,1.1-0.4
	c0.4,0,0.8,0.2,1.1,0.4c0.6,0.6,0.6,1.5,0,2.1C35.5,35.6,32.1,37,28.5,37z"/>
<g>
	<g>
		<linearGradient id="SVGID_7_" gradientUnits="userSpaceOnUse" x1="43.1035" y1="46.5072" x2="69.0042" y2="79.9223">
			<stop  offset="0" style="stop-color:#1CA4A6"/>
			<stop  offset="1" style="stop-color:#90DBC1"/>
		</linearGradient>
		<path class="st7" d="M55.5,86.5c-13.2,0-24-10.7-24-24s10.7-24,24-24s24,10.7,24,24S68.7,86.5,55.5,86.5z M55.5,40
			C43.1,40,33,50.1,33,62.5S43.1,85,55.5,85S78,74.9,78,62.5S67.9,40,55.5,40z"/>
	</g>
</g>
</svg>
