<?xml version="1.0" encoding="utf-8"?>
<!-- Generator: Adobe Illustrator 25.2.1, SVG Export Plug-In . SVG Version: 6.00 Build 0)  -->
<svg version="1.1" id="Layer_1" xmlns="http://www.w3.org/2000/svg" xmlns:xlink="http://www.w3.org/1999/xlink" x="0px" y="0px"
	 viewBox="0 0 133.08 139.77" style="enable-background:new 0 0 133.08 139.77;" xml:space="preserve">
<style type="text/css">
	.st0{fill:#FFB020;}
	.st1{fill:#363B64;}
	.st2{fill:#2DB493;}
</style>
<circle class="st0" cx="45.31" cy="74.78" r="12.69"/>
<g>
	<g>
		<path class="st2" d="M64.9,110.96c-1.7-0.07-3.41-0.25-5.08-0.52l0.77-4.6c1.48,0.25,3,0.4,4.51,0.46L64.9,110.96z M70,110.85
			l-0.38-4.65c1.5-0.12,3.01-0.34,4.48-0.65l0.95,4.56C73.39,110.47,71.69,110.72,70,110.85z M79.98,108.77l-1.51-4.41
			c1.42-0.49,2.83-1.07,4.18-1.73l2.05,4.19C83.17,107.56,81.58,108.22,79.98,108.77z M89.14,104.29l-2.55-3.9
			c1.26-0.82,2.48-1.74,3.63-2.71l3.01,3.56C91.93,102.33,90.56,103.36,89.14,104.29z M96.91,97.7l-3.43-3.16
			c1.02-1.11,1.98-2.29,2.86-3.52l3.79,2.71C99.14,95.12,98.06,96.45,96.91,97.7z"/>
	</g>
	<path class="st1" d="M9.94,69.81c0,13.81,4.92,26.86,13.91,37.18l38.81-38.81V13.28C33.25,15.32,9.94,39.89,9.94,69.81z M58,66.24
		L24.26,99.98C18,91.22,14.6,80.67,14.6,69.81c0-25.52,18.69-47.14,43.4-51.28V66.24z"/>
	<path class="st1" d="M68.26,73.76l-38.81,38.81c10.32,8.99,23.37,13.91,37.18,13.91c29.92,0,54.49-23.31,56.53-52.72H68.26z
		 M66.62,121.82c-10.87,0-21.41-3.4-30.17-9.65l33.74-33.74h47.72C113.76,103.13,92.13,121.82,66.62,121.82z"/>
	<g>
		<path class="st2" d="M121.39,55.3c-0.46-1.72-0.99-3.41-1.61-5.06l-15.62,15.62h6.67L121.39,55.3z"/>
		<path class="st2" d="M79.55,65.85h6.67l27.5-27.5c-0.89-1.32-1.83-2.61-2.82-3.85L79.55,65.85z"/>
		<path class="st2" d="M123.14,65.85c-0.14-2.01-0.39-3.98-0.74-5.93l-5.93,5.93L123.14,65.85L123.14,65.85z"/>
		<path class="st2" d="M118.14,46.24c-0.69-1.51-1.45-2.98-2.26-4.41L91.86,65.85h6.67L118.14,46.24z"/>
		<path class="st2" d="M86.19,16.64c-1.66-0.61-3.34-1.15-5.07-1.6L70.57,25.59v6.67L86.19,16.64z"/>
		<path class="st2" d="M101.92,25.53c-1.24-0.99-2.53-1.93-3.85-2.82l-27.5,27.5v6.67L101.92,25.53z"/>
		<path class="st2" d="M94.59,20.55c-1.43-0.82-2.9-1.57-4.41-2.26L70.57,37.9v6.67L94.59,20.55z"/>
		<path class="st2" d="M108.3,31.46c-1.07-1.16-2.18-2.27-3.34-3.34L70.57,62.52v3.33h3.33L108.3,31.46z"/>
		<path class="st2" d="M70.57,19.95l5.93-5.93c-1.95-0.34-3.92-0.6-5.93-0.74V19.95z"/>
	</g>
	<g>
		<polygon class="st1" points="131.31,119.34 112.7,119.34 104,110.64 107.3,107.34 114.63,114.68 131.31,114.68 		"/>
		<rect x="113.67" y="124.11" class="st1" width="17.64" height="4.66"/>
	</g>
	<g>
		<polygon class="st1" points="25.79,32.42 18.45,25.09 1.78,25.09 1.78,20.43 20.38,20.43 29.08,29.13 		"/>
		<rect x="1.78" y="10.99" class="st1" width="17.64" height="4.66"/>
	</g>
</g>
</svg>
