<?xml version="1.0" encoding="utf-8"?>
<!-- Generator: Adobe Illustrator 25.2.1, SVG Export Plug-In . SVG Version: 6.00 Build 0)  -->
<svg version="1.1" id="Layer_1" xmlns="http://www.w3.org/2000/svg" xmlns:xlink="http://www.w3.org/1999/xlink" x="0px" y="0px"
	 viewBox="0 0 133.08 139.77" style="enable-background:new 0 0 133.08 139.77;" xml:space="preserve">
<style type="text/css">
	.st0{fill:#FFB020;}
	.st1{fill:#363B64;}
	.st2{fill:#2DB493;}
</style>
<circle class="st0" cx="116.63" cy="33.95" r="13.31"/>
<g>
	<path class="st1" d="M71.44,87.77c-1.55-1.63-4.35-1.63-5.91,0l-12.77,12.84c-1.16,1.17-2.73,1.7-4.27,1.54
		c5.09-4.39,5.57-8.24,0.32-12.77c-4.07-3.68-7.95-1.27-10.96,2.27c-0.25-1.64,0.26-3.37,1.49-4.61l12.8-12.87
		c1.61-1.61,1.61-4.25,0-5.87c-2.71-2.4-6.47-8.61-10.56-4.7c-10.8,11.53-28.34,22.35-15.69,39.99l-9.03,9.03
		c-1.66,1.62,0.91,4.19,2.53,2.53L42.66,91.9c0.95-0.99,2.67-0.99,3.63,0c1.47,1.36,3.91,3.5,1.89,5.51l-33.42,33.42
		c-2.02,2.03-4.15-0.41-5.51-1.89c-2.76-2.65,2.73-5.94,4.09-7.72c1.67-1.62-0.92-4.19-2.53-2.53c-3.65,3.52-8.73,7.6-4.09,12.77
		c1.64,1.72,3.62,3.85,6.23,3.69c3.78,1.21,20.75-19.13,23.49-20.95c17.48,12.66,28.33-5.19,39.66-15.89
		C79.94,94.32,73.79,90.46,71.44,87.77L71.44,87.77z M29.74,80.61l14.38-14.47c0.33-0.25,0.51-0.25,0.83,0l4.65,4.69
		c0.23,0.23,0.23,0.6,0,0.83l-12.8,12.87c-2.63,2.66-3.29,6.65-1.8,9.97l-6.56,6.56C23.79,94.98,24.23,86.16,29.74,80.61
		L29.74,80.61z M73.55,95.81c-9.72,8.56-19.58,26.5-34.58,15.86l6.62-6.62c3.26,1.37,7.14,0.66,9.7-1.92l12.77-12.84
		c0.32-0.25,0.53-0.24,0.83,0l4.65,4.69C73.78,95.21,73.78,95.58,73.55,95.81L73.55,95.81z M73.55,95.81"/>
	<path class="st1" d="M127.1,21.01c0.16-2.6-1.95-4.6-3.69-6.23c-2.28-2.38-6.4-2.38-8.68,0L95.54,33.96
		c-17.66-12.65-28.47,4.9-39.99,15.69c-3.91,4.08,2.3,7.86,4.7,10.56c1.62,1.6,4.25,1.6,5.86-0.01l12.86-12.8
		c1.24-1.23,2.96-1.74,4.61-1.49c-3.55,3.01-5.95,6.89-2.27,10.96c4.54,5.25,8.39,4.77,12.77-0.32c0.16,1.53-0.37,3.1-1.54,4.27
		L79.7,73.6c-3.91,4.08,2.3,7.86,4.69,10.56c1.62,1.6,4.25,1.6,5.86,0l14.49-14.41c4.77-4.73,6.68-11.69,4.99-18.16
		c-0.25-0.96-1.23-1.53-2.18-1.28c-0.96,0.25-1.53,1.23-1.28,2.18c4.07,11.52-12.32,21.92-18.54,29.13c-0.23,0.23-0.6,0.23-0.83,0
		l-4.69-4.65c-0.24-0.31-0.25-0.51,0-0.83l12.84-12.77c2.57-2.56,3.29-6.44,1.92-9.7C98.44,51.22,129.16,24.05,127.1,21.01
		L127.1,21.01z M76.46,44.88l-12.87,12.8c-0.23,0.23-0.6,0.23-0.83,0l-4.69-4.65c-0.25-0.33-0.25-0.5,0-0.83l14.47-14.38
		c5.55-5.51,14.38-5.95,20.46-1.3l-6.56,6.56C83.11,41.58,79.12,42.24,76.46,44.88L76.46,44.88z M122.77,22.82L89.35,56.24
		c-0.48,0.48-1.13,0.75-1.81,0.75c-1.44,0.16-2.76-1.84-3.7-2.64c-0.99-0.95-1-2.67,0-3.63l33.42-33.42c0.95-0.99,2.67-0.99,3.63,0
		C122.36,18.67,124.79,20.8,122.77,22.82L122.77,22.82z M122.77,22.82"/>
</g>
<path class="st2" d="M27.7,56.44l5.22,1.98c0.9,0.35,1.96-0.11,2.3-1.04c0.35-0.92-0.12-1.95-1.04-2.3l-5.22-1.98
	C26.81,52.25,25.52,55.65,27.7,56.44L27.7,56.44z M27.7,56.44"/>
<path class="st2" d="M39.59,48.08c1.6,1.68,4.2-0.86,2.56-2.5l-4.06-4.16c-0.69-0.71-1.82-0.72-2.53-0.03
	c-0.71,0.69-0.72,1.82-0.03,2.53L39.59,48.08z M39.59,48.08"/>
<path class="st2" d="M49.42,41.17c0.57,2.26,4.08,1.32,3.46-0.91l-1.44-5.49c-0.25-0.95-1.23-1.52-2.18-1.27
	c-0.95,0.25-1.52,1.23-1.27,2.18L49.42,41.17z M49.42,41.17"/>
<path class="st2" d="M104.96,89.24l-5.22-1.98c-0.9-0.35-1.96,0.11-2.3,1.04c-0.35,0.92,0.12,1.95,1.04,2.3l5.22,1.98
	C105.85,93.43,107.15,90.03,104.96,89.24L104.96,89.24z M104.96,89.24"/>
<path class="st2" d="M93.07,97.6c-1.6-1.68-4.2,0.86-2.56,2.5l4.06,4.16c0.69,0.71,1.82,0.72,2.53,0.03
	c0.71-0.69,0.72-1.82,0.03-2.53L93.07,97.6z M93.07,97.6"/>
<path class="st2" d="M83.25,104.51c-0.57-2.26-4.08-1.32-3.46,0.91l1.44,5.49c0.25,0.95,1.23,1.52,2.18,1.27
	c0.95-0.25,1.52-1.23,1.27-2.18L83.25,104.51z M83.25,104.51"/>
</svg>
