<?xml version="1.0" encoding="utf-8"?>
<!-- Generator: Adobe Illustrator 25.2.1, SVG Export Plug-In . SVG Version: 6.00 Build 0)  -->
<svg version="1.1" id="Layer_1" xmlns="http://www.w3.org/2000/svg" xmlns:xlink="http://www.w3.org/1999/xlink" x="0px" y="0px"
	 viewBox="0 0 133.08 139.77" style="enable-background:new 0 0 133.08 139.77;" xml:space="preserve">
<style type="text/css">
	.st0{fill:#FFB020;}
	.st1{fill:#363B64;}
	.st2{fill:#2DB493;}
</style>
<circle class="st0" cx="105.76" cy="25.54" r="13.64"/>
<g>
	<g>
		<rect x="15.9" y="53.08" class="st2" width="51.25" height="4.53"/>
		<rect x="15.9" y="70.35" class="st2" width="65.48" height="4.53"/>
		<rect x="15.9" y="78.98" class="st2" width="65.48" height="4.53"/>
		<rect x="15.9" y="104.89" class="st2" width="65.48" height="4.53"/>
		<rect x="15.9" y="113.53" class="st2" width="65.48" height="4.53"/>
		<rect x="15.9" y="61.71" class="st2" width="65.48" height="4.53"/>
		<rect x="15.9" y="87.62" class="st2" width="51.25" height="4.53"/>
		<rect x="15.9" y="96.26" class="st2" width="51.25" height="4.53"/>
		<rect x="86.94" y="70.35" class="st2" width="14.23" height="4.53"/>
		<rect x="86.94" y="78.98" class="st2" width="27.44" height="4.53"/>
		<rect x="86.94" y="104.89" class="st2" width="14.23" height="4.53"/>
		<rect x="86.94" y="113.53" class="st2" width="27.44" height="4.53"/>
		<rect x="86.94" y="61.71" class="st2" width="14.23" height="4.53"/>
		<rect x="86.94" y="96.26" class="st2" width="14.23" height="4.53"/>
	</g>
	<g>
		<path class="st1" d="M129.24,130.49H3.81V40.65h125.43V130.49z M8.35,125.95h116.36V45.19H8.35V125.95z"/>
		<path class="st1" d="M129.24,45.19H3.81V25.54h125.43V45.19z M8.35,40.65h116.36V30.08H8.35V40.65z"/>
		<rect x="13.63" y="33.1" class="st1" width="4.53" height="4.53"/>
		<rect x="22.7" y="33.1" class="st1" width="4.53" height="4.53"/>
		<rect x="31.77" y="33.1" class="st1" width="4.53" height="4.53"/>
	</g>
</g>
</svg>
