<?xml version="1.0" encoding="utf-8"?>
<!-- Generator: Adobe Illustrator 25.2.1, SVG Export Plug-In . SVG Version: 6.00 Build 0)  -->
<svg version="1.1" id="Layer_1" xmlns="http://www.w3.org/2000/svg" xmlns:xlink="http://www.w3.org/1999/xlink" x="0px" y="0px"
	 viewBox="0 0 133.08 139.77" style="enable-background:new 0 0 133.08 139.77;" xml:space="preserve">
<style type="text/css">
	.st0{fill:#FFB020;}
	.st1{fill:#363B64;}
	.st2{fill:#2DB493;}
</style>
<g>
	<circle class="st0" cx="115.02" cy="20.02" r="14.35"/>
	<g>
		<g>
			<rect x="16.97" y="54.65" class="st2" width="4.19" height="4.19"/>
			<path class="st2" d="M21.16,50.78h-4.19V46.9h4.19V50.78z M21.16,43.02h-4.19v-3.88h4.19V43.02z"/>
			<rect x="16.97" y="31.08" class="st2" width="4.19" height="4.19"/>
			<path class="st2" d="M102.71,35.27h-4.08v-4.19h4.08V35.27z M94.56,35.27h-4.08v-4.19h4.08V35.27z M86.4,35.27h-4.08v-4.19h4.08
				V35.27z M78.25,35.27h-4.08v-4.19h4.08V35.27z M70.09,35.27h-4.08v-4.19h4.08V35.27z M61.94,35.27h-4.08v-4.19h4.08V35.27z
				 M53.78,35.27h-4.08v-4.19h4.08V35.27z M45.63,35.27h-4.08v-4.19h4.08V35.27z M37.47,35.27H33.4v-4.19h4.08V35.27z M29.32,35.27
				h-4.08v-4.19h4.08V35.27z"/>
			
				<rect x="106.79" y="31.08" transform="matrix(1.259117e-03 -1 1 1.259117e-03 75.576 142.0183)" class="st2" width="4.19" height="4.19"/>
			<path class="st2" d="M110.98,50.78h-4.19V46.9h4.19V50.78z M110.98,43.02h-4.19v-3.88h4.19V43.02z"/>
			<rect x="106.79" y="54.65" class="st2" width="4.19" height="4.19"/>
			<path class="st2" d="M102.71,58.85h-4.08v-4.19h4.08V58.85z M94.56,58.85h-4.08v-4.19h4.08V58.85z M86.4,58.85h-4.08v-4.19h4.08
				V58.85z M78.25,58.85h-4.08v-4.19h4.08V58.85z M70.09,58.85h-4.08v-4.19h4.08V58.85z M61.94,58.85h-4.08v-4.19h4.08V58.85z
				 M53.78,58.85h-4.08v-4.19h4.08V58.85z M45.63,58.85h-4.08v-4.19h4.08V58.85z M37.47,58.85H33.4v-4.19h4.08V58.85z M29.32,58.85
				h-4.08v-4.19h4.08V58.85z"/>
		</g>
		<g>
			<path class="st2" d="M16.97,63.73v28.24h28.23V63.73H16.97z M41.02,87.78H21.16V67.92h19.86V87.78z"/>
			<path class="st2" d="M49.86,63.73v28.24H78.1V63.73H49.86z M73.91,87.78H54.05V67.92h19.86V87.78z"/>
			<path class="st2" d="M82.75,63.73v28.24h28.23V63.73H82.75z M106.79,87.78H86.94V67.92h19.86V87.78z"/>
		</g>
		<polygon class="st1" points="83.18,134.1 44.77,134.1 44.77,121.41 48.96,121.41 48.96,129.91 78.99,129.91 78.99,121.41 
			83.18,121.41 		"/>
		<rect x="37.1" y="129.91" class="st1" width="53.75" height="4.19"/>
		<path class="st1" d="M124.25,103.03H3.71V26.22c0-1.65,0.64-3.2,1.81-4.38c1.18-1.18,2.74-1.82,4.39-1.82h108.14
			c1.66,0,3.22,0.65,4.38,1.82c1.17,1.18,1.81,2.73,1.81,4.38V103.03z M7.9,98.84h112.16V26.22c0-0.53-0.21-1.04-0.59-1.43
			c-0.38-0.38-0.88-0.58-1.42-0.58H9.91c-0.54,0-1.05,0.21-1.43,0.59c-0.37,0.38-0.59,0.88-0.59,1.42V98.84z"/>
		<path class="st1" d="M118.05,116.71H9.91c-1.67,0-3.23-0.65-4.39-1.82c-1.16-1.15-1.81-2.71-1.81-4.38V98.84h120.54v11.67
			c0,1.66-0.65,3.22-1.82,4.39C121.27,116.06,119.71,116.71,118.05,116.71z M7.9,103.03v7.48c0,0.54,0.21,1.04,0.59,1.42
			c0.38,0.39,0.88,0.59,1.43,0.59h108.14c0.54,0,1.04-0.21,1.41-0.58c0.39-0.39,0.6-0.89,0.6-1.43v-7.48H7.9z"/>
	</g>
</g>
</svg>
