<?xml version="1.0" encoding="utf-8"?>
<!-- Generator: Adobe Illustrator 25.2.1, SVG Export Plug-In . SVG Version: 6.00 Build 0)  -->
<svg version="1.1" id="Layer_1" xmlns="http://www.w3.org/2000/svg" xmlns:xlink="http://www.w3.org/1999/xlink" x="0px" y="0px"
	 viewBox="0 0 133.08 139.77" style="enable-background:new 0 0 133.08 139.77;" xml:space="preserve">
<style type="text/css">
	.st0{fill:#FFB020;}
	.st1{fill:#363B64;}
	.st2{fill:#2DB493;}
</style>
<circle class="st0" cx="77.73" cy="25.45" r="13.31"/>
<g>
	<path class="st1" d="M83.68,57.8c-0.35,1.3-0.54,2.59-0.65,3.89h35.55v72.28H48.81v3.89h73.65V57.8H83.68z"/>
	<path class="st1" d="M14.51,133.97V61.69h38.4c0.11-1.3,0.3-2.59,0.65-3.89H10.62v80.05h36.15v-3.89H14.51z"/>
	<rect x="46.77" y="133.97" class="st1" width="2.04" height="3.89"/>
	<path class="st1" d="M14.51,57.8V48.2h42.44c0-0.35-0.01-0.7-0.01-1.04c0-0.95,0-1.89-0.03-2.84H10.62v17.38h42.29l0.65-3.89H14.51
		z"/>
	<path class="st1" d="M122.46,44.31H77.73c0.03,0.79,0.05,1.58,0.05,2.37c0,0.5,0,1.01,0,1.51h40.79v9.61H81.42l0.54,3.89h40.5
		V44.31z"/>
	<g>
		<rect x="36.39" y="51.06" class="st1" width="3.89" height="3.89"/>
		<rect x="28.61" y="51.06" class="st1" width="3.89" height="3.89"/>
		<rect x="20.84" y="51.06" class="st1" width="3.88" height="3.89"/>
	</g>
	<g>
		<polygon class="st2" points="93.61,109.73 67.62,39.57 41.63,109.73 37.99,108.38 67.62,28.38 97.25,108.38 		"/>
		<path class="st2" d="M67.62,81.32c-10.59,0-20.34-5.78-25.45-15.09l3.41-1.87C50,72.42,58.45,77.43,67.62,77.43
			c9.17,0,17.62-5.01,22.04-13.07l3.41,1.87C87.96,75.53,78.21,81.32,67.62,81.32z"/>
		<rect x="65.68" y="14.98" class="st2" width="3.89" height="9.76"/>
		<path class="st2" d="M72.59,16.92h-9.93V1.91h9.93V16.92z M66.54,13.03h2.16V5.8h-2.16V13.03z"/>
		<rect x="65.68" y="74.36" class="st2" width="3.89" height="10.01"/>
		<path class="st2" d="M67.62,41.76c-6.44,0-11.68-5.24-11.68-11.68c0-6.44,5.24-11.67,11.68-11.67c6.44,0,11.68,5.24,11.68,11.67
			C79.3,36.52,74.06,41.76,67.62,41.76z M67.62,22.3c-4.3,0-7.79,3.49-7.79,7.78c0,4.3,3.49,7.79,7.79,7.79
			c4.3,0,7.79-3.5,7.79-7.79C75.41,25.79,71.92,22.3,67.62,22.3z"/>
		<g>
			<path class="st2" d="M65.68,129.82c-1.32-0.06-2.65-0.18-3.95-0.36l0.53-3.85c1.18,0.16,2.39,0.27,3.59,0.33L65.68,129.82z
				 M69.64,129.82l-0.18-3.88c1.2-0.06,2.41-0.17,3.59-0.33l0.54,3.85C72.29,129.64,70.96,129.76,69.64,129.82z M57.83,128.75
				c-1.28-0.3-2.57-0.66-3.82-1.08l1.23-3.69c1.14,0.38,2.3,0.71,3.47,0.98L57.83,128.75z M77.48,128.73l-0.89-3.78
				c1.17-0.27,2.33-0.61,3.47-0.99l1.24,3.69C80.05,128.06,78.76,128.43,77.48,128.73z M50.32,126.24c-1.2-0.53-2.39-1.12-3.55-1.76
				l1.89-3.4c1.05,0.58,2.14,1.12,3.23,1.6L50.32,126.24z M84.99,126.21l-1.57-3.55c1.09-0.48,2.18-1.02,3.22-1.61l1.89,3.39
				C87.39,125.08,86.19,125.68,84.99,126.21z M43.39,122.39c-1.09-0.74-2.15-1.55-3.17-2.38l2.48-2.99
				c0.92,0.76,1.89,1.49,2.88,2.17L43.39,122.39z M91.91,122.35l-2.2-3.2c0.99-0.68,1.96-1.41,2.88-2.18l2.48,2.99
				C94.06,120.8,92.99,121.61,91.91,122.35z M37.3,117.34c-0.93-0.93-1.83-1.91-2.68-2.92l2.98-2.49c0.77,0.92,1.58,1.81,2.43,2.66
				L37.3,117.34z M97.99,117.29l-2.75-2.75c0.85-0.84,1.66-1.74,2.43-2.66l2.99,2.48C99.82,115.38,98.92,116.36,97.99,117.29z
				 M32.22,111.26c-0.75-1.09-1.45-2.22-2.1-3.36l3.39-1.9c0.58,1.04,1.23,2.07,1.91,3.06L32.22,111.26z M103.06,111.2l-3.2-2.2
				c0.68-0.99,1.32-2.02,1.9-3.06l3.39,1.9C104.51,108.99,103.8,110.12,103.06,111.2z M28.35,104.36c-0.54-1.2-1.02-2.45-1.44-3.69
				l3.68-1.24c0.38,1.13,0.82,2.26,1.31,3.36L28.35,104.36z M106.92,104.29l-3.55-1.57c0.49-1.1,0.93-2.23,1.31-3.36l3.68,1.24
				C107.94,101.84,107.46,103.08,106.92,104.29z M25.81,96.85c-0.3-1.28-0.55-2.59-0.73-3.9l3.85-0.54
				c0.17,1.19,0.39,2.38,0.67,3.54L25.81,96.85z M109.45,96.78l-3.78-0.89c0.27-1.16,0.5-2.36,0.66-3.54l3.85,0.54
				C109.99,94.19,109.75,95.5,109.45,96.78z"/>
		</g>
	</g>
</g>
</svg>
