<?xml version="1.0" encoding="utf-8"?>
<!-- Generator: Adobe Illustrator 25.2.1, SVG Export Plug-In . SVG Version: 6.00 Build 0)  -->
<svg version="1.1" id="Layer_1" xmlns="http://www.w3.org/2000/svg" xmlns:xlink="http://www.w3.org/1999/xlink" x="0px" y="0px"
	 viewBox="0 0 51.65 51.82" style="enable-background:new 0 0 51.65 51.82;" xml:space="preserve">
<style type="text/css">
	.st0{fill:#E4E3EB;}
	.st1{fill:#FFFFFF;}
	.st2{fill:none;}
	.st3{fill:url(#SVGID_1_);}
	.st4{fill:url(#SVGID_2_);}
	.st5{fill:url(#SVGID_3_);}
	.st6{fill:url(#SVGID_4_);}
	.st7{fill:#4D4A5D;}
	.st8{fill:url(#SVGID_5_);}
	.st9{fill:url(#SVGID_6_);}
	.st10{fill:url(#SVGID_7_);}
	.st11{fill:url(#SVGID_8_);}
	.st12{fill:url(#SVGID_9_);}
	.st13{fill:#FFB820;}
	.st14{fill:none;stroke:#2CB694;stroke-linecap:round;stroke-linejoin:round;stroke-miterlimit:10;}
	.st15{fill:none;stroke:#363B64;stroke-linecap:round;stroke-linejoin:round;stroke-miterlimit:10;}
</style>
<g>
	<circle class="st13" cx="47.34" cy="4.31" r="4.31"/>
	<path class="st14" d="M25.46,9.86c0.47,0,0.86-0.38,0.86-0.86c0-0.47-0.38-0.86-0.86-0.86c-0.47,0-0.86,0.38-0.86,0.86
		C24.6,9.48,24.98,9.86,25.46,9.86z"/>
	<polygon class="st14" points="25.57,15.07 18.78,35.42 16.83,30.47 22.02,15.07 	"/>
	<path class="st14" d="M27.95,11.45c0.62-0.63,1-1.49,1-2.45c0-1.33-0.74-2.48-1.82-3.07c-0.49-0.27-1.07-0.43-1.67-0.43
		c-0.62,0-1.21,0.16-1.72,0.45C22.68,6.56,21.96,7.7,21.96,9c0,0.96,0.38,1.82,1,2.45"/>
	<circle class="st14" cx="25.46" cy="9" r="0.86"/>
	<polyline class="st14" points="25.46,11.45 22.96,11.45 22.96,15.07 	"/>
	<path class="st14" d="M23.74,5.96V3.81c0-0.93,0.75-1.69,1.69-1.69c0.47,0,0.89,0.19,1.2,0.49c0.31,0.31,0.49,0.73,0.49,1.2v2.13"
		/>
	<polyline class="st14" points="17.96,27.11 11.97,27.11 11.97,20.52 20.18,20.52 	"/>
	<polyline class="st14" points="21.55,27.11 25.1,27.11 25.57,27.11 	"/>
	<polyline class="st14" points="23.76,20.52 25.1,20.52 25.57,20.52 	"/>
	<path class="st15" d="M1.42,44.75V44.6V12.68c0-1.69,1.37-3.06,3.06-3.06c0.85,0,1.61,0.34,2.17,0.9c0.55,0.56,0.9,1.32,0.9,2.17
		v32"/>
	<line class="st14" x1="18.78" y1="35.42" x2="18.78" y2="37.98"/>
	<polyline class="st14" points="26.12,37.98 14.15,37.98 14.15,44.51 26.12,44.51 	"/>
	<line class="st14" x1="21.96" y1="37.98" x2="21.96" y2="44.51"/>
	<line class="st15" x1="19.04" y1="12.93" x2="7.55" y2="12.93"/>
	<line class="st14" x1="17.95" y1="7.57" x2="10.88" y2="7.57"/>
	<line class="st15" x1="17.44" y1="4.31" x2="3.8" y2="4.31"/>
	<path class="st15" d="M26.12,51.32H4.51c-1.43,0-2.81-0.77-3.54-2.12c-0.79-1.48-0.56-3.23,0.44-4.45c0.32-0.39,0.72-0.73,1.2-0.98
		c1.68-0.91,3.73-0.48,4.93,0.91"/>
	<polygon class="st14" points="25.57,15.07 32.36,35.42 34.31,30.47 29.12,15.07 	"/>
	<polyline class="st14" points="25.69,11.45 28.18,11.45 28.18,15.07 	"/>
	<polyline class="st14" points="25.1,27.11 25.57,27.11 29.59,27.11 	"/>
	<polyline class="st14" points="25.1,20.52 25.57,20.52 27.39,20.52 	"/>
	<polyline class="st14" points="30.96,20.52 39.18,20.52 39.18,27.11 33.18,27.11 	"/>
	<path class="st15" d="M43.6,44.68v-32c0-0.85,0.34-1.61,0.9-2.17c0.55-0.55,1.32-0.9,2.17-0.9c1.69,0,3.06,1.37,3.06,3.06V44.6
		v0.16"/>
	<line class="st14" x1="32.36" y1="35.42" x2="32.36" y2="37.98"/>
	<polyline class="st14" points="25.03,37.98 36.99,37.98 36.99,44.51 25.03,44.51 	"/>
	<line class="st14" x1="29.18" y1="37.98" x2="29.18" y2="44.51"/>
	<line class="st15" x1="32.1" y1="12.93" x2="43.6" y2="12.93"/>
	<line class="st14" x1="33.19" y1="7.57" x2="40.27" y2="7.57"/>
	<line class="st15" x1="33.7" y1="4.31" x2="47.34" y2="4.31"/>
	<path class="st15" d="M43.6,44.68c1.2-1.39,3.25-1.81,4.93-0.91c0.48,0.26,0.88,0.59,1.2,0.98c1.01,1.22,1.23,2.97,0.44,4.45
		c-0.72,1.35-2.11,2.12-3.54,2.12h-21.6"/>
	<line class="st15" x1="14.15" y1="47.84" x2="36.99" y2="47.84"/>
</g>
</svg>
