<?xml version="1.0" encoding="utf-8"?>
<!-- Generator: Adobe Illustrator 25.2.1, SVG Export Plug-In . SVG Version: 6.00 Build 0)  -->
<svg version="1.1" id="Layer_1" xmlns="http://www.w3.org/2000/svg" xmlns:xlink="http://www.w3.org/1999/xlink" x="0px" y="0px"
	 viewBox="0 0 45.51 53.74" style="enable-background:new 0 0 45.51 53.74;" xml:space="preserve">
<style type="text/css">
	.st0{fill:#E4E3EB;}
	.st1{fill:#FFFFFF;}
	.st2{fill:none;}
	.st3{fill:url(#SVGID_1_);}
	.st4{fill:url(#SVGID_2_);}
	.st5{fill:url(#SVGID_3_);}
	.st6{fill:url(#SVGID_4_);}
	.st7{fill:#4D4A5D;}
	.st8{fill:url(#SVGID_5_);}
	.st9{fill:url(#SVGID_6_);}
	.st10{fill:url(#SVGID_7_);}
	.st11{fill:url(#SVGID_8_);}
	.st12{fill:url(#SVGID_9_);}
	.st13{fill:#FFB820;}
	.st14{fill:none;stroke:#2CB694;stroke-linecap:round;stroke-linejoin:round;stroke-miterlimit:10;}
	.st15{fill:none;stroke:#363B64;stroke-linecap:round;stroke-linejoin:round;stroke-miterlimit:10;}
</style>
<g>
	<circle class="st13" cx="34.86" cy="4.04" r="4.04"/>
	<polygon class="st15" points="0.5,4.04 34.86,4.04 34.86,45.95 27.57,53.24 0.5,53.24 	"/>
	<polyline class="st15" points="34.86,45.95 27.68,45.95 27.68,53.24 	"/>
	<line class="st14" x1="25.12" y1="45.95" x2="12.63" y2="45.95"/>
	<line class="st14" x1="32.1" y1="38.86" x2="12.63" y2="38.86"/>
	<line class="st14" x1="32.1" y1="31.76" x2="12.63" y2="31.76"/>
	<polyline class="st14" points="3.63,30.76 6.04,33.17 10.4,28.81 	"/>
	<polyline class="st14" points="3.63,38.21 6.04,40.62 10.4,36.26 	"/>
	<rect x="4.03" y="43.92" class="st14" width="5.72" height="4.07"/>
	<polyline class="st14" points="18.11,26.52 13.38,26.52 13.38,21.71 11.37,18.72 18.11,6.59 	"/>
	<polyline class="st14" points="18.11,26.52 22.83,26.52 22.83,21.71 24.84,18.72 18.11,6.59 18.11,14.21 	"/>
	<circle class="st14" cx="18.11" cy="16.73" r="2.52"/>
	<polygon class="st15" points="45.01,45.95 42.67,50.09 40.33,45.95 40.33,7.15 45.01,7.15 	"/>
	<line class="st15" x1="40.33" y1="45.95" x2="45.01" y2="45.95"/>
	<line class="st15" x1="40.33" y1="11.14" x2="45.01" y2="11.14"/>
</g>
</svg>
