<?xml version="1.0" encoding="utf-8"?>
<!-- Generator: Adobe Illustrator 25.2.1, SVG Export Plug-In . SVG Version: 6.00 Build 0)  -->
<svg version="1.1" id="Layer_1" xmlns="http://www.w3.org/2000/svg" xmlns:xlink="http://www.w3.org/1999/xlink" x="0px" y="0px"
	 viewBox="0 0 60.65 52.02" style="enable-background:new 0 0 60.65 52.02;" xml:space="preserve">
<style type="text/css">
	.st0{fill:#E4E3EB;}
	.st1{fill:#FFFFFF;}
	.st2{fill:none;}
	.st3{fill:url(#SVGID_1_);}
	.st4{fill:url(#SVGID_2_);}
	.st5{fill:url(#SVGID_3_);}
	.st6{fill:url(#SVGID_4_);}
	.st7{fill:#4D4A5D;}
	.st8{fill:url(#SVGID_5_);}
	.st9{fill:url(#SVGID_6_);}
	.st10{fill:url(#SVGID_7_);}
	.st11{fill:url(#SVGID_8_);}
	.st12{fill:url(#SVGID_9_);}
	.st13{fill:#FFB820;}
	.st14{fill:none;stroke:#2CB694;stroke-linecap:round;stroke-linejoin:round;stroke-miterlimit:10;}
	.st15{fill:none;stroke:#363B64;stroke-linecap:round;stroke-linejoin:round;stroke-miterlimit:10;}
</style>
<g>
	<circle class="st13" cx="55.2" cy="5.45" r="5.45"/>
	<path class="st15" d="M8.36,43.96v5.89c0,0.92,0.75,1.67,1.67,1.67h45.41c0.92,0,1.67-0.75,1.67-1.67V4.98
		c0-0.92-0.75-1.67-1.67-1.67H41.36H24.11H10.03c-0.92,0-1.67,0.75-1.67,1.67v19.68"/>
	<g>
		<path class="st15" d="M24.11,3.31v13.2v3.93c0,1.15,0.93,2.09,2.09,2.09h13.07c1.15,0,2.09-0.94,2.09-2.09V3.31"/>
		<line class="st15" x1="24.11" y1="16.51" x2="36.12" y2="16.51"/>
	</g>
	<line class="st15" x1="1.42" y1="24.66" x2="18.99" y2="24.66"/>
	<line class="st14" x1="10.75" y1="29.41" x2="28.31" y2="29.41"/>
	<line class="st15" x1="1.42" y1="43.96" x2="18.99" y2="43.96"/>
	<line class="st14" x1="0" y1="34.15" x2="23.34" y2="34.15"/>
	<line class="st14" x1="2.85" y1="38.66" x2="28.09" y2="38.66"/>
	<path class="st14" d="M48.04,45.72h-9.49c-1.4,0-2.53-1.13-2.53-2.53V30.52c0-1.4,1.13-2.53,2.53-2.53h9.49
		c1.4,0,2.53,1.13,2.53,2.53v12.68C50.57,44.59,49.44,45.72,48.04,45.72z"/>
	<line class="st14" x1="40.46" y1="33.19" x2="46.23" y2="33.19"/>
	<line class="st14" x1="40.06" y1="37.07" x2="46.63" y2="37.07"/>
	<line class="st14" x1="39.65" y1="40.95" x2="47.04" y2="40.95"/>
</g>
</svg>
