<?xml version="1.0" encoding="utf-8"?>
<!-- Generator: Adobe Illustrator 25.2.1, SVG Export Plug-In . SVG Version: 6.00 Build 0)  -->
<svg version="1.1" id="Layer_1" xmlns="http://www.w3.org/2000/svg" xmlns:xlink="http://www.w3.org/1999/xlink" x="0px" y="0px"
	 viewBox="0 0 52.24 50.21" style="enable-background:new 0 0 52.24 50.21;" xml:space="preserve">
<style type="text/css">
	.st0{fill:#E4E3EB;}
	.st1{fill:#FFFFFF;}
	.st2{fill:none;}
	.st3{fill:url(#SVGID_1_);}
	.st4{fill:url(#SVGID_2_);}
	.st5{fill:url(#SVGID_3_);}
	.st6{fill:url(#SVGID_4_);}
	.st7{fill:#4D4A5D;}
	.st8{fill:url(#SVGID_5_);}
	.st9{fill:url(#SVGID_6_);}
	.st10{fill:url(#SVGID_7_);}
	.st11{fill:url(#SVGID_8_);}
	.st12{fill:url(#SVGID_9_);}
	.st13{fill:#FFB820;}
	.st14{fill:none;stroke:#2CB694;stroke-linecap:round;stroke-linejoin:round;stroke-miterlimit:10;}
	.st15{fill:none;stroke:#363B64;stroke-linecap:round;stroke-linejoin:round;stroke-miterlimit:10;}
</style>
<g>
	<path class="st15" d="M34.75,39.78c2.93-2.09,5.18-5.07,6.37-8.53"/>
	<path class="st15" d="M29.55,8.86c-1.56-0.46-3.22-0.71-4.93-0.71c-9.63,0-17.44,7.81-17.44,17.44c0,9.63,7.81,17.44,17.44,17.44
		c1.49,0,2.94-0.19,4.32-0.54"/>
	<path class="st14" d="M12.02,5.01c3.67-2.25,7.98-3.55,12.6-3.55c3.61,0,7.04,0.79,10.11,2.22"/>
	<path class="st15" d="M4.45,38.82c-2.5-3.8-3.95-8.34-3.95-13.23c0-5.94,2.15-11.38,5.71-15.58"/>
	<path class="st14" d="M44.23,39.63c-4.38,6.1-11.53,10.08-19.61,10.08c-6.12,0-11.7-2.28-15.95-6.03"/>
	<path class="st15" d="M48.68,28.89c-0.03,0.13-0.68,2.62-0.71,2.75c-0.33,1.29-0.77,2.54-1.31,3.74"/>
	<path class="st15" d="M48.07,31.27h2.9c0.6,0,0.97-0.65,0.67-1.17l-3.38-5.86l-2.75-4.75c-0.08-0.14-0.22-0.39-0.38-0.66
		c-0.41-0.71-1.44-0.71-1.86,0c-0.16,0.27-0.3,0.52-0.38,0.66l-2.75,4.75l-3.38,5.86c-0.3,0.52,0.07,1.17,0.67,1.17h3.68"/>
	<line class="st15" x1="21.24" y1="29.32" x2="12.02" y2="29.32"/>
	<path class="st15" d="M26.42,32.72c-0.17,0.03-12.07,0-12.07,0"/>
	<line class="st15" x1="28.37" y1="32.74" x2="32.95" y2="32.74"/>
	<path class="st14" d="M26.79,27.07l-5.55,2.25l2.27-5.53L46.11,1.18c0.91-0.91,2.37-0.91,3.28,0l0,0c0.91,0.91,0.91,2.37,0,3.28
		L26.79,27.07z"/>
	<line class="st14" x1="23.61" y1="23.91" x2="26.67" y2="26.98"/>
	<line class="st14" x1="43.7" y1="3.59" x2="46.98" y2="6.87"/>
	<line class="st14" x1="40.92" y1="6.37" x2="44.2" y2="9.64"/>
	<line class="st14" x1="27.01" y1="20.27" x2="30.29" y2="23.55"/>
</g>
</svg>
